<svg width="256" height="19" viewBox="0 0 256 19" fill="none" xmlns="http://www.w3.org/2000/svg">
<path d="M113.448 18L118.148 11.88L118.108 13.22L113.628 7.32001H116.408L119.548 11.52H118.488L121.648 7.32001H124.348L119.828 13.22L119.848 11.88L124.528 18H121.708L118.408 13.54L119.448 13.68L116.208 18H113.448Z" fill="white"/>
<path fill-rule="evenodd" clip-rule="evenodd" d="M39.5614 0.0203634C39.5316 0.0376489 39.6388 0.0660623 39.8583 0.0990394C40.6268 0.214568 41.5914 0.497858 42.2205 0.792776C43.6605 1.46779 44.5418 2.47736 44.8038 3.75192C44.9217 4.32554 44.9623 6.04331 44.8938 7.56076C44.7772 10.1457 44.4724 12.5227 43.7328 16.6132C43.6424 17.1136 43.5683 17.5467 43.5683 17.5757C43.5683 17.6249 43.8277 17.6277 47.4459 17.6174C50.8924 17.6076 51.3638 17.6005 51.6854 17.5532C53.2189 17.3278 54.3294 16.955 55.81 16.1685C56.3701 15.871 57.1146 15.4377 57.0656 15.4377C57.0456 15.4377 56.7732 15.4866 56.4605 15.5462C55.7763 15.6768 54.7962 15.8203 54.0682 15.8965C53.2997 15.9769 51.3854 15.9774 50.8077 15.8973C49.3025 15.6887 48.2817 15.1818 47.9458 14.4763C47.8614 14.2989 47.8605 14.2835 47.8681 13.1715C47.8723 12.5526 47.9032 10.4849 47.9367 8.57664C48.0088 4.46926 48.0029 4.06816 47.865 3.66915C47.6441 3.03015 47.1153 2.31091 46.5081 1.8235C45.3425 0.887831 43.9035 0.330941 41.9841 0.072689C41.5531 0.0147057 39.642 -0.0265859 39.5614 0.0203634ZM83.6891 3.07082C83.7195 3.09526 84.0344 3.287 84.389 3.49692C85.1811 3.96585 85.4535 4.15309 85.8063 4.47129C86.6193 5.20457 87.0967 6.06344 87.7058 7.88896C88.2322 9.46648 89.2521 13.1209 89.2521 13.4294C89.2521 13.4935 89.1377 13.4514 87.9903 12.9646C83.5385 11.0761 80.9822 9.75737 78.4022 8.0184C76.6963 6.86864 74.9601 5.43991 73.5055 3.98908C73.2855 3.76965 73.0705 3.58366 73.0276 3.57582C72.9324 3.55835 71.1051 3.36026 70.4444 3.29575C69.7571 3.22867 68.8537 3.1599 68.3628 3.13733L67.9392 3.11783L68.2242 3.25283C69.948 4.06944 72.1813 6.49174 73.1612 8.60789C73.3326 8.97796 73.4205 9.25159 73.5737 9.89143C73.9616 11.5125 74.149 12.6692 74.222 13.8918C74.3 15.2003 74.1524 16.2972 73.723 17.5999C73.6537 17.8102 73.603 17.9874 73.6104 17.9936C73.6359 18.0153 74.3902 17.3546 74.6396 17.0921C75.1959 16.5067 75.7421 15.696 76.0277 15.0314C76.4399 14.0725 76.6323 12.8001 76.5442 11.6165C76.506 11.1029 76.4322 10.5128 76.3693 10.218L76.346 10.1091L76.4715 10.1899C77.9777 11.1599 80.0611 12.2488 82.639 13.4135C84.5914 14.2955 87.5848 15.5866 88.2996 15.8549C91.2455 16.9608 94.732 17.6493 98.2046 17.8109C99.1839 17.8564 100.025 17.8778 99.9995 17.8566C99.9876 17.8465 99.782 17.7714 99.5426 17.6896C97.4588 16.9781 95.6017 16.0763 94.585 15.2825C94.281 15.0452 93.9053 14.6269 93.7137 14.3125C93.6352 14.1835 93.4348 13.7615 93.2684 13.3747C91.952 10.3138 90.3011 6.73939 89.9671 6.22711C89.3609 5.29744 88.2311 4.57019 86.3156 3.87671C85.4635 3.56822 83.595 2.99489 83.6891 3.07082ZM54.6615 3.33191C54.6332 3.34142 54.9233 3.43675 55.3062 3.54375C58.0532 4.31132 59.334 5.17381 59.7424 6.53103C59.8437 6.86761 59.9258 7.49793 60.1838 9.92072C60.4717 12.624 60.6507 14.1502 60.72 14.4923C60.8172 14.9721 60.9815 15.3331 61.2722 15.7054C62.2481 16.9555 64.3714 17.6828 67.7918 17.9389C68.291 17.9762 70.4181 18.0189 70.3879 17.991C70.3772 17.981 70.029 17.8757 69.6143 17.7569C66.8287 16.9593 65.4299 16.2217 64.7915 15.2134C64.4218 14.6296 64.4015 14.5252 63.7947 10.0614C63.5282 8.1007 63.3721 7.04585 63.2954 6.68554C63.1379 5.9466 62.7595 5.3568 62.1119 4.84073C61.0627 4.00468 59.465 3.51508 57.2182 3.34113C56.7992 3.30869 54.7526 3.30131 54.6615 3.33191ZM10.2253 3.65321C11.28 4.0856 12.3655 4.99758 12.8057 5.82126C13.2264 6.60855 13.1473 7.64109 12.5983 8.52672C12.3752 8.88665 12.1862 9.10371 11.6531 9.6123C8.56188 12.5615 4.63713 15.3358 0.577279 17.4415C0.232698 17.6202 -0.0261152 17.7708 0.00210552 17.7762C0.0814258 17.7912 4.87372 17.1682 8.12659 16.72C11.0804 16.313 11.5662 16.2693 13.1555 16.2675C14.4879 16.266 14.7449 16.2839 15.4581 16.4277C16.3978 16.6171 17.2089 17.0102 17.6419 17.4857L17.7975 17.6568L19.087 17.6576C19.7962 17.658 21.2946 17.6671 22.4168 17.6778C23.7834 17.6908 24.4525 17.6868 24.4431 17.6657C24.4354 17.6483 24.2706 17.5433 24.077 17.4322C22.165 16.3356 20.7662 14.8626 19.942 13.0778C19.2988 11.685 18.2732 9.30244 17.5535 7.5295C16.9908 6.14299 16.9327 6.01968 16.7063 5.73255C15.8672 4.66815 14.1646 3.90249 11.9766 3.60558C11.755 3.57554 11.2703 3.54956 10.7608 3.5405L9.91342 3.52537L10.2253 3.65321ZM36.6789 4.40653C33.3438 4.6786 29.9413 6.22014 27.9577 8.35783C26.5127 9.91497 25.8723 11.718 26.1261 13.5141C26.2944 14.7045 26.8429 15.9066 27.7765 17.1312L28.1501 17.6212L28.3895 17.6465C28.5213 17.6604 29.4911 17.672 30.5448 17.6722C32.1449 17.6726 32.5638 17.6633 33.0869 17.6158C34.5096 17.4868 35.8019 17.2501 37.0372 16.8922C37.7143 16.696 38.7258 16.3435 39.0921 16.1759L39.2763 16.0917L39.1353 16.1104C38.4524 16.2011 38.0875 16.2259 37.2105 16.2411C35.6515 16.2682 34.4923 16.1522 33.2206 15.8418C30.8006 15.2511 29.3329 14.1285 29.0529 12.6541C29.0102 12.4293 29.0113 11.6176 29.0543 11.5812C29.0653 11.5719 30.201 11.5625 31.578 11.5604C33.7166 11.557 34.1541 11.5641 34.579 11.6088C35.5464 11.7106 36.451 11.9545 37.3678 12.3606L37.8172 12.5597L38.015 12.3655C38.8918 11.5049 39.6476 10.6154 39.9832 10.0493L40.1479 9.77144L39.9331 9.79103C38.1793 9.9512 34.7573 10.0201 31.4113 9.96248C30.4492 9.94595 29.6565 9.92763 29.6496 9.92179C29.6237 9.89984 29.872 9.43623 30.0533 9.16788C30.3645 8.70726 30.6755 8.38259 31.1681 8.00393C32.5326 6.95504 34.4214 6.54522 36.3658 6.87615C37.0885 6.99915 38.1028 7.33145 38.7737 7.66509C38.9003 7.72805 39.0196 7.77956 39.0388 7.77956C39.0931 7.77956 39.0798 6.98799 39.0199 6.65428C38.873 5.83701 38.3762 5.1343 37.5301 4.547C37.2511 4.35339 37.2774 4.3577 36.6789 4.40653ZM14.3716 9.68685C14.6471 10.1511 14.891 10.7603 15.2598 11.9056C15.5838 12.9117 15.8239 13.5922 15.9531 13.8708L16.0455 14.0699L15.9371 14.0514C15.5891 13.9924 14.9333 13.9628 14.3528 13.98C13.0177 14.0195 11.6389 14.1759 9.19965 14.5647C8.76653 14.6337 8.40607 14.685 8.39863 14.6787C8.39123 14.6724 8.58454 14.5364 8.82824 14.3765C9.63353 13.848 10.3443 13.3098 11.2428 12.5483C12.4486 11.5262 13.175 10.7927 13.899 9.86602C14.0703 9.64684 14.2174 9.46748 14.2259 9.46748C14.2344 9.46748 14.3 9.5662 14.3716 9.68685Z" fill="#93DD7D"/>
<path d="M140.603 18.1429V15.5292H150.944V18.1429H140.603ZM141.824 11.7329V9.11914H149.723V11.7329H141.824ZM141.01 5.94527V3.3315H150.537V5.94527H141.01Z" fill="white"/>
<path d="M159.44 15.2824H164.204V18.1429H155.804V2.93087H159.44V15.2824ZM172.02 2.93087V18.1429H168.383V2.93087H172.02ZM180.97 15.1092H187.392V18.1429H176.845V15.3259L183.224 5.9646H176.845V2.93087H187.392V5.7479L180.97 15.1092ZM201.505 15.4559H195.934L195.041 18.1429H191.235L196.636 2.93087H200.846L206.247 18.1429H202.398L201.505 15.4559ZM200.57 12.5955L198.72 7.0264L196.891 12.5955H200.57ZM217.949 18.1429L214.845 12.4004H213.973V18.1429H210.337V2.93087H216.44C217.616 2.93087 218.616 3.14034 219.438 3.55929C220.274 3.97823 220.898 4.55607 221.309 5.29284C221.72 6.01516 221.926 6.82416 221.926 7.71983C221.926 8.73107 221.642 9.63397 221.075 10.4285C220.522 11.2231 219.7 11.7865 218.609 12.1187L222.053 18.1429H217.949ZM213.973 9.77843H216.227C216.893 9.77843 217.389 9.6123 217.715 9.28003C218.056 8.94777 218.226 8.47826 218.226 7.87152C218.226 7.29366 218.056 6.8386 217.715 6.50634C217.389 6.17407 216.893 6.00794 216.227 6.00794H213.973V9.77843ZM232.246 2.93087C233.82 2.93087 235.195 3.24869 236.372 3.88433C237.548 4.51996 238.456 5.41564 239.094 6.57134C239.746 7.7126 240.072 9.03445 240.072 10.5369C240.072 12.0248 239.746 13.3467 239.094 14.5024C238.456 15.6582 237.541 16.5537 236.35 17.1894C235.174 17.825 233.806 18.1429 232.246 18.1429H226.654V2.93087H232.246ZM232.013 14.9357C233.388 14.9357 234.458 14.553 235.223 13.7873C235.989 13.0216 236.372 11.9382 236.372 10.5369C236.372 9.13557 235.989 8.04487 235.223 7.26477C234.458 6.48467 233.388 6.09462 232.013 6.09462H230.29V14.9357H232.013ZM249.95 18.2946C248.859 18.2946 247.881 18.114 247.016 17.7529C246.151 17.3917 245.456 16.8572 244.932 16.1493C244.422 15.4414 244.152 14.589 244.124 13.5923H247.994C248.051 14.1557 248.242 14.589 248.568 14.8924C248.894 15.1813 249.32 15.3259 249.844 15.3259C250.383 15.3259 250.808 15.203 251.12 14.9574C251.432 14.6974 251.588 14.3434 251.588 13.8956C251.588 13.52 251.46 13.2094 251.205 12.9639C250.964 12.7183 250.659 12.516 250.291 12.3571C249.936 12.1982 249.426 12.0176 248.76 11.8154C247.796 11.512 247.009 11.2086 246.399 10.9052C245.79 10.6019 245.265 10.154 244.826 9.56174C244.386 8.96944 244.166 8.19656 244.166 7.2431C244.166 5.82736 244.67 4.72222 245.676 3.92766C246.683 3.11867 247.994 2.71417 249.61 2.71417C251.255 2.71417 252.58 3.11867 253.587 3.92766C254.593 4.72222 255.132 5.83459 255.203 7.26477H251.269C251.24 6.7736 251.063 6.39077 250.737 6.11629C250.411 5.82736 249.993 5.6829 249.483 5.6829C249.043 5.6829 248.689 5.80569 248.419 6.05127C248.15 6.28242 248.015 6.6219 248.015 7.06974C248.015 7.56092 248.242 7.94374 248.696 8.21823C249.149 8.49272 249.858 8.78886 250.822 9.10669C251.786 9.43894 252.566 9.75677 253.161 10.0601C253.771 10.3635 254.295 10.8041 254.735 11.382C255.174 11.9598 255.394 12.7038 255.394 13.6139C255.394 14.4807 255.174 15.268 254.735 15.9759C254.31 16.6837 253.686 17.2472 252.864 17.6662C252.041 18.0852 251.07 18.2946 249.95 18.2946Z" fill="url(#paint0_linear_133_1415)"/>
<defs>
<linearGradient id="paint0_linear_133_1415" x1="148.802" y1="10.447" x2="268.385" y2="-2.63223" gradientUnits="userSpaceOnUse">
<stop stop-color="#98DE7C"/>
<stop offset="0.445614" stop-color="#8AE1CF"/>
<stop offset="1" stop-color="#558CCD"/>
</linearGradient>
</defs>
</svg>
