<svg width="273" height="150" viewBox="0 0 273 150" fill="none" xmlns="http://www.w3.org/2000/svg">
<path d="M41.1137 151.428C41.3891 131.692 70.0386 120.218 86.1185 115.483C127.748 103.423 180.875 104.308 221.274 120.616C232.238 125.34 245.481 132.583 250.386 144.004C251.376 146.354 251.886 148.878 251.886 151.428C251.787 144.982 248.112 139.281 243.565 134.973C221.297 114.686 175.817 109.535 146.5 109.647C117.991 109.822 83.4404 113.614 58.5413 128.234C50.1849 133.321 41.4184 140.921 41.1137 151.428V151.428Z" fill="white"/>
<path d="M146.5 141.812C122.415 142.609 104.894 117.593 114.803 95.3598C120.077 83.0538 133.116 74.6388 146.5 75.1604C137.878 75.4838 129.716 79.1365 123.731 85.3509C117.745 91.5654 114.401 99.8579 114.401 108.486C114.401 117.115 117.745 125.407 123.731 131.621C129.716 137.836 137.878 141.489 146.5 141.812Z" fill="white"/>
<path d="M146.5 75.1544C170.585 74.3633 188.106 99.3738 178.197 121.607C172.923 133.913 159.884 142.333 146.5 141.806C155.122 141.483 163.284 137.83 169.269 131.615C175.255 125.401 178.599 117.109 178.599 108.48C178.599 99.8519 175.255 91.5594 169.269 85.345C163.284 79.1305 155.122 75.4778 146.5 75.1544V75.1544Z" fill="white"/>
<path opacity="0.1" d="M43.6279 148.041C42.013 148.041 40.7038 149.35 40.7038 150.965C40.7038 152.58 42.013 153.889 43.6279 153.889C45.2429 153.889 46.5521 152.58 46.5521 150.965C46.5521 149.35 45.2429 148.041 43.6279 148.041Z" fill="white"/>
<path opacity="0.1" d="M246.747 148.322C245.611 148.322 244.69 149.243 244.69 150.379C244.69 151.515 245.611 152.436 246.747 152.436C247.883 152.436 248.804 151.515 248.804 150.379C248.804 149.243 247.883 148.322 246.747 148.322Z" fill="white"/>
<path opacity="0.1" d="M246.589 140.236C245.417 140.236 244.467 141.185 244.467 142.357C244.467 143.528 245.417 144.478 246.589 144.478C247.76 144.478 248.71 143.528 248.71 142.357C248.71 141.185 247.76 140.236 246.589 140.236Z" fill="white"/>
<path opacity="0.1" d="M237.506 134.593C236.888 134.593 236.387 135.094 236.387 135.712C236.387 136.33 236.888 136.831 237.506 136.831C238.124 136.831 238.625 136.33 238.625 135.712C238.625 135.094 238.124 134.593 237.506 134.593Z" fill="white"/>
<path opacity="0.1" d="M231.113 127.695C229.948 127.695 229.003 128.64 229.003 129.805C229.003 130.97 229.948 131.914 231.113 131.914C232.278 131.914 233.222 130.97 233.222 129.805C233.222 128.64 232.278 127.695 231.113 127.695Z" fill="white"/>
<path opacity="0.1" d="M221.918 120.001C220.436 120.001 219.234 121.203 219.234 122.685C219.234 124.167 220.436 125.369 221.918 125.369C223.4 125.369 224.602 124.167 224.602 122.685C224.602 121.203 223.4 120.001 221.918 120.001Z" fill="white"/>
<path opacity="0.1" d="M213.175 123.019C212.437 123.019 211.839 123.617 211.839 124.355C211.839 125.093 212.437 125.691 213.175 125.691C213.913 125.691 214.511 125.093 214.511 124.355C214.511 123.617 213.913 123.019 213.175 123.019Z" fill="white"/>
<path opacity="0.1" d="M202.85 118.958C202.112 118.958 201.514 119.556 201.514 120.294C201.514 121.032 202.112 121.63 202.85 121.63C203.588 121.63 204.186 121.032 204.186 120.294C204.186 119.556 203.588 118.958 202.85 118.958Z" fill="white"/>
<path opacity="0.1" d="M197.119 116.122C196.18 116.122 195.419 116.883 195.419 117.821C195.419 118.76 196.18 119.521 197.119 119.521C198.057 119.521 198.818 118.76 198.818 117.821C198.818 116.883 198.057 116.122 197.119 116.122Z" fill="white"/>
<path opacity="0.1" d="M184.924 111.094C184.254 111.094 183.711 111.637 183.711 112.307C183.711 112.977 184.254 113.52 184.924 113.52C185.594 113.52 186.137 112.977 186.137 112.307C186.137 111.637 185.594 111.094 184.924 111.094Z" fill="white"/>
<path opacity="0.1" d="M177.992 105.673C176.768 105.673 175.777 106.665 175.777 107.889C175.777 109.112 176.768 110.104 177.992 110.104C179.215 110.104 180.207 109.112 180.207 107.889C180.207 106.665 179.215 105.673 177.992 105.673Z" fill="white"/>
<path opacity="0.1" d="M169.712 109.975C168.55 109.975 167.608 110.917 167.608 112.078C167.608 113.24 168.55 114.182 169.712 114.182C170.873 114.182 171.815 113.24 171.815 112.078C171.815 110.917 170.873 109.975 169.712 109.975Z" fill="white"/>
<path opacity="0.1" d="M155.853 104.244C155.031 104.244 154.364 104.91 154.364 105.732C154.364 106.554 155.031 107.221 155.853 107.221C156.675 107.221 157.341 106.554 157.341 105.732C157.341 104.91 156.675 104.244 155.853 104.244Z" fill="white"/>
<path opacity="0.1" d="M147.338 110.356C146.642 110.356 146.078 110.92 146.078 111.615C146.078 112.311 146.642 112.875 147.338 112.875C148.034 112.875 148.598 112.311 148.598 111.615C148.598 110.92 148.034 110.356 147.338 110.356Z" fill="white"/>
<path opacity="0.1" d="M141.238 109.729C140.597 109.729 140.077 110.248 140.077 110.889C140.077 111.53 140.597 112.049 141.238 112.049C141.879 112.049 142.398 111.53 142.398 110.889C142.398 110.248 141.879 109.729 141.238 109.729Z" fill="white"/>
<path opacity="0.1" d="M133.221 111.422C132.079 111.422 131.153 112.348 131.153 113.491C131.153 114.633 132.079 115.559 133.221 115.559C134.364 115.559 135.29 114.633 135.29 113.491C135.29 112.348 134.364 111.422 133.221 111.422Z" fill="white"/>
<path opacity="0.1" d="M121.706 104.531C120.558 104.531 119.626 105.462 119.626 106.611C119.626 107.76 120.558 108.691 121.706 108.691C122.855 108.691 123.787 107.76 123.787 106.611C123.787 105.462 122.855 104.531 121.706 104.531Z" fill="white"/>
<path opacity="0.1" d="M109.248 106.265C107.834 106.265 106.687 107.412 106.687 108.826C106.687 110.24 107.834 111.387 109.248 111.387C110.662 111.387 111.809 110.24 111.809 108.826C111.809 107.412 110.662 106.265 109.248 106.265Z" fill="white"/>
<path opacity="0.1" d="M104.835 113.127C103.249 113.127 101.964 114.413 101.964 115.999C101.964 117.585 103.249 118.87 104.835 118.87C106.421 118.87 107.707 117.585 107.707 115.999C107.707 114.413 106.421 113.127 104.835 113.127Z" fill="white"/>
<path opacity="0.1" d="M91.6387 115.964C90.7778 115.964 90.0799 116.661 90.0799 117.522C90.0799 118.383 90.7778 119.081 91.6387 119.081C92.4995 119.081 93.1974 118.383 93.1974 117.522C93.1974 116.661 92.4995 115.964 91.6387 115.964Z" fill="white"/>
<path opacity="0.1" d="M77.1764 117.458C75.5873 117.458 74.2991 118.746 74.2991 120.335C74.2991 121.924 75.5873 123.212 77.1764 123.212C78.7655 123.212 80.0537 121.924 80.0537 120.335C80.0537 118.746 78.7655 117.458 77.1764 117.458Z" fill="white"/>
<path opacity="0.1" d="M66.6868 118.454C65.6641 118.454 64.835 119.283 64.835 120.306C64.835 121.329 65.6641 122.158 66.6868 122.158C67.7095 122.158 68.5385 121.329 68.5385 120.306C68.5385 119.283 67.7095 118.454 66.6868 118.454Z" fill="white"/>
<path opacity="0.1" d="M56.7247 124.044C55.9706 124.044 55.3593 124.656 55.3593 125.41C55.3593 126.164 55.9706 126.775 56.7247 126.775C57.4788 126.775 58.0901 126.164 58.0901 125.41C58.0901 124.656 57.4788 124.044 56.7247 124.044Z" fill="white"/>
<path opacity="0.1" d="M51.2926 135.841C49.752 135.841 48.5032 137.089 48.5032 138.63C48.5032 140.17 49.752 141.419 51.2926 141.419C52.8331 141.419 54.0819 140.17 54.0819 138.63C54.0819 137.089 52.8331 135.841 51.2926 135.841Z" fill="white"/>
<path opacity="0.1" d="M40.3815 143.406C39.7245 143.406 39.1919 143.938 39.1919 144.595C39.1919 145.252 39.7245 145.785 40.3815 145.785C41.0385 145.785 41.5711 145.252 41.5711 144.595C41.5711 143.938 41.0385 143.406 40.3815 143.406Z" fill="white"/>
<path opacity="0.2" d="M104.982 111.123C104.409 111.123 103.945 111.588 103.945 112.16C103.945 112.733 104.409 113.198 104.982 113.198C105.555 113.198 106.019 112.733 106.019 112.16C106.019 111.588 105.555 111.123 104.982 111.123Z" fill="white"/>
<path opacity="0.4" d="M104.982 111.375C104.548 111.375 104.197 111.727 104.197 112.161C104.197 112.594 104.548 112.946 104.982 112.946C105.416 112.946 105.767 112.594 105.767 112.161C105.767 111.727 105.416 111.375 104.982 111.375Z" fill="white"/>
<path opacity="0.7" d="M104.982 111.645C104.697 111.645 104.466 111.875 104.466 112.16C104.466 112.445 104.697 112.676 104.982 112.676C105.267 112.676 105.497 112.445 105.497 112.16C105.497 111.875 105.267 111.645 104.982 111.645Z" fill="white"/>
<path d="M104.982 111.897C104.836 111.897 104.718 112.015 104.718 112.16C104.718 112.306 104.836 112.424 104.982 112.424C105.128 112.424 105.246 112.306 105.246 112.16C105.246 112.015 105.128 111.897 104.982 111.897Z" fill="white"/>
<path opacity="0.2" d="M104.982 110.9C104.286 110.9 103.722 111.464 103.722 112.16C103.722 112.856 104.286 113.42 104.982 113.42C105.678 113.42 106.242 112.856 106.242 112.16C106.242 111.464 105.678 110.9 104.982 110.9Z" fill="white"/>
<path opacity="0.2" d="M116.227 117.399C115.648 117.399 115.178 117.869 115.178 118.448C115.178 119.027 115.648 119.497 116.227 119.497C116.806 119.497 117.276 119.027 117.276 118.448C117.276 117.869 116.806 117.399 116.227 117.399Z" fill="white"/>
<path opacity="0.4" d="M116.227 117.651C115.787 117.651 115.43 118.008 115.43 118.448C115.43 118.888 115.787 119.245 116.227 119.245C116.667 119.245 117.024 118.888 117.024 118.448C117.024 118.008 116.667 117.651 116.227 117.651Z" fill="white"/>
<path opacity="0.7" d="M116.227 117.927C115.939 117.927 115.706 118.16 115.706 118.448C115.706 118.736 115.939 118.97 116.227 118.97C116.515 118.97 116.749 118.736 116.749 118.448C116.749 118.16 116.515 117.927 116.227 117.927Z" fill="white"/>
<path d="M116.227 118.179C116.078 118.179 115.958 118.299 115.958 118.448C115.958 118.597 116.078 118.718 116.227 118.718C116.376 118.718 116.497 118.597 116.497 118.448C116.497 118.299 116.376 118.179 116.227 118.179Z" fill="white"/>
<path opacity="0.2" d="M116.227 117.176C115.525 117.176 114.955 117.746 114.955 118.448C114.955 119.15 115.525 119.72 116.227 119.72C116.929 119.72 117.499 119.15 117.499 118.448C117.499 117.746 116.929 117.176 116.227 117.176Z" fill="white"/>
<path opacity="0.2" d="M120.013 124.443C119.537 124.443 119.151 124.828 119.151 125.304C119.151 125.78 119.537 126.166 120.013 126.166C120.489 126.166 120.874 125.78 120.874 125.304C120.874 124.828 120.489 124.443 120.013 124.443Z" fill="white"/>
<path opacity="0.4" d="M120.013 124.654C119.654 124.654 119.362 124.945 119.362 125.304C119.362 125.664 119.654 125.955 120.013 125.955C120.372 125.955 120.663 125.664 120.663 125.304C120.663 124.945 120.372 124.654 120.013 124.654Z" fill="white"/>
<path opacity="0.7" d="M120.013 124.877C119.776 124.877 119.585 125.068 119.585 125.304C119.585 125.541 119.776 125.732 120.013 125.732C120.249 125.732 120.44 125.541 120.44 125.304C120.44 125.068 120.249 124.877 120.013 124.877Z" fill="white"/>
<path d="M120.013 125.082C119.89 125.082 119.79 125.181 119.79 125.304C119.79 125.427 119.89 125.527 120.013 125.527C120.136 125.527 120.236 125.427 120.236 125.304C120.236 125.181 120.136 125.082 120.013 125.082Z" fill="white"/>
<path opacity="0.2" d="M120.013 124.261C119.437 124.261 118.97 124.728 118.97 125.304C118.97 125.88 119.437 126.347 120.013 126.347C120.589 126.347 121.056 125.88 121.056 125.304C121.056 124.728 120.589 124.261 120.013 124.261Z" fill="white"/>
<path opacity="0.2" d="M124.689 131.329C124.243 131.329 123.88 131.691 123.88 132.137C123.88 132.584 124.243 132.946 124.689 132.946C125.136 132.946 125.498 132.584 125.498 132.137C125.498 131.691 125.136 131.329 124.689 131.329Z" fill="white"/>
<path opacity="0.4" d="M124.689 131.528C124.352 131.528 124.08 131.8 124.08 132.137C124.08 132.474 124.352 132.746 124.689 132.746C125.026 132.746 125.298 132.474 125.298 132.137C125.298 131.8 125.026 131.528 124.689 131.528Z" fill="white"/>
<path opacity="0.7" d="M124.689 131.739C124.469 131.739 124.291 131.917 124.291 132.137C124.291 132.357 124.469 132.536 124.689 132.536C124.909 132.536 125.088 132.357 125.088 132.137C125.088 131.917 124.909 131.739 124.689 131.739Z" fill="white"/>
<path d="M124.689 131.932C124.576 131.932 124.484 132.024 124.484 132.137C124.484 132.25 124.576 132.342 124.689 132.342C124.802 132.342 124.894 132.25 124.894 132.137C124.894 132.024 124.802 131.932 124.689 131.932Z" fill="white"/>
<path opacity="0.2" d="M124.689 131.159C124.149 131.159 123.711 131.597 123.711 132.137C123.711 132.678 124.149 133.116 124.689 133.116C125.23 133.116 125.668 132.678 125.668 132.137C125.668 131.597 125.23 131.159 124.689 131.159Z" fill="white"/>
<path opacity="0.2" d="M131.563 135.894C130.942 135.894 130.438 136.397 130.438 137.019C130.438 137.64 130.942 138.144 131.563 138.144C132.184 138.144 132.688 137.64 132.688 137.019C132.688 136.397 132.184 135.894 131.563 135.894Z" fill="white"/>
<path opacity="0.4" d="M131.563 136.163C131.09 136.163 130.707 136.546 130.707 137.018C130.707 137.491 131.09 137.874 131.563 137.874C132.036 137.874 132.419 137.491 132.419 137.018C132.419 136.546 132.036 136.163 131.563 136.163Z" fill="white"/>
<path opacity="0.7" d="M131.563 136.462C131.255 136.462 131.006 136.711 131.006 137.019C131.006 137.326 131.255 137.575 131.563 137.575C131.87 137.575 132.12 137.326 132.12 137.019C132.12 136.711 131.87 136.462 131.563 136.462Z" fill="white"/>
<path d="M131.563 136.731C131.404 136.731 131.276 136.86 131.276 137.019C131.276 137.177 131.404 137.306 131.563 137.306C131.721 137.306 131.85 137.177 131.85 137.019C131.85 136.86 131.721 136.731 131.563 136.731Z" fill="white"/>
<path opacity="0.2" d="M131.563 135.653C130.809 135.653 130.197 136.264 130.197 137.019C130.197 137.773 130.809 138.384 131.563 138.384C132.317 138.384 132.928 137.773 132.928 137.019C132.928 136.264 132.317 135.653 131.563 135.653Z" fill="white"/>
<path opacity="0.2" d="M138.29 144.625C137.908 144.625 137.599 144.934 137.599 145.316C137.599 145.698 137.908 146.008 138.29 146.008C138.672 146.008 138.982 145.698 138.982 145.316C138.982 144.934 138.672 144.625 138.29 144.625Z" fill="white"/>
<path opacity="0.4" d="M138.29 144.795C138.002 144.795 137.769 145.028 137.769 145.316C137.769 145.604 138.002 145.838 138.29 145.838C138.578 145.838 138.812 145.604 138.812 145.316C138.812 145.028 138.578 144.795 138.29 144.795Z" fill="white"/>
<path opacity="0.7" d="M138.29 144.97C138.099 144.97 137.944 145.125 137.944 145.316C137.944 145.507 138.099 145.662 138.29 145.662C138.481 145.662 138.636 145.507 138.636 145.316C138.636 145.125 138.481 144.97 138.29 144.97Z" fill="white"/>
<path d="M138.29 145.14C138.193 145.14 138.114 145.219 138.114 145.316C138.114 145.413 138.193 145.492 138.29 145.492C138.387 145.492 138.466 145.413 138.466 145.316C138.466 145.219 138.387 145.14 138.29 145.14Z" fill="white"/>
<path opacity="0.2" d="M138.29 144.478C137.827 144.478 137.452 144.854 137.452 145.316C137.452 145.779 137.827 146.154 138.29 146.154C138.753 146.154 139.128 145.779 139.128 145.316C139.128 144.854 138.753 144.478 138.29 144.478Z" fill="white"/>
<path opacity="0.2" d="M146.154 134.481C145.682 134.481 145.299 134.864 145.299 135.337C145.299 135.809 145.682 136.192 146.154 136.192C146.627 136.192 147.01 135.809 147.01 135.337C147.01 134.864 146.627 134.481 146.154 134.481Z" fill="white"/>
<path opacity="0.4" d="M146.154 134.692C145.798 134.692 145.51 134.981 145.51 135.337C145.51 135.693 145.798 135.981 146.154 135.981C146.51 135.981 146.799 135.693 146.799 135.337C146.799 134.981 146.51 134.692 146.154 134.692Z" fill="white"/>
<path opacity="0.7" d="M146.154 134.915C145.921 134.915 145.732 135.104 145.732 135.337C145.732 135.57 145.921 135.759 146.154 135.759C146.387 135.759 146.576 135.57 146.576 135.337C146.576 135.104 146.387 134.915 146.154 134.915Z" fill="white"/>
<path d="M146.154 135.12C146.034 135.12 145.937 135.217 145.937 135.337C145.937 135.456 146.034 135.553 146.154 135.553C146.274 135.553 146.371 135.456 146.371 135.337C146.371 135.217 146.274 135.12 146.154 135.12Z" fill="white"/>
<path opacity="0.2" d="M146.154 134.3C145.582 134.3 145.117 134.764 145.117 135.337C145.117 135.91 145.582 136.374 146.154 136.374C146.727 136.374 147.192 135.91 147.192 135.337C147.192 134.764 146.727 134.3 146.154 134.3Z" fill="white"/>
<path opacity="0.2" d="M155.261 137.323C154.804 137.323 154.434 137.693 154.434 138.15C154.434 138.606 154.804 138.976 155.261 138.976C155.717 138.976 156.087 138.606 156.087 138.15C156.087 137.693 155.717 137.323 155.261 137.323Z" fill="white"/>
<path opacity="0.4" d="M155.261 137.522C154.914 137.522 154.634 137.803 154.634 138.149C154.634 138.496 154.914 138.776 155.261 138.776C155.607 138.776 155.888 138.496 155.888 138.149C155.888 137.803 155.607 137.522 155.261 137.522Z" fill="white"/>
<path opacity="0.7" d="M155.261 137.739C155.034 137.739 154.85 137.923 154.85 138.15C154.85 138.376 155.034 138.56 155.261 138.56C155.487 138.56 155.671 138.376 155.671 138.15C155.671 137.923 155.487 137.739 155.261 137.739Z" fill="white"/>
<path d="M155.261 137.938C155.144 137.938 155.05 138.033 155.05 138.149C155.05 138.266 155.144 138.36 155.261 138.36C155.377 138.36 155.472 138.266 155.472 138.149C155.472 138.033 155.377 137.938 155.261 137.938Z" fill="white"/>
<path opacity="0.2" d="M155.261 137.147C154.707 137.147 154.259 137.596 154.259 138.149C154.259 138.703 154.707 139.151 155.261 139.151C155.814 139.151 156.263 138.703 156.263 138.149C156.263 137.596 155.814 137.147 155.261 137.147Z" fill="white"/>
<path opacity="0.2" d="M166.184 140.171C165.569 140.171 165.07 140.67 165.07 141.285C165.07 141.899 165.569 142.398 166.184 142.398C166.799 142.398 167.297 141.899 167.297 141.285C167.297 140.67 166.799 140.171 166.184 140.171Z" fill="white"/>
<path opacity="0.4" d="M166.184 140.441C165.718 140.441 165.34 140.819 165.34 141.285C165.34 141.751 165.718 142.128 166.184 142.128C166.65 142.128 167.027 141.751 167.027 141.285C167.027 140.819 166.65 140.441 166.184 140.441Z" fill="white"/>
<path opacity="0.7" d="M166.184 140.734C165.879 140.734 165.633 140.98 165.633 141.285C165.633 141.589 165.879 141.835 166.184 141.835C166.488 141.835 166.734 141.589 166.734 141.285C166.734 140.98 166.488 140.734 166.184 140.734Z" fill="white"/>
<path d="M166.184 140.997C166.025 140.997 165.897 141.126 165.897 141.285C165.897 141.443 166.025 141.572 166.184 141.572C166.342 141.572 166.471 141.443 166.471 141.285C166.471 141.126 166.342 140.997 166.184 140.997Z" fill="white"/>
<path opacity="0.2" d="M166.184 139.937C165.439 139.937 164.836 140.54 164.836 141.285C164.836 142.029 165.439 142.632 166.184 142.632C166.928 142.632 167.532 142.029 167.532 141.285C167.532 140.54 166.928 139.937 166.184 139.937Z" fill="white"/>
<path opacity="0.2" d="M166.119 127.525C165.3 127.525 164.637 128.189 164.637 129.008C164.637 129.827 165.3 130.491 166.119 130.491C166.938 130.491 167.602 129.827 167.602 129.008C167.602 128.189 166.938 127.525 166.119 127.525Z" fill="white"/>
<path opacity="0.4" d="M166.119 127.883C165.498 127.883 164.994 128.386 164.994 129.008C164.994 129.629 165.498 130.133 166.119 130.133C166.741 130.133 167.244 129.629 167.244 129.008C167.244 128.386 166.741 127.883 166.119 127.883Z" fill="white"/>
<path opacity="0.7" d="M166.119 128.27C165.712 128.27 165.381 128.6 165.381 129.008C165.381 129.416 165.712 129.746 166.119 129.746C166.527 129.746 166.858 129.416 166.858 129.008C166.858 128.6 166.527 128.27 166.119 128.27Z" fill="white"/>
<path d="M166.119 128.627C165.909 128.627 165.738 128.797 165.738 129.008C165.738 129.218 165.909 129.389 166.119 129.389C166.33 129.389 166.5 129.218 166.5 129.008C166.5 128.797 166.33 128.627 166.119 128.627Z" fill="white"/>
<path opacity="0.2" d="M166.119 127.209C165.126 127.209 164.32 128.014 164.32 129.008C164.32 130.002 165.126 130.807 166.119 130.807C167.113 130.807 167.918 130.002 167.918 129.008C167.918 128.014 167.113 127.209 166.119 127.209Z" fill="white"/>
<path opacity="0.2" d="M181.801 128.656C181.416 128.656 181.103 128.969 181.103 129.354C181.103 129.739 181.416 130.051 181.801 130.051C182.186 130.051 182.498 129.739 182.498 129.354C182.498 128.969 182.186 128.656 181.801 128.656Z" fill="white"/>
<path opacity="0.4" d="M181.801 128.826C181.509 128.826 181.273 129.062 181.273 129.354C181.273 129.645 181.509 129.881 181.801 129.881C182.092 129.881 182.328 129.645 182.328 129.354C182.328 129.062 182.092 128.826 181.801 128.826Z" fill="white"/>
<path opacity="0.7" d="M181.801 129.008C181.61 129.008 181.455 129.163 181.455 129.354C181.455 129.545 181.61 129.699 181.801 129.699C181.992 129.699 182.146 129.545 182.146 129.354C182.146 129.163 181.992 129.008 181.801 129.008Z" fill="white"/>
<path d="M181.801 129.172C181.7 129.172 181.619 129.253 181.619 129.354C181.619 129.454 181.7 129.535 181.801 129.535C181.901 129.535 181.982 129.454 181.982 129.354C181.982 129.253 181.901 129.172 181.801 129.172Z" fill="white"/>
<path opacity="0.2" d="M181.801 128.504C181.331 128.504 180.951 128.884 180.951 129.354C180.951 129.823 181.331 130.203 181.801 130.203C182.27 130.203 182.65 129.823 182.65 129.354C182.65 128.884 182.27 128.504 181.801 128.504Z" fill="white"/>
<path opacity="0.2" d="M175.003 115.612C174.456 115.612 174.013 116.055 174.013 116.602C174.013 117.149 174.456 117.593 175.003 117.593C175.55 117.593 175.993 117.149 175.993 116.602C175.993 116.055 175.55 115.612 175.003 115.612Z" fill="white"/>
<path opacity="0.4" d="M175.003 115.852C174.589 115.852 174.253 116.188 174.253 116.602C174.253 117.016 174.589 117.352 175.003 117.352C175.417 117.352 175.753 117.016 175.753 116.602C175.753 116.188 175.417 115.852 175.003 115.852Z" fill="white"/>
<path opacity="0.7" d="M175.003 116.11C174.731 116.11 174.511 116.33 174.511 116.602C174.511 116.874 174.731 117.094 175.003 117.094C175.275 117.094 175.495 116.874 175.495 116.602C175.495 116.33 175.275 116.11 175.003 116.11Z" fill="white"/>
<path d="M175.003 116.35C174.864 116.35 174.751 116.463 174.751 116.602C174.751 116.742 174.864 116.854 175.003 116.854C175.142 116.854 175.255 116.742 175.255 116.602C175.255 116.463 175.142 116.35 175.003 116.35Z" fill="white"/>
<path opacity="0.2" d="M175.003 115.401C174.34 115.401 173.802 115.939 173.802 116.602C173.802 117.266 174.34 117.803 175.003 117.803C175.666 117.803 176.204 117.266 176.204 116.602C176.204 115.939 175.666 115.401 175.003 115.401Z" fill="white"/>
<path opacity="0.2" d="M171.587 105.878C170.826 105.878 170.21 106.495 170.21 107.255C170.21 108.016 170.826 108.633 171.587 108.633C172.347 108.633 172.964 108.016 172.964 107.255C172.964 106.495 172.347 105.878 171.587 105.878Z" fill="white"/>
<path opacity="0.4" d="M171.587 106.213C171.01 106.213 170.543 106.68 170.543 107.256C170.543 107.832 171.01 108.299 171.587 108.299C172.163 108.299 172.63 107.832 172.63 107.256C172.63 106.68 172.163 106.213 171.587 106.213Z" fill="white"/>
<path opacity="0.7" d="M171.587 106.57C171.208 106.57 170.901 106.877 170.901 107.256C170.901 107.634 171.208 107.941 171.587 107.941C171.965 107.941 172.272 107.634 172.272 107.256C172.272 106.877 171.965 106.57 171.587 106.57Z" fill="white"/>
<path d="M171.587 106.904C171.393 106.904 171.235 107.061 171.235 107.256C171.235 107.45 171.393 107.607 171.587 107.607C171.781 107.607 171.938 107.45 171.938 107.256C171.938 107.061 171.781 106.904 171.587 106.904Z" fill="white"/>
<path opacity="0.2" d="M171.587 105.585C170.664 105.585 169.917 106.333 169.917 107.256C169.917 108.178 170.664 108.926 171.587 108.926C172.509 108.926 173.257 108.178 173.257 107.256C173.257 106.333 172.509 105.585 171.587 105.585Z" fill="white"/>
<path opacity="0.2" d="M175.571 100.177C175.154 100.177 174.815 100.515 174.815 100.933C174.815 101.35 175.154 101.688 175.571 101.688C175.989 101.688 176.327 101.35 176.327 100.933C176.327 100.515 175.989 100.177 175.571 100.177Z" fill="white"/>
<path opacity="0.4" d="M175.571 100.364C175.258 100.364 175.003 100.619 175.003 100.933C175.003 101.247 175.258 101.501 175.571 101.501C175.885 101.501 176.14 101.247 176.14 100.933C176.14 100.619 175.885 100.364 175.571 100.364Z" fill="white"/>
<path opacity="0.7" d="M175.571 100.558C175.364 100.558 175.196 100.725 175.196 100.933C175.196 101.14 175.364 101.308 175.571 101.308C175.779 101.308 175.947 101.14 175.947 100.933C175.947 100.725 175.779 100.558 175.571 100.558Z" fill="white"/>
<path d="M175.571 100.739C175.465 100.739 175.378 100.826 175.378 100.933C175.378 101.039 175.465 101.126 175.571 101.126C175.678 101.126 175.765 101.039 175.765 100.933C175.765 100.826 175.678 100.739 175.571 100.739Z" fill="white"/>
<path opacity="0.2" d="M175.571 100.018C175.067 100.018 174.657 100.428 174.657 100.933C174.657 101.437 175.067 101.847 175.571 101.847C176.076 101.847 176.486 101.437 176.486 100.933C176.486 100.428 176.076 100.018 175.571 100.018Z" fill="white"/>
<path opacity="0.2" d="M173.421 92.0957C172.744 92.0957 172.196 92.644 172.196 93.3204C172.196 93.9968 172.744 94.5452 173.421 94.5452C174.097 94.5452 174.645 93.9968 174.645 93.3204C174.645 92.644 174.097 92.0957 173.421 92.0957Z" fill="white"/>
<path opacity="0.4" d="M173.421 92.3946C172.909 92.3946 172.495 92.8091 172.495 93.3205C172.495 93.8318 172.909 94.2463 173.421 94.2463C173.932 94.2463 174.347 93.8318 174.347 93.3205C174.347 92.8091 173.932 92.3946 173.421 92.3946Z" fill="white"/>
<path opacity="0.7" d="M173.421 92.711C173.084 92.711 172.811 92.9839 172.811 93.3205C172.811 93.6571 173.084 93.9299 173.421 93.9299C173.757 93.9299 174.03 93.6571 174.03 93.3205C174.03 92.9839 173.757 92.711 173.421 92.711Z" fill="white"/>
<path d="M173.421 93.0098C173.249 93.0098 173.11 93.1489 173.11 93.3204C173.11 93.4919 173.249 93.631 173.421 93.631C173.593 93.631 173.732 93.4919 173.732 93.3204C173.732 93.1489 173.593 93.0098 173.421 93.0098Z" fill="white"/>
<path opacity="0.2" d="M173.421 91.8321C172.599 91.8321 171.932 92.4985 171.932 93.3205C171.932 94.1426 172.599 94.809 173.421 94.809C174.243 94.809 174.909 94.1426 174.909 93.3205C174.909 92.4985 174.243 91.8321 173.421 91.8321Z" fill="white"/>
<path opacity="0.2" d="M167.502 85.937C166.803 85.937 166.236 86.5037 166.236 87.2027C166.236 87.9018 166.803 88.4685 167.502 88.4685C168.201 88.4685 168.768 87.9018 168.768 87.2027C168.768 86.5037 168.201 85.937 167.502 85.937Z" fill="white"/>
<path opacity="0.4" d="M167.502 86.2417C166.971 86.2417 166.541 86.672 166.541 87.2028C166.541 87.7335 166.971 88.1638 167.502 88.1638C168.033 88.1638 168.463 87.7335 168.463 87.2028C168.463 86.672 168.033 86.2417 167.502 86.2417Z" fill="white"/>
<path opacity="0.7" d="M167.502 86.5755C167.156 86.5755 166.875 86.8563 166.875 87.2026C166.875 87.5489 167.156 87.8296 167.502 87.8296C167.849 87.8296 168.129 87.5489 168.129 87.2026C168.129 86.8563 167.849 86.5755 167.502 86.5755Z" fill="white"/>
<path d="M167.502 86.8803C167.324 86.8803 167.18 87.0246 167.18 87.2026C167.18 87.3806 167.324 87.5249 167.502 87.5249C167.68 87.5249 167.825 87.3806 167.825 87.2026C167.825 87.0246 167.68 86.8803 167.502 86.8803Z" fill="white"/>
<path opacity="0.2" d="M167.502 85.6674C166.654 85.6674 165.967 86.3548 165.967 87.2027C165.967 88.0507 166.654 88.738 167.502 88.738C168.35 88.738 169.038 88.0507 169.038 87.2027C169.038 86.3548 168.35 85.6674 167.502 85.6674Z" fill="white"/>
<path opacity="0.2" d="M163.424 78.4185C162.679 78.4185 162.076 79.022 162.076 79.7663C162.076 80.5107 162.679 81.1141 163.424 81.1141C164.168 81.1141 164.772 80.5107 164.772 79.7663C164.772 79.022 164.168 78.4185 163.424 78.4185Z" fill="white"/>
<path opacity="0.4" d="M163.424 78.7409C162.857 78.7409 162.398 79.2 162.398 79.7664C162.398 80.3327 162.857 80.7919 163.424 80.7919C163.99 80.7919 164.449 80.3327 164.449 79.7664C164.449 79.2 163.99 78.7409 163.424 78.7409Z" fill="white"/>
<path opacity="0.7" d="M163.424 79.0981C163.055 79.0981 162.756 79.3972 162.756 79.7662C162.756 80.1351 163.055 80.4342 163.424 80.4342C163.793 80.4342 164.092 80.1351 164.092 79.7662C164.092 79.3972 163.793 79.0981 163.424 79.0981Z" fill="white"/>
<path d="M163.424 79.4206C163.233 79.4206 163.078 79.5754 163.078 79.7663C163.078 79.9573 163.233 80.1121 163.424 80.1121C163.615 80.1121 163.77 79.9573 163.77 79.7663C163.77 79.5754 163.615 79.4206 163.424 79.4206Z" fill="white"/>
<path opacity="0.2" d="M163.424 78.1255C162.518 78.1255 161.783 78.8601 161.783 79.7663C161.783 80.6725 162.518 81.4071 163.424 81.4071C164.33 81.4071 165.065 80.6725 165.065 79.7663C165.065 78.8601 164.33 78.1255 163.424 78.1255Z" fill="white"/>
<path opacity="0.2" d="M153.679 84.6067C153.106 84.6067 152.641 85.0711 152.641 85.6439C152.641 86.2168 153.106 86.6812 153.679 86.6812C154.251 86.6812 154.716 86.2168 154.716 85.6439C154.716 85.0711 154.251 84.6067 153.679 84.6067Z" fill="white"/>
<path opacity="0.4" d="M153.678 84.8588C153.245 84.8588 152.893 85.2104 152.893 85.6441C152.893 86.0778 153.245 86.4293 153.678 86.4293C154.112 86.4293 154.464 86.0778 154.464 85.6441C154.464 85.2104 154.112 84.8588 153.678 84.8588Z" fill="white"/>
<path opacity="0.7" d="M153.678 85.1281C153.394 85.1281 153.163 85.3589 153.163 85.6437C153.163 85.9285 153.394 86.1594 153.678 86.1594C153.963 86.1594 154.194 85.9285 154.194 85.6437C154.194 85.3589 153.963 85.1281 153.678 85.1281Z" fill="white"/>
<path d="M153.679 85.3803C153.533 85.3803 153.415 85.4984 153.415 85.644C153.415 85.7896 153.533 85.9077 153.679 85.9077C153.824 85.9077 153.942 85.7896 153.942 85.644C153.942 85.4984 153.824 85.3803 153.679 85.3803Z" fill="white"/>
<path opacity="0.2" d="M153.678 84.3839C152.983 84.3839 152.419 84.948 152.419 85.6438C152.419 86.3396 152.983 86.9037 153.678 86.9037C154.374 86.9037 154.938 86.3396 154.938 85.6438C154.938 84.948 154.374 84.3839 153.678 84.3839Z" fill="white"/>
<path opacity="0.2" d="M147.109 73.3028C146.611 73.3028 146.207 73.7068 146.207 74.2052C146.207 74.7036 146.611 75.1077 147.109 75.1077C147.608 75.1077 148.012 74.7036 148.012 74.2052C148.012 73.7068 147.608 73.3028 147.109 73.3028Z" fill="white"/>
<path opacity="0.4" d="M147.109 73.5195C146.731 73.5195 146.424 73.8265 146.424 74.2051C146.424 74.5838 146.731 74.8907 147.109 74.8907C147.488 74.8907 147.795 74.5838 147.795 74.2051C147.795 73.8265 147.488 73.5195 147.109 73.5195Z" fill="white"/>
<path opacity="0.7" d="M147.109 73.7599C146.863 73.7599 146.664 73.9593 146.664 74.2053C146.664 74.4512 146.863 74.6506 147.109 74.6506C147.355 74.6506 147.555 74.4512 147.555 74.2053C147.555 73.9593 147.355 73.7599 147.109 73.7599Z" fill="white"/>
<path d="M147.11 73.9766C146.983 73.9766 146.881 74.079 146.881 74.2052C146.881 74.3314 146.983 74.4337 147.11 74.4337C147.236 74.4337 147.338 74.3314 147.338 74.2052C147.338 74.079 147.236 73.9766 147.11 73.9766Z" fill="white"/>
<path opacity="0.2" d="M147.11 73.1094C146.504 73.1094 146.014 73.6 146.014 74.2052C146.014 74.8104 146.504 75.301 147.11 75.301C147.715 75.301 148.205 74.8104 148.205 74.2052C148.205 73.6 147.715 73.1094 147.11 73.1094Z" fill="white"/>
<path opacity="0.2" d="M137.804 73.9825C137.14 73.9825 136.602 74.5204 136.602 75.1838C136.602 75.8473 137.14 76.3851 137.804 76.3851C138.467 76.3851 139.005 75.8473 139.005 75.1838C139.005 74.5204 138.467 73.9825 137.804 73.9825Z" fill="white"/>
<path opacity="0.4" d="M137.804 74.2756C137.302 74.2756 136.895 74.6822 136.895 75.1839C136.895 75.6855 137.302 76.0922 137.804 76.0922C138.305 76.0922 138.712 75.6855 138.712 75.1839C138.712 74.6822 138.305 74.2756 137.804 74.2756Z" fill="white"/>
<path opacity="0.7" d="M137.804 74.5859C137.474 74.5859 137.206 74.8535 137.206 75.1836C137.206 75.5138 137.474 75.7814 137.804 75.7814C138.134 75.7814 138.402 75.5138 138.402 75.1836C138.402 74.8535 138.134 74.5859 137.804 74.5859Z" fill="white"/>
<path d="M137.804 74.879C137.636 74.879 137.499 75.0154 137.499 75.1837C137.499 75.352 137.636 75.4884 137.804 75.4884C137.972 75.4884 138.109 75.352 138.109 75.1837C138.109 75.0154 137.972 74.879 137.804 74.879Z" fill="white"/>
<path opacity="0.2" d="M137.804 73.7304C137.001 73.7304 136.351 74.3811 136.351 75.1837C136.351 75.9863 137.001 76.637 137.804 76.637C138.606 76.637 139.257 75.9863 139.257 75.1837C139.257 74.3811 138.606 73.7304 137.804 73.7304Z" fill="white"/>
<path opacity="0.2" d="M127.883 76.0101C127.394 76.0101 126.998 76.4062 126.998 76.8949C126.998 77.3836 127.394 77.7798 127.883 77.7798C128.372 77.7798 128.768 77.3836 128.768 76.8949C128.768 76.4062 128.372 76.0101 127.883 76.0101Z" fill="white"/>
<path opacity="0.4" d="M127.883 76.2268C127.514 76.2268 127.215 76.5259 127.215 76.8948C127.215 77.2638 127.514 77.5629 127.883 77.5629C128.252 77.5629 128.551 77.2638 128.551 76.8948C128.551 76.5259 128.252 76.2268 127.883 76.2268Z" fill="white"/>
<path opacity="0.7" d="M127.883 76.4556C127.64 76.4556 127.443 76.6524 127.443 76.8951C127.443 77.1378 127.64 77.3346 127.883 77.3346C128.125 77.3346 128.322 77.1378 128.322 76.8951C128.322 76.6524 128.125 76.4556 127.883 76.4556Z" fill="white"/>
<path d="M127.883 76.6663C127.757 76.6663 127.654 76.7687 127.654 76.8949C127.654 77.0211 127.757 77.1234 127.883 77.1234C128.009 77.1234 128.111 77.0211 128.111 76.8949C128.111 76.7687 128.009 76.6663 127.883 76.6663Z" fill="white"/>
<path opacity="0.2" d="M127.883 75.8224C127.291 75.8224 126.81 76.3025 126.81 76.8948C126.81 77.487 127.291 77.9672 127.883 77.9672C128.475 77.9672 128.955 77.487 128.955 76.8948C128.955 76.3025 128.475 75.8224 127.883 75.8224Z" fill="white"/>
<path opacity="0.2" d="M118.817 77.9321C118.461 77.9321 118.173 78.2207 118.173 78.5767C118.173 78.9327 118.461 79.2213 118.817 79.2213C119.173 79.2213 119.462 78.9327 119.462 78.5767C119.462 78.2207 119.173 77.9321 118.817 77.9321Z" fill="white"/>
<path opacity="0.4" d="M118.817 78.0846C118.546 78.0846 118.325 78.305 118.325 78.5769C118.325 78.8487 118.546 79.0691 118.817 79.0691C119.089 79.0691 119.31 78.8487 119.31 78.5769C119.31 78.305 119.089 78.0846 118.817 78.0846Z" fill="white"/>
<path opacity="0.7" d="M118.817 78.2546C118.639 78.2546 118.495 78.3989 118.495 78.5769C118.495 78.7549 118.639 78.8992 118.817 78.8992C118.995 78.8992 119.14 78.7549 119.14 78.5769C119.14 78.3989 118.995 78.2546 118.817 78.2546Z" fill="white"/>
<path d="M118.817 78.4127C118.727 78.4127 118.653 78.4861 118.653 78.5768C118.653 78.6674 118.727 78.7408 118.817 78.7408C118.908 78.7408 118.981 78.6674 118.981 78.5768C118.981 78.4861 118.908 78.4127 118.817 78.4127Z" fill="white"/>
<path opacity="0.2" d="M118.817 77.7916C118.384 77.7916 118.032 78.1431 118.032 78.5768C118.032 79.0105 118.384 79.3621 118.817 79.3621C119.251 79.3621 119.603 79.0105 119.603 78.5768C119.603 78.1431 119.251 77.7916 118.817 77.7916Z" fill="white"/>
<path opacity="0.2" d="M115.084 89.324C114.622 89.324 114.246 89.6992 114.246 90.162C114.246 90.6248 114.622 91 115.084 91C115.547 91 115.922 90.6248 115.922 90.162C115.922 89.6992 115.547 89.324 115.084 89.324Z" fill="white"/>
<path opacity="0.4" d="M115.085 89.529C114.735 89.529 114.452 89.8124 114.452 90.1619C114.452 90.5114 114.735 90.7948 115.085 90.7948C115.434 90.7948 115.718 90.5114 115.718 90.1619C115.718 89.8124 115.434 89.529 115.085 89.529Z" fill="white"/>
<path opacity="0.7" d="M115.085 89.7457C114.855 89.7457 114.669 89.932 114.669 90.1618C114.669 90.3916 114.855 90.5779 115.085 90.5779C115.314 90.5779 115.501 90.3916 115.501 90.1618C115.501 89.932 115.314 89.7457 115.085 89.7457Z" fill="white"/>
<path d="M115.084 89.9451C114.965 89.9451 114.868 90.0422 114.868 90.162C114.868 90.2817 114.965 90.3788 115.084 90.3788C115.204 90.3788 115.301 90.2817 115.301 90.162C115.301 90.0422 115.204 89.9451 115.084 89.9451Z" fill="white"/>
<path opacity="0.2" d="M115.084 89.1424C114.521 89.1424 114.065 89.5989 114.065 90.162C114.065 90.7251 114.521 91.1816 115.084 91.1816C115.648 91.1816 116.104 90.7251 116.104 90.162C116.104 89.5989 115.648 89.1424 115.084 89.1424Z" fill="white"/>
<path opacity="0.2" d="M113.661 98.2957C112.855 98.2957 112.202 98.949 112.202 99.7549C112.202 100.561 112.855 101.214 113.661 101.214C114.467 101.214 115.12 100.561 115.12 99.7549C115.12 98.949 114.467 98.2957 113.661 98.2957Z" fill="white"/>
<path opacity="0.4" d="M113.661 98.6473C113.049 98.6473 112.553 99.1432 112.553 99.7549C112.553 100.367 113.049 100.862 113.661 100.862C114.272 100.862 114.768 100.367 114.768 99.7549C114.768 99.1432 114.272 98.6473 113.661 98.6473Z" fill="white"/>
<path opacity="0.7" d="M113.661 99.0283C113.259 99.0283 112.934 99.3536 112.934 99.7549C112.934 100.156 113.259 100.482 113.661 100.482C114.062 100.482 114.387 100.156 114.387 99.7549C114.387 99.3536 114.062 99.0283 113.661 99.0283Z" fill="white"/>
<path d="M113.661 99.3798C113.453 99.3798 113.286 99.5477 113.286 99.7549C113.286 99.962 113.453 100.13 113.661 100.13C113.868 100.13 114.036 99.962 114.036 99.7549C114.036 99.5477 113.868 99.3798 113.661 99.3798Z" fill="white"/>
<path opacity="0.2" d="M113.661 97.9791C112.68 97.9791 111.885 98.7741 111.885 99.7547C111.885 100.735 112.68 101.53 113.661 101.53C114.641 101.53 115.436 100.735 115.436 99.7547C115.436 98.7741 114.641 97.9791 113.661 97.9791Z" fill="white"/>
<path opacity="0.2" d="M110.695 106.822C110.058 106.822 109.541 107.339 109.541 107.976C109.541 108.614 110.058 109.131 110.695 109.131C111.333 109.131 111.85 108.614 111.85 107.976C111.85 107.339 111.333 106.822 110.695 106.822Z" fill="white"/>
<path opacity="0.4" d="M110.695 107.103C110.213 107.103 109.822 107.494 109.822 107.976C109.822 108.459 110.213 108.849 110.695 108.849C111.178 108.849 111.569 108.459 111.569 107.976C111.569 107.494 111.178 107.103 110.695 107.103Z" fill="white"/>
<path opacity="0.7" d="M110.695 107.402C110.378 107.402 110.121 107.659 110.121 107.977C110.121 108.294 110.378 108.551 110.695 108.551C111.012 108.551 111.27 108.294 111.27 107.977C111.27 107.659 111.012 107.402 110.695 107.402Z" fill="white"/>
<path d="M110.695 107.683C110.534 107.683 110.402 107.814 110.402 107.976C110.402 108.138 110.534 108.269 110.695 108.269C110.857 108.269 110.988 108.138 110.988 107.976C110.988 107.814 110.857 107.683 110.695 107.683Z" fill="white"/>
<path opacity="0.2" d="M110.695 106.576C109.922 106.576 109.295 107.203 109.295 107.976C109.295 108.75 109.922 109.377 110.695 109.377C111.469 109.377 112.096 108.75 112.096 107.976C112.096 107.203 111.469 106.576 110.695 106.576Z" fill="white"/>
<path opacity="0.2" d="M117.921 112.114C117.707 112.114 117.534 112.287 117.534 112.5C117.534 112.714 117.707 112.887 117.921 112.887C118.134 112.887 118.308 112.714 118.308 112.5C118.308 112.287 118.134 112.114 117.921 112.114Z" fill="white"/>
<path opacity="0.4" d="M117.921 112.207C117.759 112.207 117.628 112.339 117.628 112.5C117.628 112.662 117.759 112.793 117.921 112.793C118.083 112.793 118.214 112.662 118.214 112.5C118.214 112.339 118.083 112.207 117.921 112.207Z" fill="white"/>
<path opacity="0.7" d="M117.921 112.307C117.814 112.307 117.727 112.393 117.727 112.5C117.727 112.607 117.814 112.694 117.921 112.694C118.028 112.694 118.114 112.607 118.114 112.5C118.114 112.393 118.028 112.307 117.921 112.307Z" fill="white"/>
<path d="M117.921 112.401C117.866 112.401 117.821 112.445 117.821 112.5C117.821 112.555 117.866 112.6 117.921 112.6C117.976 112.6 118.02 112.555 118.02 112.5C118.02 112.445 117.976 112.401 117.921 112.401Z" fill="white"/>
<path opacity="0.2" d="M117.921 112.031C117.662 112.031 117.452 112.241 117.452 112.5C117.452 112.759 117.662 112.969 117.921 112.969C118.18 112.969 118.389 112.759 118.389 112.5C118.389 112.241 118.18 112.031 117.921 112.031Z" fill="white"/>
<path opacity="0.2" d="M111.574 118.495C111.286 118.495 111.053 118.729 111.053 119.017C111.053 119.305 111.286 119.538 111.574 119.538C111.862 119.538 112.096 119.305 112.096 119.017C112.096 118.729 111.862 118.495 111.574 118.495Z" fill="white"/>
<path opacity="0.4" d="M111.574 118.618C111.354 118.618 111.176 118.796 111.176 119.016C111.176 119.237 111.354 119.415 111.574 119.415C111.795 119.415 111.973 119.237 111.973 119.016C111.973 118.796 111.795 118.618 111.574 118.618Z" fill="white"/>
<path opacity="0.7" d="M111.574 118.759C111.432 118.759 111.316 118.874 111.316 119.017C111.316 119.159 111.432 119.274 111.574 119.274C111.717 119.274 111.832 119.159 111.832 119.017C111.832 118.874 111.717 118.759 111.574 118.759Z" fill="white"/>
<path d="M111.574 118.882C111.5 118.882 111.44 118.942 111.44 119.017C111.44 119.091 111.5 119.151 111.574 119.151C111.649 119.151 111.709 119.091 111.709 119.017C111.709 118.942 111.649 118.882 111.574 118.882Z" fill="white"/>
<path opacity="0.2" d="M111.575 118.378C111.222 118.378 110.936 118.664 110.936 119.017C110.936 119.369 111.222 119.655 111.575 119.655C111.927 119.655 112.213 119.369 112.213 119.017C112.213 118.664 111.927 118.378 111.575 118.378Z" fill="white"/>
<path opacity="0.2" d="M113.784 124.338C113.56 124.338 113.379 124.519 113.379 124.742C113.379 124.965 113.56 125.146 113.784 125.146C114.007 125.146 114.188 124.965 114.188 124.742C114.188 124.519 114.007 124.338 113.784 124.338Z" fill="white"/>
<path opacity="0.4" d="M113.784 124.437C113.615 124.437 113.479 124.574 113.479 124.742C113.479 124.91 113.615 125.047 113.784 125.047C113.952 125.047 114.088 124.91 114.088 124.742C114.088 124.574 113.952 124.437 113.784 124.437Z" fill="white"/>
<path opacity="0.7" d="M113.783 124.543C113.673 124.543 113.584 124.632 113.584 124.742C113.584 124.852 113.673 124.941 113.783 124.941C113.894 124.941 113.983 124.852 113.983 124.742C113.983 124.632 113.894 124.543 113.783 124.543Z" fill="white"/>
<path d="M113.784 124.636C113.725 124.636 113.678 124.683 113.678 124.742C113.678 124.8 113.725 124.847 113.784 124.847C113.842 124.847 113.889 124.8 113.889 124.742C113.889 124.683 113.842 124.636 113.784 124.636Z" fill="white"/>
<path opacity="0.2" d="M113.783 124.25C113.512 124.25 113.291 124.47 113.291 124.742C113.291 125.014 113.512 125.234 113.783 125.234C114.055 125.234 114.276 125.014 114.276 124.742C114.276 124.47 114.055 124.25 113.783 124.25Z" fill="white"/>
<path opacity="0.2" d="M118.477 126.576C118.319 126.576 118.19 126.705 118.19 126.863C118.19 127.022 118.319 127.15 118.477 127.15C118.636 127.15 118.765 127.022 118.765 126.863C118.765 126.705 118.636 126.576 118.477 126.576Z" fill="white"/>
<path opacity="0.4" d="M118.477 126.646C118.358 126.646 118.261 126.743 118.261 126.863C118.261 126.983 118.358 127.08 118.477 127.08C118.597 127.08 118.694 126.983 118.694 126.863C118.694 126.743 118.597 126.646 118.477 126.646Z" fill="white"/>
<path opacity="0.7" d="M118.477 126.723C118.4 126.723 118.337 126.785 118.337 126.863C118.337 126.941 118.4 127.004 118.477 127.004C118.555 127.004 118.618 126.941 118.618 126.863C118.618 126.785 118.555 126.723 118.477 126.723Z" fill="white"/>
<path d="M118.478 126.787C118.435 126.787 118.401 126.821 118.401 126.863C118.401 126.905 118.435 126.939 118.478 126.939C118.52 126.939 118.554 126.905 118.554 126.863C118.554 126.821 118.52 126.787 118.478 126.787Z" fill="white"/>
<path opacity="0.2" d="M118.477 126.517C118.287 126.517 118.132 126.672 118.132 126.863C118.132 127.054 118.287 127.209 118.477 127.209C118.668 127.209 118.823 127.054 118.823 126.863C118.823 126.672 118.668 126.517 118.477 126.517Z" fill="white"/>
<path opacity="0.2" d="M125.129 128.041C125.019 128.041 124.929 128.13 124.929 128.24C124.929 128.35 125.019 128.44 125.129 128.44C125.239 128.44 125.328 128.35 125.328 128.24C125.328 128.13 125.239 128.041 125.129 128.041Z" fill="white"/>
<path opacity="0.4" d="M125.129 128.088C125.044 128.088 124.976 128.156 124.976 128.24C124.976 128.324 125.044 128.393 125.129 128.393C125.213 128.393 125.281 128.324 125.281 128.24C125.281 128.156 125.213 128.088 125.129 128.088Z" fill="white"/>
<path opacity="0.7" d="M125.129 128.14C125.074 128.14 125.029 128.185 125.029 128.24C125.029 128.295 125.074 128.34 125.129 128.34C125.184 128.34 125.228 128.295 125.228 128.24C125.228 128.185 125.184 128.14 125.129 128.14Z" fill="white"/>
<path d="M125.129 128.188C125.1 128.188 125.076 128.211 125.076 128.24C125.076 128.269 125.1 128.293 125.129 128.293C125.158 128.293 125.181 128.269 125.181 128.24C125.181 128.211 125.158 128.188 125.129 128.188Z" fill="white"/>
<path opacity="0.2" d="M125.129 128C124.996 128 124.888 128.108 124.888 128.24C124.888 128.373 124.996 128.48 125.129 128.48C125.261 128.48 125.369 128.373 125.369 128.24C125.369 128.108 125.261 128 125.129 128Z" fill="white"/>
<path opacity="0.2" d="M127.156 130.244C126.975 130.244 126.828 130.391 126.828 130.572C126.828 130.754 126.975 130.901 127.156 130.901C127.337 130.901 127.484 130.754 127.484 130.572C127.484 130.391 127.337 130.244 127.156 130.244Z" fill="white"/>
<path opacity="0.4" d="M127.156 130.326C127.02 130.326 126.91 130.437 126.91 130.573C126.91 130.709 127.02 130.819 127.156 130.819C127.292 130.819 127.402 130.709 127.402 130.573C127.402 130.437 127.292 130.326 127.156 130.326Z" fill="white"/>
<path opacity="0.7" d="M127.156 130.408C127.066 130.408 126.992 130.482 126.992 130.572C126.992 130.663 127.066 130.737 127.156 130.737C127.247 130.737 127.32 130.663 127.32 130.572C127.32 130.482 127.247 130.408 127.156 130.408Z" fill="white"/>
<path d="M127.156 130.49C127.111 130.49 127.074 130.527 127.074 130.573C127.074 130.618 127.111 130.655 127.156 130.655C127.201 130.655 127.238 130.618 127.238 130.573C127.238 130.527 127.201 130.49 127.156 130.49Z" fill="white"/>
<path opacity="0.2" d="M127.156 130.174C126.936 130.174 126.758 130.353 126.758 130.573C126.758 130.793 126.936 130.971 127.156 130.971C127.376 130.971 127.555 130.793 127.555 130.573C127.555 130.353 127.376 130.174 127.156 130.174Z" fill="white"/>
<path opacity="0.2" d="M131.235 132.454C130.992 132.454 130.795 132.65 130.795 132.893C130.795 133.136 130.992 133.333 131.235 133.333C131.478 133.333 131.674 133.136 131.674 132.893C131.674 132.65 131.478 132.454 131.235 132.454Z" fill="white"/>
<path opacity="0.4" d="M131.235 132.559C131.05 132.559 130.901 132.709 130.901 132.893C130.901 133.078 131.05 133.227 131.235 133.227C131.419 133.227 131.569 133.078 131.569 132.893C131.569 132.709 131.419 132.559 131.235 132.559Z" fill="white"/>
<path opacity="0.7" d="M131.235 132.676C131.115 132.676 131.018 132.773 131.018 132.893C131.018 133.013 131.115 133.11 131.235 133.11C131.354 133.11 131.451 133.013 131.451 132.893C131.451 132.773 131.354 132.676 131.235 132.676Z" fill="white"/>
<path d="M131.235 132.782C131.173 132.782 131.123 132.832 131.123 132.893C131.123 132.955 131.173 133.005 131.235 133.005C131.296 133.005 131.346 132.955 131.346 132.893C131.346 132.832 131.296 132.782 131.235 132.782Z" fill="white"/>
<path opacity="0.2" d="M131.235 132.354C130.937 132.354 130.696 132.596 130.696 132.893C130.696 133.191 130.937 133.432 131.235 133.432C131.533 133.432 131.774 133.191 131.774 132.893C131.774 132.596 131.533 132.354 131.235 132.354Z" fill="white"/>
<path opacity="0.2" d="M130.268 143.359C130.129 143.359 130.016 143.472 130.016 143.611C130.016 143.75 130.129 143.863 130.268 143.863C130.407 143.863 130.52 143.75 130.52 143.611C130.52 143.472 130.407 143.359 130.268 143.359Z" fill="white"/>
<path opacity="0.4" d="M130.268 143.424C130.164 143.424 130.08 143.508 130.08 143.611C130.08 143.715 130.164 143.799 130.268 143.799C130.371 143.799 130.455 143.715 130.455 143.611C130.455 143.508 130.371 143.424 130.268 143.424Z" fill="white"/>
<path opacity="0.7" d="M130.268 143.488C130.2 143.488 130.145 143.543 130.145 143.611C130.145 143.679 130.2 143.734 130.268 143.734C130.336 143.734 130.391 143.679 130.391 143.611C130.391 143.543 130.336 143.488 130.268 143.488Z" fill="white"/>
<path d="M130.268 143.547C130.232 143.547 130.203 143.575 130.203 143.611C130.203 143.647 130.232 143.676 130.268 143.676C130.303 143.676 130.332 143.647 130.332 143.611C130.332 143.575 130.303 143.547 130.268 143.547Z" fill="white"/>
<path opacity="0.2" d="M130.268 143.306C130.099 143.306 129.963 143.443 129.963 143.611C129.963 143.779 130.099 143.916 130.268 143.916C130.436 143.916 130.572 143.779 130.572 143.611C130.572 143.443 130.436 143.306 130.268 143.306Z" fill="white"/>
<path opacity="0.2" d="M136.884 143.969C136.712 143.969 136.573 144.108 136.573 144.279C136.573 144.451 136.712 144.59 136.884 144.59C137.055 144.59 137.194 144.451 137.194 144.279C137.194 144.108 137.055 143.969 136.884 143.969Z" fill="white"/>
<path opacity="0.4" d="M136.884 144.045C136.754 144.045 136.649 144.15 136.649 144.279C136.649 144.408 136.754 144.513 136.884 144.513C137.013 144.513 137.118 144.408 137.118 144.279C137.118 144.15 137.013 144.045 136.884 144.045Z" fill="white"/>
<path opacity="0.7" d="M136.884 144.127C136.8 144.127 136.731 144.195 136.731 144.279C136.731 144.363 136.8 144.432 136.884 144.432C136.968 144.432 137.036 144.363 137.036 144.279C137.036 144.195 136.968 144.127 136.884 144.127Z" fill="white"/>
<path d="M136.884 144.203C136.842 144.203 136.808 144.237 136.808 144.279C136.808 144.321 136.842 144.355 136.884 144.355C136.926 144.355 136.96 144.321 136.96 144.279C136.96 144.237 136.926 144.203 136.884 144.203Z" fill="white"/>
<path opacity="0.2" d="M136.884 143.904C136.677 143.904 136.509 144.072 136.509 144.279C136.509 144.486 136.677 144.654 136.884 144.654C137.091 144.654 137.259 144.486 137.259 144.279C137.259 144.072 137.091 143.904 136.884 143.904Z" fill="white"/>
<path opacity="0.2" d="M141.765 143.74C141.668 143.74 141.589 143.819 141.589 143.916C141.589 144.013 141.668 144.092 141.765 144.092C141.862 144.092 141.941 144.013 141.941 143.916C141.941 143.819 141.862 143.74 141.765 143.74Z" fill="white"/>
<path opacity="0.4" d="M141.765 143.781C141.691 143.781 141.63 143.841 141.63 143.916C141.63 143.99 141.691 144.05 141.765 144.05C141.84 144.05 141.9 143.99 141.9 143.916C141.9 143.841 141.84 143.781 141.765 143.781Z" fill="white"/>
<path opacity="0.7" d="M141.765 143.828C141.716 143.828 141.677 143.867 141.677 143.916C141.677 143.964 141.716 144.004 141.765 144.004C141.814 144.004 141.853 143.964 141.853 143.916C141.853 143.867 141.814 143.828 141.765 143.828Z" fill="white"/>
<path d="M141.765 143.869C141.739 143.869 141.718 143.89 141.718 143.916C141.718 143.942 141.739 143.963 141.765 143.963C141.791 143.963 141.812 143.942 141.812 143.916C141.812 143.89 141.791 143.869 141.765 143.869Z" fill="white"/>
<path opacity="0.2" d="M141.765 143.699C141.645 143.699 141.548 143.796 141.548 143.916C141.548 144.035 141.645 144.133 141.765 144.133C141.885 144.133 141.982 144.035 141.982 143.916C141.982 143.796 141.885 143.699 141.765 143.699Z" fill="white"/>
<path opacity="0.2" d="M146.242 137.763C145.98 137.763 145.768 137.975 145.768 138.237C145.768 138.5 145.98 138.712 146.242 138.712C146.504 138.712 146.717 138.5 146.717 138.237C146.717 137.975 146.504 137.763 146.242 137.763Z" fill="white"/>
<path opacity="0.4" d="M146.242 137.88C146.045 137.88 145.885 138.04 145.885 138.237C145.885 138.435 146.045 138.595 146.242 138.595C146.44 138.595 146.6 138.435 146.6 138.237C146.6 138.04 146.44 137.88 146.242 137.88Z" fill="white"/>
<path opacity="0.7" d="M146.242 138.003C146.113 138.003 146.008 138.108 146.008 138.237C146.008 138.367 146.113 138.472 146.242 138.472C146.372 138.472 146.477 138.367 146.477 138.237C146.477 138.108 146.372 138.003 146.242 138.003Z" fill="white"/>
<path d="M146.242 138.114C146.174 138.114 146.119 138.169 146.119 138.237C146.119 138.305 146.174 138.36 146.242 138.36C146.31 138.36 146.365 138.305 146.365 138.237C146.365 138.169 146.31 138.114 146.242 138.114Z" fill="white"/>
<path opacity="0.2" d="M146.242 137.663C145.925 137.663 145.668 137.92 145.668 138.237C145.668 138.555 145.925 138.812 146.242 138.812C146.559 138.812 146.816 138.555 146.816 138.237C146.816 137.92 146.559 137.663 146.242 137.663Z" fill="white"/>
<path opacity="0.2" d="M151.581 143.687C151.377 143.687 151.211 143.852 151.211 144.056C151.211 144.26 151.377 144.426 151.581 144.426C151.784 144.426 151.95 144.26 151.95 144.056C151.95 143.852 151.784 143.687 151.581 143.687Z" fill="white"/>
<path opacity="0.4" d="M151.581 143.775C151.425 143.775 151.299 143.901 151.299 144.056C151.299 144.212 151.425 144.338 151.581 144.338C151.736 144.338 151.862 144.212 151.862 144.056C151.862 143.901 151.736 143.775 151.581 143.775Z" fill="white"/>
<path opacity="0.7" d="M151.581 143.875C151.48 143.875 151.399 143.956 151.399 144.057C151.399 144.157 151.48 144.238 151.581 144.238C151.681 144.238 151.762 144.157 151.762 144.057C151.762 143.956 151.681 143.875 151.581 143.875Z" fill="white"/>
<path d="M151.581 143.963C151.529 143.963 151.487 144.005 151.487 144.057C151.487 144.108 151.529 144.15 151.581 144.15C151.632 144.15 151.674 144.108 151.674 144.057C151.674 144.005 151.632 143.963 151.581 143.963Z" fill="white"/>
<path opacity="0.2" d="M151.581 143.605C151.331 143.605 151.129 143.807 151.129 144.056C151.129 144.306 151.331 144.508 151.581 144.508C151.83 144.508 152.032 144.306 152.032 144.056C152.032 143.807 151.83 143.605 151.581 143.605Z" fill="white"/>
<path opacity="0.2" d="M156.872 143.201C156.63 143.201 156.433 143.398 156.433 143.64C156.433 143.883 156.63 144.08 156.872 144.08C157.115 144.08 157.312 143.883 157.312 143.64C157.312 143.398 157.115 143.201 156.872 143.201Z" fill="white"/>
<path opacity="0.4" d="M156.872 143.306C156.688 143.306 156.538 143.456 156.538 143.64C156.538 143.825 156.688 143.974 156.872 143.974C157.057 143.974 157.206 143.825 157.206 143.64C157.206 143.456 157.057 143.306 156.872 143.306Z" fill="white"/>
<path opacity="0.7" d="M156.872 143.424C156.752 143.424 156.655 143.521 156.655 143.64C156.655 143.76 156.752 143.857 156.872 143.857C156.992 143.857 157.089 143.76 157.089 143.64C157.089 143.521 156.992 143.424 156.872 143.424Z" fill="white"/>
<path d="M156.872 143.529C156.811 143.529 156.761 143.579 156.761 143.64C156.761 143.702 156.811 143.752 156.872 143.752C156.934 143.752 156.984 143.702 156.984 143.64C156.984 143.579 156.934 143.529 156.872 143.529Z" fill="white"/>
<path opacity="0.2" d="M156.872 143.107C156.578 143.107 156.339 143.346 156.339 143.64C156.339 143.935 156.578 144.173 156.872 144.173C157.167 144.173 157.405 143.935 157.405 143.64C157.405 143.346 157.167 143.107 156.872 143.107Z" fill="white"/>
<path opacity="0.2" d="M162.843 142.369C162.623 142.369 162.445 142.547 162.445 142.767C162.445 142.987 162.623 143.166 162.843 143.166C163.064 143.166 163.242 142.987 163.242 142.767C163.242 142.547 163.064 142.369 162.843 142.369Z" fill="white"/>
<path opacity="0.4" d="M162.844 142.462C162.675 142.462 162.539 142.599 162.539 142.767C162.539 142.935 162.675 143.072 162.844 143.072C163.012 143.072 163.148 142.935 163.148 142.767C163.148 142.599 163.012 142.462 162.844 142.462Z" fill="white"/>
<path opacity="0.7" d="M162.844 142.568C162.733 142.568 162.644 142.657 162.644 142.767C162.644 142.877 162.733 142.967 162.844 142.967C162.954 142.967 163.043 142.877 163.043 142.767C163.043 142.657 162.954 142.568 162.844 142.568Z" fill="white"/>
<path d="M162.844 142.667C162.789 142.667 162.744 142.712 162.744 142.767C162.744 142.822 162.789 142.867 162.844 142.867C162.899 142.867 162.943 142.822 162.943 142.767C162.943 142.712 162.899 142.667 162.844 142.667Z" fill="white"/>
<path opacity="0.2" d="M162.844 142.281C162.575 142.281 162.357 142.499 162.357 142.767C162.357 143.036 162.575 143.254 162.844 143.254C163.112 143.254 163.33 143.036 163.33 142.767C163.33 142.499 163.112 142.281 162.844 142.281Z" fill="white"/>
<path opacity="0.2" d="M167.731 140.488C167.569 140.488 167.438 140.619 167.438 140.781C167.438 140.943 167.569 141.074 167.731 141.074C167.893 141.074 168.024 140.943 168.024 140.781C168.024 140.619 167.893 140.488 167.731 140.488Z" fill="white"/>
<path opacity="0.4" d="M167.731 140.558C167.608 140.558 167.508 140.658 167.508 140.781C167.508 140.904 167.608 141.003 167.731 141.003C167.854 141.003 167.953 140.904 167.953 140.781C167.953 140.658 167.854 140.558 167.731 140.558Z" fill="white"/>
<path opacity="0.7" d="M167.731 140.634C167.65 140.634 167.584 140.7 167.584 140.781C167.584 140.862 167.65 140.927 167.731 140.927C167.812 140.927 167.877 140.862 167.877 140.781C167.877 140.7 167.812 140.634 167.731 140.634Z" fill="white"/>
<path d="M167.731 140.705C167.689 140.705 167.655 140.739 167.655 140.781C167.655 140.823 167.689 140.857 167.731 140.857C167.773 140.857 167.807 140.823 167.807 140.781C167.807 140.739 167.773 140.705 167.731 140.705Z" fill="white"/>
<path opacity="0.2" d="M167.731 140.423C167.533 140.423 167.373 140.583 167.373 140.781C167.373 140.978 167.533 141.138 167.731 141.138C167.928 141.138 168.088 140.978 168.088 140.781C168.088 140.583 167.928 140.423 167.731 140.423Z" fill="white"/>
<path opacity="0.2" d="M168.035 133.057C167.932 133.057 167.848 133.141 167.848 133.245C167.848 133.348 167.932 133.432 168.035 133.432C168.139 133.432 168.223 133.348 168.223 133.245C168.223 133.141 168.139 133.057 168.035 133.057Z" fill="white"/>
<path opacity="0.4" d="M168.036 133.104C167.958 133.104 167.895 133.167 167.895 133.245C167.895 133.322 167.958 133.385 168.036 133.385C168.113 133.385 168.176 133.322 168.176 133.245C168.176 133.167 168.113 133.104 168.036 133.104Z" fill="white"/>
<path opacity="0.7" d="M168.036 133.151C167.984 133.151 167.942 133.193 167.942 133.245C167.942 133.297 167.984 133.339 168.036 133.339C168.087 133.339 168.129 133.297 168.129 133.245C168.129 133.193 168.087 133.151 168.036 133.151Z" fill="white"/>
<path d="M168.036 133.198C168.01 133.198 167.989 133.219 167.989 133.245C167.989 133.271 168.01 133.292 168.036 133.292C168.061 133.292 168.082 133.271 168.082 133.245C168.082 133.219 168.061 133.198 168.036 133.198Z" fill="white"/>
<path opacity="0.2" d="M168.036 133.016C167.909 133.016 167.807 133.119 167.807 133.245C167.807 133.371 167.909 133.473 168.036 133.473C168.162 133.473 168.264 133.371 168.264 133.245C168.264 133.119 168.162 133.016 168.036 133.016Z" fill="white"/>
<path opacity="0.2" d="M171.106 129.752C170.96 129.752 170.842 129.87 170.842 130.016C170.842 130.161 170.96 130.279 171.106 130.279C171.252 130.279 171.37 130.161 171.37 130.016C171.37 129.87 171.252 129.752 171.106 129.752Z" fill="white"/>
<path opacity="0.4" d="M171.106 129.817C170.996 129.817 170.907 129.906 170.907 130.016C170.907 130.126 170.996 130.215 171.106 130.215C171.216 130.215 171.305 130.126 171.305 130.016C171.305 129.906 171.216 129.817 171.106 129.817Z" fill="white"/>
<path opacity="0.7" d="M171.106 129.887C171.035 129.887 170.977 129.945 170.977 130.016C170.977 130.087 171.035 130.145 171.106 130.145C171.177 130.145 171.235 130.087 171.235 130.016C171.235 129.945 171.177 129.887 171.106 129.887Z" fill="white"/>
<path d="M171.106 129.946C171.067 129.946 171.036 129.977 171.036 130.016C171.036 130.055 171.067 130.086 171.106 130.086C171.145 130.086 171.176 130.055 171.176 130.016C171.176 129.977 171.145 129.946 171.106 129.946Z" fill="white"/>
<path opacity="0.2" d="M171.106 129.694C170.928 129.694 170.784 129.838 170.784 130.016C170.784 130.194 170.928 130.338 171.106 130.338C171.284 130.338 171.428 130.194 171.428 130.016C171.428 129.838 171.284 129.694 171.106 129.694Z" fill="white"/>
<path opacity="0.2" d="M176.216 126.775C175.922 126.775 175.683 127.014 175.683 127.309C175.683 127.603 175.922 127.842 176.216 127.842C176.511 127.842 176.749 127.603 176.749 127.309C176.749 127.014 176.511 126.775 176.216 126.775Z" fill="white"/>
<path opacity="0.4" d="M176.216 126.904C175.993 126.904 175.812 127.085 175.812 127.309C175.812 127.532 175.993 127.713 176.216 127.713C176.439 127.713 176.62 127.532 176.62 127.309C176.62 127.085 176.439 126.904 176.216 126.904Z" fill="white"/>
<path opacity="0.7" d="M176.216 127.045C176.071 127.045 175.952 127.163 175.952 127.309C175.952 127.454 176.071 127.572 176.216 127.572C176.362 127.572 176.48 127.454 176.48 127.309C176.48 127.163 176.362 127.045 176.216 127.045Z" fill="white"/>
<path d="M176.216 127.174C176.142 127.174 176.081 127.234 176.081 127.308C176.081 127.383 176.142 127.443 176.216 127.443C176.291 127.443 176.351 127.383 176.351 127.308C176.351 127.234 176.291 127.174 176.216 127.174Z" fill="white"/>
<path opacity="0.2" d="M176.216 126.664C175.86 126.664 175.571 126.953 175.571 127.309C175.571 127.665 175.86 127.953 176.216 127.953C176.572 127.953 176.861 127.665 176.861 127.309C176.861 126.953 176.572 126.664 176.216 126.664Z" fill="white"/>
<path opacity="0.2" d="M175.976 120.564C175.759 120.564 175.583 120.739 175.583 120.956C175.583 121.173 175.759 121.349 175.976 121.349C176.193 121.349 176.369 121.173 176.369 120.956C176.369 120.739 176.193 120.564 175.976 120.564Z" fill="white"/>
<path opacity="0.4" d="M175.976 120.657C175.811 120.657 175.677 120.791 175.677 120.956C175.677 121.121 175.811 121.255 175.976 121.255C176.141 121.255 176.275 121.121 176.275 120.956C176.275 120.791 176.141 120.657 175.976 120.657Z" fill="white"/>
<path opacity="0.7" d="M175.976 120.763C175.869 120.763 175.782 120.85 175.782 120.956C175.782 121.063 175.869 121.15 175.976 121.15C176.083 121.15 176.169 121.063 176.169 120.956C176.169 120.85 176.083 120.763 175.976 120.763Z" fill="white"/>
<path d="M175.976 120.857C175.921 120.857 175.876 120.901 175.876 120.956C175.876 121.011 175.921 121.056 175.976 121.056C176.031 121.056 176.076 121.011 176.076 120.956C176.076 120.901 176.031 120.857 175.976 120.857Z" fill="white"/>
<path opacity="0.2" d="M175.976 120.482C175.714 120.482 175.501 120.694 175.501 120.956C175.501 121.219 175.714 121.431 175.976 121.431C176.238 121.431 176.45 121.219 176.45 120.956C176.45 120.694 176.238 120.482 175.976 120.482Z" fill="white"/>
<path opacity="0.2" d="M178.343 117.188C178.12 117.188 177.939 117.369 177.939 117.593C177.939 117.816 178.12 117.997 178.343 117.997C178.566 117.997 178.747 117.816 178.747 117.593C178.747 117.369 178.566 117.188 178.343 117.188Z" fill="white"/>
<path opacity="0.4" d="M178.343 117.288C178.175 117.288 178.038 117.424 178.038 117.593C178.038 117.761 178.175 117.897 178.343 117.897C178.511 117.897 178.648 117.761 178.648 117.593C178.648 117.424 178.511 117.288 178.343 117.288Z" fill="white"/>
<path opacity="0.7" d="M178.343 117.393C178.233 117.393 178.144 117.482 178.144 117.593C178.144 117.703 178.233 117.792 178.343 117.792C178.453 117.792 178.543 117.703 178.543 117.593C178.543 117.482 178.453 117.393 178.343 117.393Z" fill="white"/>
<path d="M178.343 117.487C178.285 117.487 178.238 117.534 178.238 117.593C178.238 117.651 178.285 117.698 178.343 117.698C178.401 117.698 178.449 117.651 178.449 117.593C178.449 117.534 178.401 117.487 178.343 117.487Z" fill="white"/>
<path opacity="0.2" d="M178.343 117.1C178.071 117.1 177.851 117.321 177.851 117.592C177.851 117.864 178.071 118.085 178.343 118.085C178.615 118.085 178.836 117.864 178.836 117.592C178.836 117.321 178.615 117.1 178.343 117.1Z" fill="white"/>
<path opacity="0.2" d="M176.351 112.688C176.257 112.688 176.181 112.764 176.181 112.858C176.181 112.951 176.257 113.028 176.351 113.028C176.445 113.028 176.521 112.951 176.521 112.858C176.521 112.764 176.445 112.688 176.351 112.688Z" fill="white"/>
<path opacity="0.4" d="M176.351 112.729C176.28 112.729 176.222 112.787 176.222 112.858C176.222 112.929 176.28 112.987 176.351 112.987C176.422 112.987 176.48 112.929 176.48 112.858C176.48 112.787 176.422 112.729 176.351 112.729Z" fill="white"/>
<path opacity="0.7" d="M176.351 112.77C176.302 112.77 176.263 112.809 176.263 112.858C176.263 112.906 176.302 112.946 176.351 112.946C176.399 112.946 176.439 112.906 176.439 112.858C176.439 112.809 176.399 112.77 176.351 112.77Z" fill="white"/>
<path d="M176.351 112.811C176.325 112.811 176.304 112.832 176.304 112.858C176.304 112.884 176.325 112.905 176.351 112.905C176.377 112.905 176.398 112.884 176.398 112.858C176.398 112.832 176.377 112.811 176.351 112.811Z" fill="white"/>
<path opacity="0.2" d="M176.351 112.647C176.234 112.647 176.14 112.741 176.14 112.858C176.14 112.974 176.234 113.069 176.351 113.069C176.467 113.069 176.562 112.974 176.562 112.858C176.562 112.741 176.467 112.647 176.351 112.647Z" fill="white"/>
<path opacity="0.2" d="M185.61 109.84C185.344 109.84 185.129 110.055 185.129 110.32C185.129 110.586 185.344 110.801 185.61 110.801C185.875 110.801 186.09 110.586 186.09 110.32C186.09 110.055 185.875 109.84 185.61 109.84Z" fill="white"/>
<path opacity="0.4" d="M185.61 109.957C185.409 109.957 185.246 110.12 185.246 110.32C185.246 110.521 185.409 110.684 185.61 110.684C185.81 110.684 185.973 110.521 185.973 110.32C185.973 110.12 185.81 109.957 185.61 109.957Z" fill="white"/>
<path opacity="0.7" d="M185.61 110.08C185.477 110.08 185.369 110.188 185.369 110.32C185.369 110.453 185.477 110.561 185.61 110.561C185.742 110.561 185.85 110.453 185.85 110.32C185.85 110.188 185.742 110.08 185.61 110.08Z" fill="white"/>
<path d="M185.61 110.197C185.542 110.197 185.487 110.253 185.487 110.321C185.487 110.389 185.542 110.444 185.61 110.444C185.678 110.444 185.733 110.389 185.733 110.321C185.733 110.253 185.678 110.197 185.61 110.197Z" fill="white"/>
<path opacity="0.2" d="M185.61 109.734C185.286 109.734 185.024 109.997 185.024 110.32C185.024 110.644 185.286 110.906 185.61 110.906C185.933 110.906 186.196 110.644 186.196 110.32C186.196 109.997 185.933 109.734 185.61 109.734Z" fill="white"/>
<path opacity="0.2" d="M184.244 103.599C184.111 103.599 184.004 103.706 184.004 103.839C184.004 103.972 184.111 104.079 184.244 104.079C184.377 104.079 184.484 103.972 184.484 103.839C184.484 103.706 184.377 103.599 184.244 103.599Z" fill="white"/>
<path opacity="0.4" d="M184.244 103.657C184.144 103.657 184.063 103.739 184.063 103.839C184.063 103.939 184.144 104.021 184.244 104.021C184.345 104.021 184.426 103.939 184.426 103.839C184.426 103.739 184.345 103.657 184.244 103.657Z" fill="white"/>
<path opacity="0.7" d="M184.244 103.722C184.179 103.722 184.127 103.774 184.127 103.839C184.127 103.904 184.179 103.956 184.244 103.956C184.309 103.956 184.361 103.904 184.361 103.839C184.361 103.774 184.309 103.722 184.244 103.722Z" fill="white"/>
<path d="M184.244 103.775C184.209 103.775 184.18 103.804 184.18 103.839C184.18 103.875 184.209 103.904 184.244 103.904C184.28 103.904 184.309 103.875 184.309 103.839C184.309 103.804 184.28 103.775 184.244 103.775Z" fill="white"/>
<path opacity="0.2" d="M184.244 103.546C184.083 103.546 183.951 103.678 183.951 103.839C183.951 104.001 184.083 104.132 184.244 104.132C184.406 104.132 184.537 104.001 184.537 103.839C184.537 103.678 184.406 103.546 184.244 103.546Z" fill="white"/>
<path opacity="0.2" d="M183.16 98.5417C183.047 98.5417 182.955 98.6335 182.955 98.7468C182.955 98.8601 183.047 98.9519 183.16 98.9519C183.274 98.9519 183.365 98.8601 183.365 98.7468C183.365 98.6335 183.274 98.5417 183.16 98.5417Z" fill="white"/>
<path opacity="0.4" d="M183.16 98.5885C183.073 98.5885 183.002 98.6593 183.002 98.7467C183.002 98.8341 183.073 98.9049 183.16 98.9049C183.248 98.9049 183.318 98.8341 183.318 98.7467C183.318 98.6593 183.248 98.5885 183.16 98.5885Z" fill="white"/>
<path opacity="0.7" d="M183.16 98.6413C183.102 98.6413 183.055 98.6886 183.055 98.7468C183.055 98.8051 183.102 98.8523 183.16 98.8523C183.219 98.8523 183.266 98.8051 183.266 98.7468C183.266 98.6886 183.219 98.6413 183.16 98.6413Z" fill="white"/>
<path d="M183.16 98.6941C183.131 98.6941 183.107 98.7177 183.107 98.7468C183.107 98.776 183.131 98.7996 183.16 98.7996C183.189 98.7996 183.213 98.776 183.213 98.7468C183.213 98.7177 183.189 98.6941 183.16 98.6941Z" fill="white"/>
<path opacity="0.2" d="M183.16 98.4948C183.021 98.4948 182.908 98.6076 182.908 98.7468C182.908 98.886 183.021 98.9988 183.16 98.9988C183.299 98.9988 183.412 98.886 183.412 98.7468C183.412 98.6076 183.299 98.4948 183.16 98.4948Z" fill="white"/>
<path opacity="0.2" d="M177.675 94.5394C177.542 94.5394 177.435 94.6469 177.435 94.7796C177.435 94.9123 177.542 95.0199 177.675 95.0199C177.808 95.0199 177.915 94.9123 177.915 94.7796C177.915 94.6469 177.808 94.5394 177.675 94.5394Z" fill="white"/>
<path opacity="0.4" d="M177.675 94.5979C177.575 94.5979 177.493 94.6792 177.493 94.7795C177.493 94.8798 177.575 94.9612 177.675 94.9612C177.775 94.9612 177.857 94.8798 177.857 94.7795C177.857 94.6792 177.775 94.5979 177.675 94.5979Z" fill="white"/>
<path opacity="0.7" d="M177.675 94.6624C177.61 94.6624 177.558 94.7149 177.558 94.7796C177.558 94.8444 177.61 94.8969 177.675 94.8969C177.74 94.8969 177.792 94.8444 177.792 94.7796C177.792 94.7149 177.74 94.6624 177.675 94.6624Z" fill="white"/>
<path d="M177.675 94.7152C177.64 94.7152 177.611 94.744 177.611 94.7796C177.611 94.8152 177.64 94.8441 177.675 94.8441C177.711 94.8441 177.74 94.8152 177.74 94.7796C177.74 94.744 177.711 94.7152 177.675 94.7152Z" fill="white"/>
<path opacity="0.2" d="M177.675 94.4868C177.514 94.4868 177.382 94.6179 177.382 94.7798C177.382 94.9416 177.514 95.0728 177.675 95.0728C177.837 95.0728 177.968 94.9416 177.968 94.7798C177.968 94.6179 177.837 94.4868 177.675 94.4868Z" fill="white"/>
<path opacity="0.2" d="M175.618 90.0213C175.473 90.0213 175.355 90.1394 175.355 90.285C175.355 90.4307 175.473 90.5487 175.618 90.5487C175.764 90.5487 175.882 90.4307 175.882 90.285C175.882 90.1394 175.764 90.0213 175.618 90.0213Z" fill="white"/>
<path opacity="0.4" d="M175.618 90.0859C175.508 90.0859 175.419 90.1751 175.419 90.2851C175.419 90.3952 175.508 90.4844 175.618 90.4844C175.728 90.4844 175.817 90.3952 175.817 90.2851C175.817 90.1751 175.728 90.0859 175.618 90.0859Z" fill="white"/>
<path opacity="0.7" d="M175.618 90.1501C175.544 90.1501 175.484 90.2105 175.484 90.2849C175.484 90.3593 175.544 90.4197 175.618 90.4197C175.693 90.4197 175.753 90.3593 175.753 90.2849C175.753 90.2105 175.693 90.1501 175.618 90.1501Z" fill="white"/>
<path d="M175.618 90.2147C175.58 90.2147 175.548 90.2462 175.548 90.285C175.548 90.3239 175.58 90.3553 175.618 90.3553C175.657 90.3553 175.689 90.3239 175.689 90.285C175.689 90.2462 175.657 90.2147 175.618 90.2147Z" fill="white"/>
<path opacity="0.2" d="M175.618 89.9628C175.44 89.9628 175.296 90.1071 175.296 90.2851C175.296 90.4631 175.44 90.6074 175.618 90.6074C175.796 90.6074 175.941 90.4631 175.941 90.2851C175.941 90.1071 175.796 89.9628 175.618 89.9628Z" fill="white"/>
<path opacity="0.2" d="M174.341 84.3724C174.095 84.3724 173.896 84.5717 173.896 84.8177C173.896 85.0637 174.095 85.2631 174.341 85.2631C174.587 85.2631 174.786 85.0637 174.786 84.8177C174.786 84.5717 174.587 84.3724 174.341 84.3724Z" fill="white"/>
<path opacity="0.4" d="M174.341 84.4777C174.153 84.4777 174.001 84.6299 174.001 84.8176C174.001 85.0053 174.153 85.1575 174.341 85.1575C174.528 85.1575 174.681 85.0053 174.681 84.8176C174.681 84.6299 174.528 84.4777 174.341 84.4777Z" fill="white"/>
<path opacity="0.7" d="M174.341 84.595C174.218 84.595 174.118 84.6947 174.118 84.8177C174.118 84.9407 174.218 85.0404 174.341 85.0404C174.464 85.0404 174.564 84.9407 174.564 84.8177C174.564 84.6947 174.464 84.595 174.341 84.595Z" fill="white"/>
<path d="M174.341 84.7064C174.279 84.7064 174.23 84.7562 174.23 84.8177C174.23 84.8792 174.279 84.9291 174.341 84.9291C174.402 84.9291 174.452 84.8792 174.452 84.8177C174.452 84.7562 174.402 84.7064 174.341 84.7064Z" fill="white"/>
<path opacity="0.2" d="M174.341 84.2786C174.043 84.2786 173.802 84.5199 173.802 84.8177C173.802 85.1154 174.043 85.3568 174.341 85.3568C174.639 85.3568 174.88 85.1154 174.88 84.8177C174.88 84.5199 174.639 84.2786 174.341 84.2786Z" fill="white"/>
<path opacity="0.2" d="M170.919 78.7876C170.825 78.7876 170.749 78.8636 170.749 78.9575C170.749 79.0514 170.825 79.1274 170.919 79.1274C171.012 79.1274 171.089 79.0514 171.089 78.9575C171.089 78.8636 171.012 78.7876 170.919 78.7876Z" fill="white"/>
<path opacity="0.4" d="M170.919 78.8287C170.848 78.8287 170.79 78.8864 170.79 78.9576C170.79 79.0288 170.848 79.0865 170.919 79.0865C170.99 79.0865 171.048 79.0288 171.048 78.9576C171.048 78.8864 170.99 78.8287 170.919 78.8287Z" fill="white"/>
<path opacity="0.7" d="M170.919 78.8756C170.873 78.8756 170.837 78.9123 170.837 78.9576C170.837 79.0029 170.873 79.0397 170.919 79.0397C170.964 79.0397 171.001 79.0029 171.001 78.9576C171.001 78.9123 170.964 78.8756 170.919 78.8756Z" fill="white"/>
<path d="M170.919 78.9166C170.896 78.9166 170.878 78.935 170.878 78.9576C170.878 78.9803 170.896 78.9987 170.919 78.9987C170.941 78.9987 170.96 78.9803 170.96 78.9576C170.96 78.935 170.941 78.9166 170.919 78.9166Z" fill="white"/>
<path opacity="0.2" d="M170.919 78.7525C170.805 78.7525 170.714 78.8443 170.714 78.9576C170.714 79.0709 170.805 79.1627 170.919 79.1627C171.032 79.1627 171.124 79.0709 171.124 78.9576C171.124 78.8443 171.032 78.7525 170.919 78.7525Z" fill="white"/>
<path opacity="0.2" d="M165.035 78.1138C164.835 78.1138 164.672 78.2765 164.672 78.4771C164.672 78.6778 164.835 78.8405 165.035 78.8405C165.236 78.8405 165.399 78.6778 165.399 78.4771C165.399 78.2765 165.236 78.1138 165.035 78.1138Z" fill="white"/>
<path opacity="0.4" d="M165.035 78.2018C164.883 78.2018 164.76 78.3252 164.76 78.4773C164.76 78.6294 164.883 78.7527 165.035 78.7527C165.187 78.7527 165.311 78.6294 165.311 78.4773C165.311 78.3252 165.187 78.2018 165.035 78.2018Z" fill="white"/>
<path opacity="0.7" d="M165.035 78.2955C164.935 78.2955 164.854 78.3768 164.854 78.4772C164.854 78.5775 164.935 78.6588 165.035 78.6588C165.136 78.6588 165.217 78.5775 165.217 78.4772C165.217 78.3768 165.136 78.2955 165.035 78.2955Z" fill="white"/>
<path d="M165.035 78.3834C164.983 78.3834 164.941 78.4254 164.941 78.4772C164.941 78.529 164.983 78.5709 165.035 78.5709C165.087 78.5709 165.129 78.529 165.129 78.4772C165.129 78.4254 165.087 78.3834 165.035 78.3834Z" fill="white"/>
<path opacity="0.2" d="M165.035 78.0376C164.792 78.0376 164.596 78.2344 164.596 78.4771C164.596 78.7199 164.792 78.9166 165.035 78.9166C165.278 78.9166 165.475 78.7199 165.475 78.4771C165.475 78.2344 165.278 78.0376 165.035 78.0376Z" fill="white"/>
<path opacity="0.2" d="M162.773 72.8457C162.602 72.8457 162.463 72.9848 162.463 73.1563C162.463 73.3279 162.602 73.4669 162.773 73.4669C162.945 73.4669 163.084 73.3279 163.084 73.1563C163.084 72.9848 162.945 72.8457 162.773 72.8457Z" fill="white"/>
<path opacity="0.4" d="M162.773 72.922C162.644 72.922 162.539 73.0269 162.539 73.1564C162.539 73.2858 162.644 73.3907 162.773 73.3907C162.903 73.3907 163.008 73.2858 163.008 73.1564C163.008 73.0269 162.903 72.922 162.773 72.922Z" fill="white"/>
<path opacity="0.7" d="M162.773 73.004C162.689 73.004 162.621 73.0722 162.621 73.1563C162.621 73.2405 162.689 73.3087 162.773 73.3087C162.857 73.3087 162.925 73.2405 162.925 73.1563C162.925 73.0722 162.857 73.004 162.773 73.004Z" fill="white"/>
<path d="M162.773 73.0742C162.728 73.0742 162.691 73.1109 162.691 73.1562C162.691 73.2015 162.728 73.2383 162.773 73.2383C162.819 73.2383 162.855 73.2015 162.855 73.1562C162.855 73.1109 162.819 73.0742 162.773 73.0742Z" fill="white"/>
<path opacity="0.2" d="M162.773 72.7812C162.566 72.7812 162.398 72.9491 162.398 73.1562C162.398 73.3633 162.566 73.5312 162.773 73.5312C162.98 73.5312 163.148 73.3633 163.148 73.1562C163.148 72.9491 162.98 72.7812 162.773 72.7812Z" fill="white"/>
<path opacity="0.2" d="M155.267 74.0352C155.102 74.0352 154.968 74.169 154.968 74.3341C154.968 74.4991 155.102 74.6329 155.267 74.6329C155.432 74.6329 155.566 74.4991 155.566 74.3341C155.566 74.169 155.432 74.0352 155.267 74.0352Z" fill="white"/>
<path opacity="0.4" d="M155.266 74.1114C155.143 74.1114 155.044 74.2111 155.044 74.3341C155.044 74.4571 155.143 74.5568 155.266 74.5568C155.389 74.5568 155.489 74.4571 155.489 74.3341C155.489 74.2111 155.389 74.1114 155.266 74.1114Z" fill="white"/>
<path opacity="0.7" d="M155.267 74.1876C155.186 74.1876 155.12 74.2532 155.12 74.3341C155.12 74.415 155.186 74.4806 155.267 74.4806C155.347 74.4806 155.413 74.415 155.413 74.3341C155.413 74.2532 155.347 74.1876 155.267 74.1876Z" fill="white"/>
<path d="M155.266 74.2579C155.224 74.2579 155.19 74.292 155.19 74.3341C155.19 74.3762 155.224 74.4103 155.266 74.4103C155.309 74.4103 155.343 74.3762 155.343 74.3341C155.343 74.292 155.309 74.2579 155.266 74.2579Z" fill="white"/>
<path opacity="0.2" d="M155.266 73.9766C155.069 73.9766 154.909 74.1367 154.909 74.3341C154.909 74.5315 155.069 74.6915 155.266 74.6915C155.464 74.6915 155.624 74.5315 155.624 74.3341C155.624 74.1367 155.464 73.9766 155.266 73.9766Z" fill="white"/>
<path opacity="0.2" d="M150.256 75.2836C150.014 75.2836 149.817 75.4804 149.817 75.7231C149.817 75.9658 150.014 76.1626 150.256 76.1626C150.499 76.1626 150.696 75.9658 150.696 75.7231C150.696 75.4804 150.499 75.2836 150.256 75.2836Z" fill="white"/>
<path opacity="0.4" d="M150.256 75.389C150.072 75.389 149.922 75.5385 149.922 75.723C149.922 75.9075 150.072 76.057 150.256 76.057C150.441 76.057 150.59 75.9075 150.59 75.723C150.59 75.5385 150.441 75.389 150.256 75.389Z" fill="white"/>
<path opacity="0.7" d="M150.256 75.5061C150.136 75.5061 150.039 75.6031 150.039 75.7229C150.039 75.8426 150.136 75.9397 150.256 75.9397C150.376 75.9397 150.473 75.8426 150.473 75.7229C150.473 75.6031 150.376 75.5061 150.256 75.5061Z" fill="white"/>
<path d="M150.256 75.6117C150.195 75.6117 150.145 75.6615 150.145 75.723C150.145 75.7845 150.195 75.8344 150.256 75.8344C150.318 75.8344 150.368 75.7845 150.368 75.723C150.368 75.6615 150.318 75.6117 150.256 75.6117Z" fill="white"/>
<path opacity="0.2" d="M150.256 75.1838C149.959 75.1838 149.717 75.4252 149.717 75.723C149.717 76.0207 149.959 76.2621 150.256 76.2621C150.554 76.2621 150.795 76.0207 150.795 75.723C150.795 75.4252 150.554 75.1838 150.256 75.1838Z" fill="white"/>
<path opacity="0.2" d="M144.941 69.7457C144.805 69.7457 144.695 69.8559 144.695 69.9918C144.695 70.1277 144.805 70.2379 144.941 70.2379C145.077 70.2379 145.187 70.1277 145.187 69.9918C145.187 69.8559 145.077 69.7457 144.941 69.7457Z" fill="white"/>
<path opacity="0.4" d="M144.941 69.8042C144.838 69.8042 144.754 69.8881 144.754 69.9917C144.754 70.0952 144.838 70.1792 144.941 70.1792C145.045 70.1792 145.129 70.0952 145.129 69.9917C145.129 69.8881 145.045 69.8042 144.941 69.8042Z" fill="white"/>
<path opacity="0.7" d="M144.941 69.8688C144.873 69.8688 144.818 69.9238 144.818 69.9918C144.818 70.0598 144.873 70.1149 144.941 70.1149C145.009 70.1149 145.064 70.0598 145.064 69.9918C145.064 69.9238 145.009 69.8688 144.941 69.8688Z" fill="white"/>
<path d="M144.941 69.9272C144.906 69.9272 144.877 69.9561 144.877 69.9917C144.877 70.0273 144.906 70.0562 144.941 70.0562C144.977 70.0562 145.006 70.0273 145.006 69.9917C145.006 69.9561 144.977 69.9272 144.941 69.9272Z" fill="white"/>
<path opacity="0.2" d="M144.941 69.693C144.776 69.693 144.642 69.8268 144.642 69.9919C144.642 70.157 144.776 70.2908 144.941 70.2908C145.106 70.2908 145.24 70.157 145.24 69.9919C145.24 69.8268 145.106 69.693 144.941 69.693Z" fill="white"/>
<path opacity="0.2" d="M140.915 76.3734C140.614 76.3734 140.37 76.6174 140.37 76.9184C140.37 77.2194 140.614 77.4634 140.915 77.4634C141.216 77.4634 141.46 77.2194 141.46 76.9184C141.46 76.6174 141.216 76.3734 140.915 76.3734Z" fill="white"/>
<path opacity="0.4" d="M140.915 76.5082C140.689 76.5082 140.505 76.6919 140.505 76.9184C140.505 77.145 140.689 77.3286 140.915 77.3286C141.142 77.3286 141.326 77.145 141.326 76.9184C141.326 76.6919 141.142 76.5082 140.915 76.5082Z" fill="white"/>
<path opacity="0.7" d="M140.916 76.649C140.767 76.649 140.646 76.7697 140.646 76.9186C140.646 77.0674 140.767 77.1881 140.916 77.1881C141.064 77.1881 141.185 77.0674 141.185 76.9186C141.185 76.7697 141.064 76.649 140.916 76.649Z" fill="white"/>
<path d="M140.915 76.7777C140.838 76.7777 140.775 76.8407 140.775 76.9183C140.775 76.996 140.838 77.059 140.915 77.059C140.993 77.059 141.056 76.996 141.056 76.9183C141.056 76.8407 140.993 76.7777 140.915 76.7777Z" fill="white"/>
<path opacity="0.2" d="M140.915 76.2619C140.553 76.2619 140.259 76.5558 140.259 76.9183C140.259 77.2807 140.553 77.5746 140.915 77.5746C141.278 77.5746 141.572 77.2807 141.572 76.9183C141.572 76.5558 141.278 76.2619 140.915 76.2619Z" fill="white"/>
<path opacity="0.2" d="M136.239 74.34C136.119 74.34 136.022 74.4371 136.022 74.5569C136.022 74.6766 136.119 74.7737 136.239 74.7737C136.359 74.7737 136.456 74.6766 136.456 74.5569C136.456 74.4371 136.359 74.34 136.239 74.34Z" fill="white"/>
<path opacity="0.4" d="M136.239 74.3925C136.149 74.3925 136.075 74.466 136.075 74.5566C136.075 74.6472 136.149 74.7207 136.239 74.7207C136.33 74.7207 136.403 74.6472 136.403 74.5566C136.403 74.466 136.33 74.3925 136.239 74.3925Z" fill="white"/>
<path opacity="0.7" d="M136.239 74.4454C136.178 74.4454 136.128 74.4953 136.128 74.5568C136.128 74.6182 136.178 74.6681 136.239 74.6681C136.301 74.6681 136.351 74.6182 136.351 74.5568C136.351 74.4953 136.301 74.4454 136.239 74.4454Z" fill="white"/>
<path d="M136.239 74.4983C136.207 74.4983 136.18 74.5245 136.18 74.5569C136.18 74.5893 136.207 74.6155 136.239 74.6155C136.271 74.6155 136.298 74.5893 136.298 74.5569C136.298 74.5245 136.271 74.4983 136.239 74.4983Z" fill="white"/>
<path opacity="0.2" d="M136.239 74.2932C136.093 74.2932 135.975 74.4112 135.975 74.5569C135.975 74.7025 136.093 74.8206 136.239 74.8206C136.385 74.8206 136.503 74.7025 136.503 74.5569C136.503 74.4112 136.385 74.2932 136.239 74.2932Z" fill="white"/>
<path opacity="0.2" d="M135.313 81.4774C135.009 81.4774 134.762 81.724 134.762 82.0283C134.762 82.3325 135.009 82.5791 135.313 82.5791C135.617 82.5791 135.864 82.3325 135.864 82.0283C135.864 81.724 135.617 81.4774 135.313 81.4774Z" fill="white"/>
<path opacity="0.4" d="M135.313 81.6122C135.084 81.6122 134.897 81.7985 134.897 82.0283C134.897 82.2581 135.084 82.4443 135.313 82.4443C135.543 82.4443 135.729 82.2581 135.729 82.0283C135.729 81.7985 135.543 81.6122 135.313 81.6122Z" fill="white"/>
<path opacity="0.7" d="M135.313 81.7587C135.164 81.7587 135.044 81.8794 135.044 82.0283C135.044 82.1772 135.164 82.2979 135.313 82.2979C135.462 82.2979 135.583 82.1772 135.583 82.0283C135.583 81.8794 135.462 81.7587 135.313 81.7587Z" fill="white"/>
<path d="M135.313 81.8878C135.236 81.8878 135.173 81.9508 135.173 82.0284C135.173 82.1061 135.236 82.1691 135.313 82.1691C135.391 82.1691 135.454 82.1061 135.454 82.0284C135.454 81.9508 135.391 81.8878 135.313 81.8878Z" fill="white"/>
<path opacity="0.2" d="M135.313 81.3603C134.944 81.3603 134.645 81.6594 134.645 82.0284C134.645 82.3973 134.944 82.6964 135.313 82.6964C135.682 82.6964 135.981 82.3973 135.981 82.0284C135.981 81.6594 135.682 81.3603 135.313 81.3603Z" fill="white"/>
<path opacity="0.2" d="M131.358 84.0677C131.154 84.0677 130.989 84.233 130.989 84.4369C130.989 84.6407 131.154 84.806 131.358 84.806C131.562 84.806 131.727 84.6407 131.727 84.4369C131.727 84.233 131.562 84.0677 131.358 84.0677Z" fill="white"/>
<path opacity="0.4" d="M131.358 84.1553C131.202 84.1553 131.077 84.2813 131.077 84.4366C131.077 84.592 131.202 84.7179 131.358 84.7179C131.513 84.7179 131.639 84.592 131.639 84.4366C131.639 84.2813 131.513 84.1553 131.358 84.1553Z" fill="white"/>
<path opacity="0.7" d="M131.358 84.2551C131.258 84.2551 131.176 84.3364 131.176 84.4368C131.176 84.5371 131.258 84.6184 131.358 84.6184C131.458 84.6184 131.54 84.5371 131.54 84.4368C131.54 84.3364 131.458 84.2551 131.358 84.2551Z" fill="white"/>
<path d="M131.358 84.343C131.306 84.343 131.264 84.385 131.264 84.4368C131.264 84.4885 131.306 84.5305 131.358 84.5305C131.409 84.5305 131.451 84.4885 131.451 84.4368C131.451 84.385 131.409 84.343 131.358 84.343Z" fill="white"/>
<path opacity="0.2" d="M131.358 83.9855C131.109 83.9855 130.907 84.1875 130.907 84.4367C130.907 84.6859 131.109 84.8879 131.358 84.8879C131.607 84.8879 131.809 84.6859 131.809 84.4367C131.809 84.1875 131.607 83.9855 131.358 83.9855Z" fill="white"/>
<path opacity="0.2" d="M122.105 77.8326C121.833 77.8325 121.613 78.0529 121.613 78.3248C121.613 78.5966 121.833 78.817 122.105 78.817C122.377 78.817 122.597 78.5966 122.597 78.3248C122.597 78.0529 122.377 77.8326 122.105 77.8326Z" fill="white"/>
<path opacity="0.4" d="M122.105 77.9496C121.898 77.9496 121.73 78.1175 121.73 78.3247C121.73 78.5318 121.898 78.6997 122.105 78.6997C122.312 78.6997 122.48 78.5318 122.48 78.3247C122.48 78.1175 122.312 77.9496 122.105 77.9496Z" fill="white"/>
<path opacity="0.7" d="M122.105 78.0787C121.969 78.0787 121.859 78.1889 121.859 78.3248C121.859 78.4607 121.969 78.5709 122.105 78.5709C122.241 78.5709 122.351 78.4607 122.351 78.3248C122.351 78.1889 122.241 78.0787 122.105 78.0787Z" fill="white"/>
<path d="M122.105 78.1958C122.034 78.1958 121.976 78.2535 121.976 78.3247C121.976 78.3959 122.034 78.4536 122.105 78.4536C122.176 78.4536 122.234 78.3959 122.234 78.3247C122.234 78.2535 122.176 78.1958 122.105 78.1958Z" fill="white"/>
<path opacity="0.2" d="M122.105 77.7212C121.771 77.7212 121.501 77.9914 121.501 78.3248C121.501 78.6581 121.771 78.9283 122.105 78.9283C122.438 78.9283 122.708 78.6581 122.708 78.3248C122.708 77.9914 122.438 77.7212 122.105 77.7212Z" fill="white"/>
<path opacity="0.2" d="M121.12 85.7671C120.826 85.7671 120.587 86.0058 120.587 86.3004C120.587 86.5949 120.826 86.8336 121.12 86.8336C121.415 86.8336 121.654 86.5949 121.654 86.3004C121.654 86.0058 121.415 85.7671 121.12 85.7671Z" fill="white"/>
<path opacity="0.4" d="M121.12 85.8959C120.897 85.8959 120.716 86.0769 120.716 86.3002C120.716 86.5236 120.897 86.7046 121.12 86.7046C121.344 86.7046 121.525 86.5236 121.525 86.3002C121.525 86.0769 121.344 85.8959 121.12 85.8959Z" fill="white"/>
<path opacity="0.7" d="M121.12 86.0367C120.975 86.0367 120.857 86.1547 120.857 86.3004C120.857 86.446 120.975 86.5641 121.12 86.5641C121.266 86.5641 121.384 86.446 121.384 86.3004C121.384 86.1547 121.266 86.0367 121.12 86.0367Z" fill="white"/>
<path d="M121.12 86.1655C121.046 86.1655 120.986 86.2258 120.986 86.3003C120.986 86.3747 121.046 86.4351 121.12 86.4351C121.195 86.4351 121.255 86.3747 121.255 86.3003C121.255 86.2258 121.195 86.1655 121.12 86.1655Z" fill="white"/>
<path opacity="0.2" d="M121.12 85.6498C120.761 85.6498 120.47 85.941 120.47 86.3002C120.47 86.6595 120.761 86.9507 121.12 86.9507C121.479 86.9507 121.771 86.6595 121.771 86.3002C121.771 85.941 121.479 85.6498 121.12 85.6498Z" fill="white"/>
<path opacity="0.2" d="M118.29 90.2969C117.999 90.2969 117.762 90.533 117.762 90.8243C117.762 91.1155 117.999 91.3517 118.29 91.3517C118.581 91.3517 118.817 91.1155 118.817 90.8243C118.817 90.533 118.581 90.2969 118.29 90.2969Z" fill="white"/>
<path opacity="0.4" d="M118.29 90.4257C118.07 90.4257 117.891 90.6041 117.891 90.8242C117.891 91.0442 118.07 91.2227 118.29 91.2227C118.51 91.2227 118.688 91.0442 118.688 90.8242C118.688 90.6041 118.51 90.4257 118.29 90.4257Z" fill="white"/>
<path opacity="0.7" d="M118.29 90.5605C118.144 90.5605 118.026 90.6786 118.026 90.8242C118.026 90.9698 118.144 91.0879 118.29 91.0879C118.436 91.0879 118.554 90.9698 118.554 90.8242C118.554 90.6786 118.436 90.5605 118.29 90.5605Z" fill="white"/>
<path d="M118.29 90.6894C118.215 90.6894 118.155 90.7498 118.155 90.8242C118.155 90.8986 118.215 90.959 118.29 90.959C118.364 90.959 118.425 90.8986 118.425 90.8242C118.425 90.7498 118.364 90.6894 118.29 90.6894Z" fill="white"/>
<path opacity="0.2" d="M118.29 90.1854C117.937 90.1854 117.651 90.4714 117.651 90.8241C117.651 91.1769 117.937 91.4629 118.29 91.4629C118.643 91.4629 118.929 91.1769 118.929 90.8242C118.929 90.4714 118.643 90.1854 118.29 90.1854Z" fill="white"/>
<path opacity="0.2" d="M119.808 96.9478C119.636 96.9478 119.497 97.0869 119.497 97.2584C119.497 97.4299 119.636 97.569 119.808 97.569C119.979 97.569 120.118 97.4299 120.118 97.2584C120.118 97.0869 119.979 96.9478 119.808 96.9478Z" fill="white"/>
<path opacity="0.4" d="M119.808 97.0181C119.675 97.0181 119.567 97.1257 119.567 97.2584C119.567 97.3911 119.675 97.4987 119.808 97.4987C119.94 97.4987 120.048 97.3911 120.048 97.2584C120.048 97.1257 119.94 97.0181 119.808 97.0181Z" fill="white"/>
<path opacity="0.7" d="M119.808 97.1003C119.72 97.1003 119.65 97.1712 119.65 97.2585C119.65 97.3459 119.72 97.4167 119.808 97.4167C119.895 97.4167 119.966 97.3459 119.966 97.2585C119.966 97.1712 119.895 97.1003 119.808 97.1003Z" fill="white"/>
<path d="M119.808 97.1763C119.762 97.1763 119.726 97.213 119.726 97.2583C119.726 97.3036 119.762 97.3403 119.808 97.3403C119.853 97.3403 119.89 97.3036 119.89 97.2583C119.89 97.213 119.853 97.1763 119.808 97.1763Z" fill="white"/>
<path opacity="0.2" d="M119.808 96.8776C119.597 96.8776 119.427 97.0481 119.427 97.2585C119.427 97.4689 119.597 97.6394 119.808 97.6394C120.018 97.6394 120.189 97.4689 120.189 97.2585C120.189 97.0481 120.018 96.8776 119.808 96.8776Z" fill="white"/>
<path opacity="0.2" d="M118.864 100.183C118.744 100.183 118.647 100.28 118.647 100.399C118.647 100.519 118.744 100.616 118.864 100.616C118.984 100.616 119.081 100.519 119.081 100.399C119.081 100.28 118.984 100.183 118.864 100.183Z" fill="white"/>
<path opacity="0.4" d="M118.864 100.235C118.774 100.235 118.7 100.309 118.7 100.399C118.7 100.49 118.774 100.563 118.864 100.563C118.955 100.563 119.028 100.49 119.028 100.399C119.028 100.309 118.955 100.235 118.864 100.235Z" fill="white"/>
<path opacity="0.7" d="M118.864 100.294C118.806 100.294 118.759 100.341 118.759 100.399C118.759 100.458 118.806 100.505 118.864 100.505C118.923 100.505 118.97 100.458 118.97 100.399C118.97 100.341 118.923 100.294 118.864 100.294Z" fill="white"/>
<path d="M118.864 100.347C118.835 100.347 118.812 100.37 118.812 100.399C118.812 100.428 118.835 100.452 118.864 100.452C118.893 100.452 118.917 100.428 118.917 100.399C118.917 100.37 118.893 100.347 118.864 100.347Z" fill="white"/>
<path opacity="0.2" d="M118.864 100.136C118.719 100.136 118.601 100.254 118.601 100.399C118.601 100.545 118.719 100.663 118.864 100.663C119.01 100.663 119.128 100.545 119.128 100.399C119.128 100.254 119.01 100.136 118.864 100.136Z" fill="white"/>
<path opacity="0.2" d="M117.739 104.929C117.584 104.929 117.458 105.055 117.458 105.21C117.458 105.366 117.584 105.492 117.739 105.492C117.894 105.492 118.02 105.366 118.02 105.21C118.02 105.055 117.894 104.929 117.739 104.929Z" fill="white"/>
<path opacity="0.4" d="M117.739 104.994C117.619 104.994 117.522 105.091 117.522 105.211C117.522 105.33 117.619 105.427 117.739 105.427C117.859 105.427 117.956 105.33 117.956 105.211C117.956 105.091 117.859 104.994 117.739 104.994Z" fill="white"/>
<path opacity="0.7" d="M117.739 105.07C117.662 105.07 117.599 105.133 117.599 105.21C117.599 105.288 117.662 105.351 117.739 105.351C117.817 105.351 117.88 105.288 117.88 105.21C117.88 105.133 117.817 105.07 117.739 105.07Z" fill="white"/>
<path d="M117.739 105.14C117.7 105.14 117.669 105.172 117.669 105.211C117.669 105.249 117.7 105.281 117.739 105.281C117.778 105.281 117.809 105.249 117.809 105.211C117.809 105.172 117.778 105.14 117.739 105.14Z" fill="white"/>
<path opacity="0.2" d="M117.739 104.865C117.548 104.865 117.393 105.019 117.393 105.21C117.393 105.401 117.548 105.556 117.739 105.556C117.93 105.556 118.085 105.401 118.085 105.21C118.085 105.019 117.93 104.865 117.739 104.865Z" fill="white"/>
<path opacity="0.2" d="M110.432 107.408C110.147 107.408 109.916 107.639 109.916 107.924C109.916 108.208 110.147 108.439 110.432 108.439C110.717 108.439 110.947 108.208 110.947 107.924C110.947 107.639 110.717 107.408 110.432 107.408Z" fill="white"/>
<path opacity="0.4" d="M110.432 107.531C110.215 107.531 110.039 107.707 110.039 107.924C110.039 108.14 110.215 108.316 110.432 108.316C110.649 108.316 110.824 108.14 110.824 107.924C110.824 107.707 110.649 107.531 110.432 107.531Z" fill="white"/>
<path opacity="0.7" d="M110.432 107.666C110.289 107.666 110.174 107.781 110.174 107.924C110.174 108.066 110.289 108.181 110.432 108.181C110.574 108.181 110.69 108.066 110.69 107.924C110.69 107.781 110.574 107.666 110.432 107.666Z" fill="white"/>
<path d="M110.432 107.789C110.357 107.789 110.297 107.849 110.297 107.924C110.297 107.998 110.357 108.058 110.432 108.058C110.506 108.058 110.567 107.998 110.567 107.924C110.567 107.849 110.506 107.789 110.432 107.789Z" fill="white"/>
<path opacity="0.2" d="M110.432 107.297C110.085 107.297 109.805 107.577 109.805 107.924C109.805 108.27 110.085 108.551 110.432 108.551C110.778 108.551 111.059 108.27 111.059 107.924C111.059 107.577 110.778 107.297 110.432 107.297Z" fill="white"/>
<path opacity="0.1" d="M250.152 148.68C249.126 148.68 248.294 149.512 248.294 150.538C248.294 151.563 249.126 152.395 250.152 152.395C251.178 152.395 252.009 151.563 252.009 150.538C252.009 149.512 251.178 148.68 250.152 148.68Z" fill="white"/>
<path opacity="0.1" d="M242.704 138.349C241.196 138.349 239.973 139.571 239.973 141.08C239.973 142.588 241.196 143.81 242.704 143.81C244.212 143.81 245.434 142.588 245.434 141.08C245.434 139.571 244.212 138.349 242.704 138.349Z" fill="white"/>
<path opacity="0.1" d="M235.414 125.931C233.935 125.931 232.736 127.13 232.736 128.609C232.736 130.088 233.935 131.287 235.414 131.287C236.893 131.287 238.092 130.088 238.092 128.609C238.092 127.13 236.893 125.931 235.414 125.931Z" fill="white"/>
<path opacity="0.1" d="M228.886 120.441C227.976 120.441 227.239 121.178 227.239 122.087C227.239 122.997 227.976 123.734 228.886 123.734C229.795 123.734 230.532 122.997 230.532 122.087C230.532 121.178 229.795 120.441 228.886 120.441Z" fill="white"/>
<path opacity="0.1" d="M220.371 120.364C219.3 120.364 218.432 121.233 218.432 122.304C218.432 123.375 219.3 124.244 220.371 124.244C221.442 124.244 222.311 123.375 222.311 122.304C222.311 121.233 221.442 120.364 220.371 120.364Z" fill="white"/>
<path opacity="0.1" d="M209.454 114.58C208.308 114.58 207.38 115.509 207.38 116.655C207.38 117.801 208.308 118.729 209.454 118.729C210.6 118.729 211.529 117.801 211.529 116.655C211.529 115.509 210.6 114.58 209.454 114.58Z" fill="white"/>
<path opacity="0.1" d="M203.155 111.07C202.216 111.07 201.455 111.831 201.455 112.77C201.455 113.708 202.216 114.469 203.155 114.469C204.093 114.469 204.854 113.708 204.854 112.77C204.854 111.831 204.093 111.07 203.155 111.07Z" fill="white"/>
<path opacity="0.1" d="M194.189 112.125C193.011 112.125 192.056 113.08 192.056 114.258C192.056 115.436 193.011 116.391 194.189 116.391C195.367 116.391 196.322 115.436 196.322 114.258C196.322 113.08 195.367 112.125 194.189 112.125Z" fill="white"/>
<path opacity="0.1" d="M179.978 107.988C178.363 107.988 177.054 109.297 177.054 110.912C177.054 112.527 178.363 113.836 179.978 113.836C181.593 113.836 182.902 112.527 182.902 110.912C182.902 109.297 181.593 107.988 179.978 107.988Z" fill="white"/>
<path opacity="0.1" d="M171.78 112.711C170.259 112.711 169.026 113.945 169.026 115.466C169.026 116.987 170.259 118.22 171.78 118.22C173.301 118.22 174.534 116.987 174.534 115.466C174.534 113.945 173.301 112.711 171.78 112.711Z" fill="white"/>
<path opacity="0.1" d="M162.082 106.007C161.363 106.007 160.781 106.59 160.781 107.308C160.781 108.027 161.363 108.609 162.082 108.609C162.8 108.609 163.383 108.027 163.383 107.308C163.383 106.59 162.8 106.007 162.082 106.007Z" fill="white"/>
<path opacity="0.1" d="M147.309 103.787C145.81 103.787 144.595 105.001 144.595 106.5C144.595 107.998 145.81 109.213 147.309 109.213C148.807 109.213 150.022 107.998 150.022 106.5C150.022 105.001 148.807 103.787 147.309 103.787Z" fill="white"/>
<path opacity="0.1" d="M140.265 103.611C139.404 103.611 138.706 104.309 138.706 105.169C138.706 106.03 139.404 106.728 140.265 106.728C141.126 106.728 141.824 106.03 141.824 105.169C141.824 104.309 141.126 103.611 140.265 103.611Z" fill="white"/>
<path opacity="0.1" d="M129.148 110.151C127.553 110.151 126.259 111.444 126.259 113.039C126.259 114.635 127.553 115.928 129.148 115.928C130.744 115.928 132.037 114.635 132.037 113.039C132.037 111.444 130.744 110.151 129.148 110.151Z" fill="white"/>
<path opacity="0.1" d="M121.835 105.322C120.991 105.322 120.306 106.007 120.306 106.851C120.306 107.696 120.991 108.381 121.835 108.381C122.68 108.381 123.365 107.696 123.365 106.851C123.365 106.007 122.68 105.322 121.835 105.322Z" fill="white"/>
<path opacity="0.1" d="M109.693 104.783C108.243 104.783 107.068 105.958 107.068 107.408C107.068 108.858 108.243 110.033 109.693 110.033C111.143 110.033 112.319 108.858 112.319 107.408C112.319 105.958 111.143 104.783 109.693 104.783Z" fill="white"/>
<path opacity="0.1" d="M105.562 116.057C104.2 116.057 103.095 117.162 103.095 118.525C103.095 119.887 104.2 120.992 105.562 120.992C106.925 120.992 108.029 119.887 108.029 118.525C108.029 117.162 106.925 116.057 105.562 116.057Z" fill="white"/>
<path opacity="0.1" d="M89.3708 108.351C87.9371 108.351 86.7748 109.513 86.7748 110.947C86.7748 112.381 87.9371 113.543 89.3708 113.543C90.8045 113.543 91.9668 112.381 91.9668 110.947C91.9668 109.513 90.8045 108.351 89.3708 108.351Z" fill="white"/>
<path opacity="0.1" d="M84.6474 115.038C83.3302 115.038 82.2624 116.106 82.2624 117.423C82.2624 118.74 83.3302 119.808 84.6474 119.808C85.9646 119.808 87.0324 118.74 87.0324 117.423C87.0324 116.106 85.9646 115.038 84.6474 115.038Z" fill="white"/>
<path opacity="0.1" d="M78.0432 122.497C76.9493 122.497 76.0625 123.384 76.0625 124.478C76.0625 125.572 76.9493 126.459 78.0432 126.459C79.1371 126.459 80.0239 125.572 80.0239 124.478C80.0239 123.384 79.1371 122.497 78.0432 122.497Z" fill="white"/>
<path opacity="0.1" d="M65.8431 122.925C65.2088 122.925 64.6946 123.439 64.6946 124.074C64.6946 124.708 65.2088 125.222 65.8431 125.222C66.4775 125.222 66.9917 124.708 66.9917 124.074C66.9917 123.439 66.4775 122.925 65.8431 122.925Z" fill="white"/>
<path opacity="0.1" d="M58.2423 132.313C57.4462 132.313 56.8007 132.958 56.8007 133.754C56.8007 134.551 57.4462 135.196 58.2423 135.196C59.0385 135.196 59.6839 134.551 59.6839 133.754C59.6839 132.958 59.0385 132.313 58.2423 132.313Z" fill="white"/>
<path opacity="0.1" d="M48.7082 135.214C48.0836 135.214 47.5772 135.72 47.5772 136.345C47.5772 136.969 48.0836 137.476 48.7082 137.476C49.3328 137.476 49.8392 136.969 49.8392 136.345C49.8392 135.72 49.3328 135.214 48.7082 135.214Z" fill="white"/>
<path opacity="0.1" d="M48.6031 140.318C47.3085 140.318 46.2591 141.367 46.2591 142.662C46.2591 143.956 47.3085 145.006 48.6031 145.006C49.8976 145.006 50.9471 143.956 50.9471 142.662C50.9471 141.367 49.8976 140.318 48.6031 140.318Z" fill="white"/>
<path opacity="0.1" d="M38.2602 147.807C36.7811 147.807 35.5821 149.006 35.5821 150.485C35.5821 151.964 36.7811 153.163 38.2602 153.163C39.7392 153.163 40.9382 151.964 40.9382 150.485C40.9382 149.006 39.7392 147.807 38.2602 147.807Z" fill="white"/>
</svg>
