<svg width="359" height="180" fill="none" xmlns="http://www.w3.org/2000/svg"><path d="M-29.82 151.615l13.653-3.925 13.706-3.85 27.428-7.683 54.861-15.161a13761.51 13761.51 0 01109.903-29.815l55.018-14.658c18.359-4.825 36.686-9.73 55.067-14.472l55.127-14.316 27.59-7.038 13.795-3.518 13.805-3.46-13.705 3.938-13.687 3.818-27.409 7.694-54.887 15.145c-18.273 5.085-36.614 10-54.915 14.981L190.554 94.11a29545.256 29545.256 0 01-110.082 29.125L25.354 137.58l-27.587 7.048-13.791 3.512-13.796 3.475z" fill="url(#prefix__paint0_linear_2440_18116)"/><path d="M213.037 28.546c29.744-9.525 62.26 9.117 70.078 39.224 8.302 29.95-10.532 62.39-41.062 68.982a58.24 58.24 0 0019.144-10.25c45.816-38.803 10.412-110.108-48.16-97.956z" fill="#fff"/><path d="M242.036 136.74c-29.756 9.545-62.261-9.117-70.062-39.206-8.303-29.95 10.531-62.39 41.065-68.989a58.26 58.26 0 00-19.173 10.241c-45.833 38.786-10.44 110.066 48.143 97.939l.027.015z" fill="#fff"/><path d="M180.507 139.95c-23.037 7.661-48.275-6.806-54.355-30.138-6.411-23.243 8.224-48.41 32.003-53.277a45.462 45.462 0 00-14.654 8.041c-34.888 29.934-7.877 84.191 37.006 75.374z" fill="#fff"/><path d="M158.154 56.533c23.029-7.664 48.274 6.806 54.347 30.134 6.412 23.243-8.217 48.415-31.996 53.282a45.609 45.609 0 0014.654-8.042c34.914-29.918 7.862-84.164-37.005-75.374z" fill="#fff"/><path opacity=".2" d="M359.719 57.733a1.57 1.57 0 101.57-2.72 1.57 1.57 0 00-1.57 2.72z" fill="#fff"/><path opacity=".4" d="M359.903 57.404a1.191 1.191 0 101.191-2.063 1.191 1.191 0 00-1.191 2.063z" fill="#fff"/><path opacity=".2" d="M359.549 58.028a1.911 1.911 0 101.911-3.31 1.911 1.911 0 00-1.911 3.31zM347.757 52.93a.82.82 0 00.82-1.419.819.819 0 00-.82 1.42z" fill="#fff"/><path opacity=".4" d="M347.855 52.752a.615.615 0 10.615-1.065.615.615 0 00-.615 1.065z" fill="#fff"/><path opacity=".7" d="M347.962 52.57a.402.402 0 10.402-.697.402.402 0 00-.402.696z" fill="#fff"/><path d="M348.057 52.406a.213.213 0 00.291-.078.212.212 0 10-.291.078z" fill="#fff"/><path opacity=".2" d="M347.672 53.081a.993.993 0 10.993-1.72.993.993 0 00-.993 1.72zM334.96 49.914a1.403 1.403 0 101.404-2.43 1.403 1.403 0 00-1.404 2.43z" fill="#fff"/><path opacity=".4" d="M335.131 49.617a1.062 1.062 0 101.062-1.84 1.062 1.062 0 00-1.062 1.84z" fill="#fff"/><path opacity=".7" d="M335.313 49.302a.697.697 0 10.698-1.208.697.697 0 00-.698 1.208z" fill="#fff"/><path d="M335.483 49.007a.357.357 0 10.358-.617.357.357 0 00-.358.617z" fill="#fff"/><path opacity=".2" d="M334.811 50.17a1.7 1.7 0 101.7-2.946 1.7 1.7 0 00-1.7 2.946zM327.617 65.651a1.343 1.343 0 101.342-2.326 1.343 1.343 0 00-1.342 2.326z" fill="#fff"/><path opacity=".4" d="M327.778 65.37a1.016 1.016 0 101.016-1.759 1.016 1.016 0 00-1.016 1.76z" fill="#fff"/><path opacity=".7" d="M327.95 65.068a.667.667 0 10.667-1.154.667.667 0 00-.667 1.154z" fill="#fff"/><path d="M328.118 64.785a.342.342 0 00.342-.59.342.342 0 00-.342.59z" fill="#fff"/><path opacity=".2" d="M327.469 65.902a1.631 1.631 0 101.63-2.826 1.631 1.631 0 00-1.63 2.826zM315.127 61.273a.804.804 0 10.804-1.392.804.804 0 00-.804 1.392z" fill="#fff"/><path opacity=".4" d="M315.222 61.11a.615.615 0 10.615-1.066.615.615 0 00-.615 1.066z" fill="#fff"/><path opacity=".7" d="M315.329 60.925a.402.402 0 10.402-.697.402.402 0 00-.402.697z" fill="#fff"/><path d="M315.426 60.754a.204.204 0 10.204-.355.204.204 0 00-.204.355z" fill="#fff"/><path opacity=".2" d="M315.041 61.424a.978.978 0 10.978-1.693.978.978 0 00-.978 1.693zM306.229 74.205a1.677 1.677 0 101.676-2.904 1.677 1.677 0 00-1.676 2.904z" fill="#fff"/><path opacity=".4" d="M306.432 73.849a1.266 1.266 0 101.267-2.193 1.266 1.266 0 00-1.267 2.193z" fill="#fff"/><path opacity=".7" d="M306.646 73.474a.835.835 0 10.834-1.446.835.835 0 00-.834 1.446z" fill="#fff"/><path d="M306.848 73.125a.433.433 0 10.433-.75.433.433 0 00-.433.75z" fill="#fff"/><path opacity=".2" d="M306.048 74.512a2.033 2.033 0 102.033-3.52 2.033 2.033 0 00-2.033 3.52zM292.867 66.998a1.692 1.692 0 101.692-2.93 1.692 1.692 0 00-1.692 2.93z" fill="#fff"/><path opacity=".4" d="M293.07 66.645a1.283 1.283 0 101.283-2.222 1.283 1.283 0 00-1.283 2.222z" fill="#fff"/><path opacity=".7" d="M293.294 66.257a.834.834 0 10.835-1.445.834.834 0 00-.835 1.445z" fill="#fff"/><path d="M293.497 65.908a.431.431 0 10.432-.747.431.431 0 00-.432.747z" fill="#fff"/><path opacity=".2" d="M292.694 67.308a2.048 2.048 0 102.048-3.548 2.048 2.048 0 00-2.048 3.548zM279.957 59.59a1.078 1.078 0 101.077-1.868 1.078 1.078 0 00-1.077 1.868z" fill="#fff"/><path opacity=".4" d="M280.094 59.36a.812.812 0 10.812-1.405.812.812 0 00-.812 1.406z" fill="#fff"/><path opacity=".7" d="M280.234 59.117a.53.53 0 10.53-.92.53.53 0 00-.53.92z" fill="#fff"/><path d="M280.362 58.895a.273.273 0 10.273-.474.273.273 0 00-.273.474z" fill="#fff"/><path opacity=".2" d="M279.849 59.787a1.304 1.304 0 101.305-2.259 1.304 1.304 0 00-1.305 2.26zM274.266 81.984a1.282 1.282 0 101.282-2.22 1.282 1.282 0 00-1.282 2.22z" fill="#fff"/><path opacity=".4" d="M274.425 81.716a.97.97 0 10.97-1.68.97.97 0 00-.97 1.68z" fill="#fff"/><path opacity=".7" d="M274.587 81.426a.637.637 0 10.637-1.103.637.637 0 00-.637 1.103z" fill="#fff"/><path d="M274.745 81.158a.327.327 0 10.327-.566.327.327 0 00-.327.566z" fill="#fff"/><path opacity=".2" d="M274.128 82.22a1.555 1.555 0 101.555-2.693 1.555 1.555 0 00-1.555 2.694zM260.1 73.825a1.76 1.76 0 101.76-3.048 1.76 1.76 0 00-1.76 3.048z" fill="#fff"/><path opacity=".4" d="M260.313 73.457a1.335 1.335 0 101.335-2.313 1.335 1.335 0 00-1.335 2.313z" fill="#fff"/><path opacity=".7" d="M260.547 73.056a.873.873 0 10.872-1.512.873.873 0 00-.872 1.513z" fill="#fff"/><path d="M260.76 72.688a.448.448 0 10.448-.777.448.448 0 00-.448.777z" fill="#fff"/><path opacity=".2" d="M259.917 74.154a2.14 2.14 0 102.139-3.706 2.14 2.14 0 00-2.139 3.706zM250.575 83.79a1.95 1.95 0 101.95-3.376 1.95 1.95 0 00-1.95 3.377z" fill="#fff"/><path opacity=".4" d="M250.81 83.384a1.479 1.479 0 101.479-2.561 1.479 1.479 0 00-1.479 2.56z" fill="#fff"/><path opacity=".7" d="M251.065 82.943a.972.972 0 10.971-1.684.972.972 0 00-.971 1.684z" fill="#fff"/><path d="M251.3 82.535a.5.5 0 10.5-.866.5.5 0 00-.5.866z" fill="#fff"/><path opacity=".2" d="M250.363 84.152a2.367 2.367 0 102.367-4.1 2.367 2.367 0 00-2.367 4.1zM240.318 87.848a1.123 1.123 0 101.123-1.946 1.123 1.123 0 00-1.123 1.946z" fill="#fff"/><path opacity=".4" d="M240.456 87.613a.85.85 0 10.85-1.472.85.85 0 00-.85 1.472z" fill="#fff"/><path opacity=".7" d="M240.606 87.355a.553.553 0 10.553-.958.553.553 0 00-.553.958z" fill="#fff"/><path d="M240.735 87.126a.289.289 0 10.288-.5.289.289 0 00-.288.5z" fill="#fff"/><path opacity=".2" d="M240.201 88.052a1.358 1.358 0 101.358-2.352 1.358 1.358 0 00-1.358 2.352zM229.564 91.159a1.388 1.388 0 101.388-2.404 1.388 1.388 0 00-1.388 2.404z" fill="#fff"/><path opacity=".4" d="M229.735 90.864a1.047 1.047 0 101.047-1.814 1.047 1.047 0 00-1.047 1.814z" fill="#fff"/><path opacity=".7" d="M229.915 90.554a.69.69 0 10.69-1.195.69.69 0 00-.69 1.195z" fill="#fff"/><path d="M230.077 90.264a.356.356 0 10.357-.616.356.356 0 00-.357.617z" fill="#fff"/><path opacity=".2" d="M229.415 91.415a1.684 1.684 0 101.684-2.916 1.684 1.684 0 00-1.684 2.916zM215.874 83.703a.94.94 0 10.94-1.63.94.94 0 00-.94 1.63z" fill="#fff"/><path opacity=".4" d="M215.99 83.506a.713.713 0 10.713-1.235.713.713 0 00-.713 1.235z" fill="#fff"/><path opacity=".7" d="M216.118 83.289a.463.463 0 10.463-.802.463.463 0 00-.463.802z" fill="#fff"/><path d="M216.225 83.098a.243.243 0 10.243-.42.243.243 0 00-.243.42z" fill="#fff"/><path opacity=".2" d="M215.777 83.874a1.139 1.139 0 101.138-1.973 1.139 1.139 0 00-1.138 1.973zM205.246 88.285a1.427 1.427 0 101.427-2.472 1.427 1.427 0 00-1.427 2.472z" fill="#fff"/><path opacity=".4" d="M205.418 87.982a1.078 1.078 0 101.077-1.867 1.078 1.078 0 00-1.077 1.867z" fill="#fff"/><path opacity=".7" d="M205.601 87.66a.705.705 0 10.705-1.22.705.705 0 00-.705 1.22z" fill="#fff"/><path d="M205.772 87.365a.364.364 0 10.364-.63.364.364 0 00-.364.63z" fill="#fff"/><path opacity=".2" d="M205.089 88.548a1.729 1.729 0 101.73-2.994 1.729 1.729 0 00-1.73 2.994zM197.256 100.711a.827.827 0 10.827-1.433.827.827 0 00-.827 1.433z" fill="#fff"/><path opacity=".4" d="M197.353 100.538a.63.63 0 10.63-1.09.63.63 0 00-.63 1.09z" fill="#fff"/><path opacity=".7" d="M197.461 100.348a.409.409 0 10.41-.708.409.409 0 00-.41.708z" fill="#fff"/><path d="M197.565 100.177a.212.212 0 10.213-.369.212.212 0 00-.213.369z" fill="#fff"/><path opacity=".2" d="M197.171 100.862a1.001 1.001 0 101-1.734 1.001 1.001 0 00-1 1.734zM183.289 93.679a1.866 1.866 0 101.866-3.232 1.866 1.866 0 00-1.866 3.232z" fill="#fff"/><path opacity=".4" d="M183.514 93.286a1.41 1.41 0 101.41-2.442 1.41 1.41 0 00-1.41 2.442z" fill="#fff"/><path opacity=".7" d="M183.759 92.865a.925.925 0 10.925-1.604.925.925 0 00-.925 1.604z" fill="#fff"/><path d="M183.983 92.477a.478.478 0 10.478-.829.478.478 0 00-.478.829z" fill="#fff"/><path opacity=".2" d="M183.088 94.02a2.26 2.26 0 102.26-3.916 2.26 2.26 0 00-2.26 3.916zM173.567 98.233a1.25 1.25 0 101.251-2.166 1.25 1.25 0 00-1.251 2.166z" fill="#fff"/><path opacity=".4" d="M173.717 97.972a.948.948 0 10.948-1.642.948.948 0 00-.948 1.642z" fill="#fff"/><path opacity=".7" d="M173.878 97.69a.621.621 0 10.622-1.077.621.621 0 00-.622 1.076z" fill="#fff"/><path d="M174.028 97.426a.319.319 0 10.318-.552.319.319 0 00-.318.552z" fill="#fff"/><path opacity=".2" d="M173.43 98.464a1.517 1.517 0 101.517-2.626 1.517 1.517 0 00-1.517 2.626zM161.06 94.36a1.358 1.358 0 101.358-2.35 1.358 1.358 0 00-1.358 2.35z" fill="#fff"/><path opacity=".4" d="M161.221 94.078a1.031 1.031 0 101.032-1.785 1.031 1.031 0 00-1.032 1.785z" fill="#fff"/><path opacity=".7" d="M161.402 93.769a.675.675 0 10.675-1.169.675.675 0 00-.675 1.169z" fill="#fff"/><path d="M161.563 93.486a.348.348 0 10.349-.603.348.348 0 00-.349.603z" fill="#fff"/><path opacity=".2" d="M160.912 94.61a1.647 1.647 0 101.646-2.852 1.647 1.647 0 00-1.646 2.852zM151.64 102.964a1.115 1.115 0 101.114-1.933 1.115 1.115 0 00-1.114 1.933z" fill="#fff"/><path opacity=".4" d="M151.778 102.727a.841.841 0 10.843-1.456.841.841 0 00-.843 1.456z" fill="#fff"/><path opacity=".7" d="M151.918 102.478a.553.553 0 10.554-.958.553.553 0 00-.554.958z" fill="#fff"/><path d="M152.055 102.249a.288.288 0 10.29-.499.288.288 0 00-.29.499z" fill="#fff"/><path opacity=".2" d="M151.522 103.168a1.35 1.35 0 101.351-2.339 1.35 1.35 0 00-1.351 2.339zM140.166 104.363a1.676 1.676 0 101.676-2.903 1.676 1.676 0 00-1.676 2.903z" fill="#fff"/><path opacity=".4" d="M140.368 104.014a1.275 1.275 0 101.275-2.208 1.275 1.275 0 00-1.275 2.208z" fill="#fff"/><path opacity=".7" d="M140.584 103.632a.834.834 0 10.834-1.444.834.834 0 00-.834 1.444z" fill="#fff"/><path d="M140.786 103.285a.432.432 0 10.432-.75.432.432 0 00-.432.75z" fill="#fff"/><path opacity=".2" d="M139.984 104.678a2.042 2.042 0 102.04-3.537 2.042 2.042 0 00-2.04 3.537zM128.535 101.986a.903.903 0 10.902-1.564.903.903 0 00-.902 1.564z" fill="#fff"/><path opacity=".4" d="M128.651 101.795a.681.681 0 10.682-1.182.681.681 0 10-.682 1.182z" fill="#fff"/><path opacity=".7" d="M128.768 101.591a.448.448 0 10.448-.775.448.448 0 00-.448.775z" fill="#fff"/><path d="M128.876 101.401a.229.229 0 00.311-.084.229.229 0 00-.084-.311.229.229 0 00-.311.084.229.229 0 00.084.311z" fill="#fff"/><path opacity=".2" d="M128.447 102.149a1.093 1.093 0 101.093-1.892 1.093 1.093 0 00-1.093 1.892zM121.438 120.485a1.685 1.685 0 101.685-2.918 1.685 1.685 0 00-1.685 2.918z" fill="#fff"/><path opacity=".4" d="M121.642 120.132a1.275 1.275 0 101.274-2.21 1.275 1.275 0 00-1.274 2.21z" fill="#fff"/><path opacity=".7" d="M121.865 119.749a.834.834 0 10.835-1.444.834.834 0 00-.835 1.444z" fill="#fff"/><path d="M122.067 119.403a.433.433 0 10.432-.751.433.433 0 00-.432.751z" fill="#fff"/><path opacity=".2" d="M121.257 120.8a2.048 2.048 0 102.048-3.547 2.048 2.048 0 00-2.048 3.547zM111.312 125.287a1.69 1.69 0 101.693-2.928 1.69 1.69 0 00-1.693 2.928z" fill="#fff"/><path opacity=".4" d="M111.516 124.934a1.281 1.281 0 101.282-2.22 1.281 1.281 0 00-1.282 2.22z" fill="#fff"/><path opacity=".7" d="M111.731 124.551a.84.84 0 10.842-1.458.84.84 0 10-.842 1.458z" fill="#fff"/><path d="M111.942 124.198a.433.433 0 10.432-.751.433.433 0 00-.432.751z" fill="#fff"/><path opacity=".2" d="M111.131 125.604a2.055 2.055 0 102.056-3.56 2.055 2.055 0 00-2.056 3.56zM96.609 112.507a1.751 1.751 0 101.752-3.033 1.751 1.751 0 00-1.752 3.033z" fill="#fff"/><path opacity=".4" d="M96.822 112.139a1.328 1.328 0 101.327-2.3 1.328 1.328 0 00-1.327 2.3z" fill="#fff"/><path opacity=".7" d="M97.047 111.746a.872.872 0 10.873-1.51.872.872 0 00-.873 1.51z" fill="#fff"/><path d="M97.26 111.378a.448.448 0 10.447-.777.448.448 0 00-.447.777z" fill="#fff"/><path opacity=".2" d="M96.419 112.829a2.125 2.125 0 102.123-3.68 2.125 2.125 0 00-2.123 3.68zM89.933 128.546a1.138 1.138 0 101.137-1.972 1.138 1.138 0 00-1.136 1.972z" fill="#fff"/><path opacity=".4" d="M90.072 128.309a.865.865 0 10.865-1.498.865.865 0 00-.865 1.498z" fill="#fff"/><path opacity=".7" d="M90.222 128.046a.561.561 0 10.56-.972.561.561 0 00-.56.972z" fill="#fff"/><path d="M90.36 127.809a.288.288 0 10.289-.497.288.288 0 00-.29.497z" fill="#fff"/><path opacity=".2" d="M89.807 128.755a1.38 1.38 0 101.381-2.39 1.38 1.38 0 00-1.38 2.39zM77.99 125.249a1.07 1.07 0 101.069-1.853 1.07 1.07 0 00-1.07 1.853z" fill="#fff"/><path opacity=".4" d="M78.118 125.025a.811.811 0 10.81-1.406.811.811 0 00-.81 1.406z" fill="#fff"/><path opacity=".7" d="M78.257 124.783a.532.532 0 10.53-.922.532.532 0 00-.53.922z" fill="#fff"/><path d="M78.385 124.559a.273.273 0 10.274-.473.273.273 0 00-.274.473z" fill="#fff"/><path opacity=".2" d="M77.872 125.451a1.304 1.304 0 101.306-2.258 1.304 1.304 0 00-1.306 2.258zM67.942 132.177a1.016 1.016 0 101.017-1.76 1.016 1.016 0 00-1.017 1.76z" fill="#fff"/><path opacity=".4" d="M68.07 131.96a.766.766 0 10.766-1.326.766.766 0 00-.767 1.326z" fill="#fff"/><path opacity=".7" d="M68.199 131.731a.501.501 0 10.5-.869.501.501 0 00-.5.869z" fill="#fff"/><path d="M68.325 131.519a.258.258 0 10.258-.447.258.258 0 00-.258.447z" fill="#fff"/><path opacity=".2" d="M67.835 132.36a1.229 1.229 0 101.229-2.129 1.229 1.229 0 00-1.229 2.129zM53.34 124.2a1.775 1.775 0 101.776-3.074 1.775 1.775 0 00-1.776 3.074z" fill="#fff"/><path opacity=".4" d="M53.553 123.832a1.35 1.35 0 101.351-2.337 1.35 1.35 0 00-1.35 2.337z" fill="#fff"/><path opacity=".7" d="M53.788 123.425a.88.88 0 10.88-1.524.88.88 0 00-.88 1.524z" fill="#fff"/><path d="M54.002 123.057a.455.455 0 10.455-.788.455.455 0 00-.456.788z" fill="#fff"/><path opacity=".2" d="M53.149 124.529a2.154 2.154 0 102.155-3.731 2.154 2.154 0 00-2.155 3.731zM43.507 127.423a1.176 1.176 0 101.176-2.036 1.176 1.176 0 00-1.176 2.036z" fill="#fff"/><path opacity=".4" d="M43.654 127.174a.887.887 0 10.888-1.536.887.887 0 00-.888 1.536z" fill="#fff"/><path opacity=".7" d="M43.805 126.911a.584.584 0 10.584-1.01.584.584 0 00-.584 1.01z" fill="#fff"/><path d="M43.944 126.669a.302.302 0 10.303-.525.303.303 0 10-.303.525z" fill="#fff"/><path opacity=".2" d="M43.38 127.64a1.426 1.426 0 101.425-2.47 1.426 1.426 0 00-1.426 2.47zM31.468 124.802a1.176 1.176 0 101.176-2.036 1.176 1.176 0 00-1.176 2.036z" fill="#fff"/><path opacity=".4" d="M31.616 124.551a.887.887 0 10.887-1.536.887.887 0 00-.887 1.536z" fill="#fff"/><path opacity=".7" d="M31.765 124.29a.584.584 0 10.585-1.011.584.584 0 00-.585 1.011z" fill="#fff"/><path d="M31.905 124.046a.303.303 0 10.303-.525.303.303 0 00-.303.525z" fill="#fff"/><path opacity=".2" d="M31.348 125.019a1.426 1.426 0 101.426-2.47 1.426 1.426 0 00-1.426 2.47zM25.056 144.413a1.388 1.388 0 101.388-2.405 1.388 1.388 0 00-1.388 2.405z" fill="#fff"/><path opacity=".4" d="M25.218 144.125a1.055 1.055 0 101.054-1.828 1.055 1.055 0 00-1.054 1.828z" fill="#fff"/><path opacity=".7" d="M25.4 143.808a.69.69 0 10.69-1.194.69.69 0 00-.69 1.194z" fill="#fff"/><path d="M25.57 143.52a.356.356 0 10.356-.617.356.356 0 00-.357.617z" fill="#fff"/><path opacity=".2" d="M24.898 144.676a1.692 1.692 0 101.692-2.93 1.692 1.692 0 00-1.692 2.93zM9.723 131.235a1.774 1.774 0 101.776-3.072 1.774 1.774 0 00-1.776 3.072z" fill="#fff"/><path opacity=".4" d="M9.936 130.867a1.35 1.35 0 101.351-2.337 1.35 1.35 0 00-1.35 2.337z" fill="#fff"/><path opacity=".7" d="M10.171 130.46a.88.88 0 10.88-1.524.88.88 0 00-.88 1.524z" fill="#fff"/><path d="M10.384 130.092a.455.455 0 10.455-.788.455.455 0 00-.455.788z" fill="#fff"/><path opacity=".2" d="M9.532 131.562a2.154 2.154 0 102.154-3.731 2.154 2.154 0 00-2.154 3.731zM.288 137.682a1.465 1.465 0 101.464-2.537 1.465 1.465 0 00-1.464 2.537z" fill="#fff"/><path opacity=".4" d="M.469 137.374a1.107 1.107 0 101.108-1.917 1.107 1.107 0 00-1.108 1.917z" fill="#fff"/><path opacity=".7" d="M.66 137.045a.728.728 0 10.729-1.262.728.728 0 00-.729 1.262z" fill="#fff"/><path d="M.833 136.738a.372.372 0 10.371-.645.372.372 0 00-.371.645z" fill="#fff"/><path opacity=".2" d="M.128 137.959a1.782 1.782 0 101.784-3.087 1.782 1.782 0 00-1.784 3.087z" fill="#fff"/><path opacity=".1" d="M244.741 138.779a3.33 3.33 0 103.33-5.768 3.33 3.33 0 00-3.33 5.768zM257.976 133.473a3.505 3.505 0 103.503-6.072 3.505 3.505 0 00-3.503 6.072zM273.339 122.328a2.367 2.367 0 102.366-4.101 2.367 2.367 0 00-2.366 4.101zM280.212 104.632a1.57 1.57 0 101.569-2.719 1.57 1.57 0 00-1.569 2.719zM277.401 95.504a1.965 1.965 0 101.965-3.403 1.965 1.965 0 00-1.965 3.403zM279.117 82.252a2.45 2.45 0 102.45-4.244 2.45 2.45 0 00-2.45 4.244zM270.153 67.844a1.714 1.714 0 101.715-2.97 1.714 1.714 0 00-1.715 2.97zM267.228 59.393a2.26 2.26 0 102.26-3.915 2.26 2.26 0 00-2.26 3.915zM274.261 49.501a2.481 2.481 0 102.481-4.297 2.481 2.481 0 00-2.481 4.297zM260.739 41.501a1.774 1.774 0 101.775-3.072 1.774 1.774 0 00-1.775 3.072zM250.953 32.7a3.497 3.497 0 103.497-6.056 3.497 3.497 0 00-3.497 6.056zM242.616 32.09a2.692 2.692 0 102.693-4.664 2.694 2.694 0 00-2.693 4.665zM231.206 37.51a2.078 2.078 0 102.078-3.6 2.078 2.078 0 00-2.078 3.6zM211.369 30.492a2.73 2.73 0 102.73-4.73 2.73 2.73 0 00-2.73 4.73zM200.629 37.24a2.533 2.533 0 102.534-4.389 2.533 2.533 0 00-2.534 4.388zM192.166 45.55a1.911 1.911 0 101.911-3.31 1.911 1.911 0 00-1.911 3.31zM184.32 49.856a2.973 2.973 0 102.974-5.15 2.973 2.973 0 00-2.974 5.15zM168.625 62.902a3.323 3.323 0 103.323-5.756 3.323 3.323 0 00-3.323 5.756zM167.589 80.954a2.487 2.487 0 102.488-4.308 2.487 2.487 0 00-2.488 4.308zM164.669 89.965a3.11 3.11 0 103.11-5.388 3.11 3.11 0 00-3.11 5.388zM169.147 96.773a1.699 1.699 0 101.7-2.942 1.699 1.699 0 00-1.7 2.942zM170.939 111.005a3.194 3.194 0 103.194-5.53 3.194 3.194 0 00-3.194 5.53zM184.179 119.84a1.988 1.988 0 101.988-3.443 1.988 1.988 0 00-1.988 3.443zM189.197 130.307a2.382 2.382 0 102.38-4.127 2.382 2.382 0 00-2.38 4.127zM203.982 135.274a2.76 2.76 0 102.761-4.782 2.76 2.76 0 10-2.761 4.782zM209.952 135.363a3.215 3.215 0 004.393-1.178 3.216 3.216 0 10-4.393 1.178zM218.678 146.868a3.398 3.398 0 103.4-5.885 3.398 3.398 0 00-3.4 5.885zM230.505 141.779a3.581 3.581 0 103.58-6.203 3.581 3.581 0 00-3.58 6.203zM239.383 132.375a3.785 3.785 0 103.785-6.556 3.785 3.785 0 00-3.785 6.556z" fill="#fff"/><path opacity=".03" d="M153.572 61.126a1.635 1.635 0 00-1.809.119 1.624 1.624 0 00-.551.77 1.624 1.624 0 00.469 1.75 1.627 1.627 0 001.796.236 1.632 1.632 0 00.095-2.875zm1.433-2.483a4.496 4.496 0 011.129 6.866 4.5 4.5 0 01-7.266-5.233 4.505 4.505 0 016.145-1.646l-.008.013z" fill="#fff"/><path opacity=".03" d="M154.281 59.898a3.037 3.037 0 00-3.364.22 3.03 3.03 0 00-1.084 3.193 3.033 3.033 0 005.558.732 3.033 3.033 0 00-1.11-4.145zm.717-1.242a4.5 4.5 0 11-6.74 4.163 4.496 4.496 0 01.61-2.543 4.508 4.508 0 016.145-1.646l-.015.026zM132.819 60.922a1.471 1.471 0 10-1.458 2.556 1.471 1.471 0 001.458-2.556zm1.297-2.246a4.063 4.063 0 012.006 4.05 4.065 4.065 0 01-5.336 3.326 4.067 4.067 0 01.248-7.778 4.066 4.066 0 013.082.402z" fill="#fff"/><path opacity=".03" d="M133.468 59.799a2.771 2.771 0 00-4.007 1.508 2.767 2.767 0 00.797 2.971 2.766 2.766 0 004.223-.697 2.76 2.76 0 00-.201-3.07 2.787 2.787 0 00-.812-.712zm.648-1.123a4.063 4.063 0 012.006 4.05 4.065 4.065 0 01-5.336 3.326 4.067 4.067 0 01.248-7.778 4.066 4.066 0 013.082.402zM123.707 78.374a1.642 1.642 0 00-1.825.12 1.642 1.642 0 00-.588 1.732 1.65 1.65 0 001.376 1.206 1.644 1.644 0 001.804-2.058 1.643 1.643 0 00-.767-1zm1.446-2.503a4.553 4.553 0 01-1.098 8.338 4.55 4.55 0 111.098-8.338z" fill="#fff"/><path opacity=".03" d="M124.428 77.126a3.087 3.087 0 10-3.087 5.346 3.087 3.087 0 003.087-5.346zm.725-1.255a4.553 4.553 0 01-1.098 8.338 4.55 4.55 0 111.098-8.338zM134.344 112.476a1.516 1.516 0 10-1.517 2.626 1.516 1.516 0 001.517-2.626zm1.316-2.28a4.128 4.128 0 011.644 1.751 4.14 4.14 0 01-.595 4.558 4.133 4.133 0 01-4.441 1.189 4.133 4.133 0 01-2.245-5.987 4.124 4.124 0 015.637-1.511z" fill="#fff"/><path opacity=".03" d="M135.004 111.333a2.811 2.811 0 00-4.126 3.165 2.81 2.81 0 002.351 2.062 2.812 2.812 0 003.083-3.518 2.823 2.823 0 00-1.308-1.709zm.656-1.137a4.128 4.128 0 011.644 1.751 4.14 4.14 0 01-.595 4.558 4.133 4.133 0 01-4.441 1.189 4.133 4.133 0 01-2.245-5.987 4.124 4.124 0 015.637-1.511zM155.935 132.543a1.486 1.486 0 00-1.642.109 1.475 1.475 0 00-.525 1.559 1.476 1.476 0 002.088.937c.262-.131.479-.336.624-.591a1.47 1.47 0 00-.545-2.014zm1.297-2.246a4.064 4.064 0 01-.981 7.448 4.07 4.07 0 01-4.278-1.452 4.073 4.073 0 01-.295-4.508 4.068 4.068 0 015.554-1.488z" fill="#fff"/><path opacity=".03" d="M156.584 131.42a2.777 2.777 0 10-2.777 4.81 2.777 2.777 0 002.777-4.81zm.648-1.123a4.064 4.064 0 01-.981 7.448 4.07 4.07 0 01-4.278-1.452 4.073 4.073 0 01-.295-4.508 4.068 4.068 0 015.554-1.488zM180.891 137.108a1.524 1.524 0 00-1.683.111 1.514 1.514 0 00-.076 2.344c.225.198.504.324.802.363a1.519 1.519 0 00.957-2.818zm1.342-2.325a4.211 4.211 0 01-1.005 7.715 4.207 4.207 0 01-4.432-1.501 4.201 4.201 0 01-.862-2.288 4.208 4.208 0 016.299-3.926z" fill="#fff"/><path opacity=".03" d="M181.562 135.946a2.863 2.863 0 00-3.179.208 2.864 2.864 0 00-1.024 3.017 2.865 2.865 0 005.252.692 2.863 2.863 0 00-.206-3.181 2.845 2.845 0 00-.843-.736zm.671-1.163a4.211 4.211 0 01-1.005 7.715 4.207 4.207 0 01-4.432-1.501 4.201 4.201 0 01-.862-2.288 4.208 4.208 0 016.299-3.926zM196.557 123.72a1.475 1.475 0 00-1.631.107 1.471 1.471 0 101.631-.107zm1.294-2.24a4.062 4.062 0 011.022 6.191 4.056 4.056 0 01-7.101-2.411 4.047 4.047 0 01.535-2.294 4.07 4.07 0 015.544-1.486z" fill="#fff"/><path opacity=".03" d="M197.218 122.57a2.765 2.765 0 00-3.996 1.504 2.768 2.768 0 00.794 2.964 2.76 2.76 0 103.202-4.468zm.648-1.123a4.058 4.058 0 11-5.544 1.486 4.064 4.064 0 015.544-1.486zM220.937 96.384a1.57 1.57 0 10-1.57 2.72 1.57 1.57 0 001.57-2.72zm1.384-2.398a4.336 4.336 0 012.14 4.322 4.343 4.343 0 01-3.176 3.63 4.343 4.343 0 01-4.568-1.548 4.333 4.333 0 01-.316-4.812 4.34 4.34 0 015.92-1.592z" fill="#fff"/><path opacity=".03" d="M221.627 95.188a2.957 2.957 0 101.087 4.035 2.944 2.944 0 00.294-2.243 2.95 2.95 0 00-1.381-1.792zm.694-1.202a4.336 4.336 0 012.14 4.322 4.343 4.343 0 01-3.176 3.63 4.343 4.343 0 01-4.568-1.548 4.333 4.333 0 01-.316-4.812 4.34 4.34 0 015.92-1.592zM209.114 73.42a1.606 1.606 0 00-2.327.88 1.608 1.608 0 102.327-.88zm1.411-2.443a4.425 4.425 0 012.184 4.415 4.423 4.423 0 01-3.246 3.704 4.43 4.43 0 111.062-8.12z" fill="#fff"/><path opacity=".03" d="M209.82 72.199a3.037 3.037 0 00-4.391 1.652 3.036 3.036 0 004.216 3.697 3.033 3.033 0 00.175-5.35zm.705-1.222a4.425 4.425 0 012.184 4.415 4.423 4.423 0 01-3.246 3.704 4.43 4.43 0 111.062-8.12zM196.184 55.184a1.645 1.645 0 10.603 2.249 1.654 1.654 0 00-.603-2.249zm1.453-2.516a4.553 4.553 0 01-1.098 8.338 4.552 4.552 0 111.098-8.338z" fill="#fff"/><path opacity=".03" d="M196.917 53.916a3.098 3.098 0 00-4.479 1.685 3.096 3.096 0 005.611 2.543 3.101 3.101 0 00-1.132-4.228zm.728-1.261a4.553 4.553 0 01-1.098 8.337 4.552 4.552 0 111.098-8.337zM158.575 54.272a1.52 1.52 0 00-2.195.826 1.51 1.51 0 00.436 1.629 1.515 1.515 0 002.314-.383 1.519 1.519 0 00-.555-2.072zm1.327-2.3a4.166 4.166 0 01-3.43 7.546 4.168 4.168 0 01-2.814-3.671 4.159 4.159 0 011.622-3.577 4.156 4.156 0 013.083-.823 4.16 4.16 0 011.539.526z" fill="#fff"/><path opacity=".03" d="M159.238 53.122a2.834 2.834 0 00-4.105 1.545 2.84 2.84 0 002.317 3.725 2.84 2.84 0 002.827-1.394 2.843 2.843 0 00-1.039-3.876zm.664-1.15a4.166 4.166 0 01-3.43 7.546 4.168 4.168 0 01-2.814-3.671 4.159 4.159 0 011.622-3.577 4.156 4.156 0 013.083-.823 4.16 4.16 0 011.539.526z" fill="#fff"/><path opacity=".2" d="M355.151 47.173a.212.212 0 10.212-.368.212.212 0 00-.212.368z" fill="#fff"/><path opacity=".4" d="M355.182 47.127a.16.16 0 10.158-.276.16.16 0 00-.158.276z" fill="#fff"/><path opacity=".7" d="M355.205 47.08c.05.03.115.013.145-.038a.106.106 0 10-.145.039z" fill="#fff"/><path d="M355.235 47.035a.054.054 0 00.073-.02.053.053 0 00-.02-.072.052.052 0 00-.072.019.053.053 0 00.019.072z" fill="#fff"/><path opacity=".2" d="M355.13 47.212a.258.258 0 10.258-.446.258.258 0 00-.258.446zM351.309 55.175a.668.668 0 10.668-1.156.668.668 0 00-.668 1.157z" fill="#fff"/><path opacity=".4" d="M351.394 55.032a.5.5 0 10.5-.868.5.5 0 00-.5.867z" fill="#fff"/><path opacity=".7" d="M351.479 54.888a.334.334 0 10.333-.58.334.334 0 00-.333.58z" fill="#fff"/><path d="M351.564 54.744a.167.167 0 00.228-.062.167.167 0 00-.29-.166.167.167 0 00.062.228z" fill="#fff"/><path opacity=".2" d="M351.244 55.295a.804.804 0 10.804-1.392.804.804 0 00-.804 1.392zM343.457 52.334a.667.667 0 10.668-1.156.667.667 0 00-.668 1.156z" fill="#fff"/><path opacity=".4" d="M343.541 52.195a.51.51 0 10.508-.883.51.51 0 00-.508.883z" fill="#fff"/><path opacity=".7" d="M343.627 52.044a.334.334 0 10.334-.578.334.334 0 00-.334.578z" fill="#fff"/><path d="M343.703 51.907c.084.048.19.02.239-.064a.175.175 0 00-.303-.174.175.175 0 00.064.238z" fill="#fff"/><path opacity=".2" d="M343.391 52.458a.812.812 0 10.812-1.406.812.812 0 00-.812 1.406zM336.216 47.921a.372.372 0 10.372-.644.372.372 0 00-.372.644z" fill="#fff"/><path opacity=".4" d="M336.259 47.843a.281.281 0 10.281-.487.281.281 0 00-.281.487z" fill="#fff"/><path opacity=".7" d="M336.312 47.758c.087.05.198.02.248-.067a.182.182 0 10-.248.067z" fill="#fff"/><path d="M336.355 47.68a.09.09 0 00.124-.034.09.09 0 10-.157-.09.09.09 0 00.033.124z" fill="#fff"/><path opacity=".2" d="M336.174 47.987a.448.448 0 10.448-.777.448.448 0 00-.448.777zM332.765 59.937a.471.471 0 10.47-.817.471.471 0 00-.47.817z" fill="#fff"/><path opacity=".4" d="M332.819 59.837a.356.356 0 10.357-.617.356.356 0 00-.357.617z" fill="#fff"/><path opacity=".7" d="M332.883 59.732a.235.235 0 10.235-.407.235.235 0 00-.235.407z" fill="#fff"/><path d="M332.937 59.634a.122.122 0 00.166-.044.122.122 0 00-.211-.121.122.122 0 00.045.165z" fill="#fff"/><path opacity=".2" d="M332.713 60.022a.569.569 0 10.569-.985.569.569 0 00-.569.985zM324.743 51.635a.228.228 0 10.228-.395.228.228 0 00-.228.395z" fill="#fff"/><path opacity=".4" d="M324.766 51.589a.174.174 0 10.174-.302.174.174 0 00-.174.302z" fill="#fff"/><path opacity=".7" d="M324.797 51.535a.114.114 0 00.156-.041.115.115 0 00-.042-.156.113.113 0 00-.155.042.113.113 0 00.041.155z" fill="#fff"/><path d="M324.828 51.489a.06.06 0 00.083-.022.061.061 0 00-.022-.083.06.06 0 00-.083.022.06.06 0 00.022.083z" fill="#fff"/><path opacity=".2" d="M324.721 51.674a.273.273 0 10.273-.473.273.273 0 00-.273.473zM319.681 58.706a.22.22 0 10.22-.382.22.22 0 00-.22.382z" fill="#fff"/><path opacity=".4" d="M319.704 58.66a.167.167 0 10.167-.29.167.167 0 00-.167.29z" fill="#fff"/><path opacity=".7" d="M319.736 58.606a.106.106 0 10.106-.184.106.106 0 10-.106.184z" fill="#fff"/><path d="M319.758 58.56a.054.054 0 00.073-.02.053.053 0 10-.092-.053.053.053 0 00.019.073z" fill="#fff"/><path opacity=".2" d="M319.652 58.745c.127.073.289.03.363-.097a.266.266 0 00-.46-.266.265.265 0 00.097.363zM312.138 56.128a.311.311 0 10.311-.54.311.311 0 00-.311.54z" fill="#fff"/><path opacity=".4" d="M312.172 56.062a.235.235 0 10.235-.407.235.235 0 00-.235.407z" fill="#fff"/><path opacity=".7" d="M312.214 55.991a.152.152 0 00.152-.263.151.151 0 00-.207.056.151.151 0 00.055.207z" fill="#fff"/><path d="M312.255 55.925c.037.021.083.009.104-.028a.075.075 0 00-.028-.103.075.075 0 00-.103.028.076.076 0 00.027.103z" fill="#fff"/><path opacity=".2" d="M312.098 56.186a.38.38 0 10.38-.657.38.38 0 00-.38.657zM308.421 66.914a.53.53 0 10.53-.919.53.53 0 00-.53.919z" fill="#fff"/><path opacity=".4" d="M308.485 66.802a.402.402 0 10.402-.696.402.402 0 00-.402.696z" fill="#fff"/><path opacity=".7" d="M308.558 66.684a.266.266 0 10.266-.46.266.266 0 00-.266.46z" fill="#fff"/><path d="M308.622 66.572a.137.137 0 00.137-.236.137.137 0 00-.187.05.138.138 0 00.05.186z" fill="#fff"/><path opacity=".2" d="M308.367 67.011a.645.645 0 10.645-1.118.645.645 0 00-.645 1.118zM301.254 65.34a.493.493 0 10.493-.854.493.493 0 00-.493.855z" fill="#fff"/><path opacity=".4" d="M301.317 65.236a.372.372 0 10.372-.644.372.372 0 00-.372.644z" fill="#fff"/><path opacity=".7" d="M301.382 65.124a.242.242 0 10.242-.42.242.242 0 10-.242.42z" fill="#fff"/><path d="M301.436 65.026a.129.129 0 10.129-.223.129.129 0 00-.129.223z" fill="#fff"/><path opacity=".2" d="M301.201 65.433a.6.6 0 10.6-1.038.6.6 0 00-.6 1.038zM294.7 67.373a.546.546 0 10.546-.945.546.546 0 00-.546.945z" fill="#fff"/><path opacity=".4" d="M294.764 67.263a.417.417 0 10.417-.722.417.417 0 00-.417.722z" fill="#fff"/><path opacity=".7" d="M294.838 67.137a.273.273 0 10.273-.473.273.273 0 00-.273.473z" fill="#fff"/><path d="M294.903 67.027c.069.04.157.016.196-.053a.144.144 0 10-.249-.144.144.144 0 00.053.197z" fill="#fff"/><path opacity=".2" d="M294.645 67.48a.668.668 0 10.667-1.157.668.668 0 00-.667 1.157zM286.822 61.468a.63.63 0 10.63-1.09.63.63 0 00-.63 1.09z" fill="#fff"/><path opacity=".4" d="M286.897 61.336a.478.478 0 10.478-.828.478.478 0 00-.478.828z" fill="#fff"/><path opacity=".7" d="M286.982 61.19a.311.311 0 10.311-.539.311.311 0 00-.311.54z" fill="#fff"/><path d="M287.057 61.06a.16.16 0 10.158-.276.16.16 0 00-.158.277z" fill="#fff"/><path opacity=".2" d="M286.757 61.585a.765.765 0 10.766-1.326.765.765 0 00-.766 1.326zM280.707 62.116a.614.614 0 10.614-1.064.614.614 0 00-.614 1.064z" fill="#fff"/><path opacity=".4" d="M280.781 61.991a.47.47 0 10.47-.814.47.47 0 00-.47.814z" fill="#fff"/><path opacity=".7" d="M280.866 61.847a.303.303 0 10.303-.525.303.303 0 00-.303.525z" fill="#fff"/><path d="M280.94 61.723a.16.16 0 10.158-.276.16.16 0 00-.158.276z" fill="#fff"/><path opacity=".2" d="M280.642 62.235a.75.75 0 10.75-1.299.75.75 0 00-.75 1.299zM277.324 72.599c.127.073.289.03.362-.098a.265.265 0 10-.362.097z" fill="#fff"/><path opacity=".4" d="M277.355 72.545a.205.205 0 10.205-.355.205.205 0 00-.205.355z" fill="#fff"/><path opacity=".7" d="M277.388 72.486a.136.136 0 00.186-.05.136.136 0 10-.186.05z" fill="#fff"/><path d="M277.421 72.428a.068.068 0 10.068-.119.068.068 0 00-.068.119z" fill="#fff"/><path opacity=".2" d="M277.292 72.65a.327.327 0 10.326-.566.327.327 0 00-.326.566zM271.01 69.936a.273.273 0 10.273-.473.273.273 0 00-.273.473z" fill="#fff"/><path opacity=".4" d="M271.043 69.875a.205.205 0 10.205-.355.205.205 0 00-.205.355z" fill="#fff"/><path opacity=".7" d="M271.075 69.817a.137.137 0 10.137-.236.137.137 0 00-.137.236z" fill="#fff"/><path d="M271.116 69.758a.068.068 0 00.093-.025.068.068 0 00-.025-.093.068.068 0 00-.093.025.068.068 0 00.025.093z" fill="#fff"/><path opacity=".2" d="M270.988 69.982a.326.326 0 10.326-.564.326.326 0 00-.326.564zM266.594 75.69a.462.462 0 10.463-.801.462.462 0 00-.463.8z" fill="#fff"/><path opacity=".4" d="M266.649 75.59a.348.348 0 10.348-.604.348.348 0 00-.348.603z" fill="#fff"/><path opacity=".7" d="M266.712 75.484a.228.228 0 10.228-.394.228.228 0 00-.228.394z" fill="#fff"/><path d="M266.765 75.394a.122.122 0 00.166-.044.122.122 0 00-.045-.166.12.12 0 00-.165.044.12.12 0 00.044.166z" fill="#fff"/><path opacity=".2" d="M266.542 75.774a.562.562 0 10.561-.973.562.562 0 00-.561.973zM259.239 72.44a.607.607 0 10.607-1.051.607.607 0 00-.607 1.052z" fill="#fff"/><path opacity=".4" d="M259.313 72.316a.463.463 0 10.463-.801.463.463 0 00-.463.801z" fill="#fff"/><path opacity=".7" d="M259.389 72.177a.303.303 0 10.303-.525.303.303 0 10-.303.525z" fill="#fff"/><path d="M259.463 72.053a.16.16 0 00.218-.058.159.159 0 00-.059-.218.16.16 0 00-.159.276z" fill="#fff"/><path opacity=".2" d="M259.175 72.552a.736.736 0 10.736-1.273.736.736 0 00-.736 1.273zM252.927 74.491a.426.426 0 10.425-.737.426.426 0 00-.425.737z" fill="#fff"/><path opacity=".4" d="M252.98 74.406a.326.326 0 10.326-.564.326.326 0 00-.326.564z" fill="#fff"/><path opacity=".7" d="M253.034 74.308a.212.212 0 10.212-.367.212.212 0 00-.212.367z" fill="#fff"/><path d="M253.087 74.216c.051.029.116.012.145-.04a.106.106 0 10-.184-.106.107.107 0 00.039.146z" fill="#fff"/><path opacity=".2" d="M252.883 74.576a.524.524 0 10.523-.907.524.524 0 00-.523.907zM248.815 83.44a.334.334 0 10.334-.579.334.334 0 00-.334.58z" fill="#fff"/><path opacity=".4" d="M248.848 83.374a.258.258 0 10.26-.446.258.258 0 00-.26.447z" fill="#fff"/><path opacity=".7" d="M248.9 83.296a.166.166 0 00.227-.06.167.167 0 00-.289-.167.167.167 0 00.062.227z" fill="#fff"/><path d="M248.942 83.223a.083.083 0 10.083-.144.083.083 0 00-.083.144z" fill="#fff"/><path opacity=".2" d="M248.773 83.506a.41.41 0 10.41-.71.41.41 0 00-.41.71zM242.794 84.504a.546.546 0 10.546-.946.546.546 0 00-.546.946z" fill="#fff"/><path opacity=".4" d="M242.858 84.392a.417.417 0 10.417-.722.417.417 0 00-.417.722z" fill="#fff"/><path opacity=".7" d="M242.932 84.268a.273.273 0 10.273-.473.273.273 0 00-.273.473z" fill="#fff"/><path d="M242.997 84.148a.137.137 0 10.137-.236.137.137 0 00-.137.237z" fill="#fff"/><path opacity=".2" d="M242.74 84.602a.66.66 0 10.66-1.142.66.66 0 00-.66 1.142zM236.324 85.443a.554.554 0 10.554-.96.554.554 0 00-.554.96z" fill="#fff"/><path opacity=".4" d="M236.389 85.326a.417.417 0 10.417-.723.417.417 0 00-.417.723z" fill="#fff"/><path opacity=".7" d="M236.463 85.201a.273.273 0 10.273-.472.273.273 0 00-.273.472z" fill="#fff"/><path d="M236.528 85.09c.069.04.157.016.196-.053a.144.144 0 10-.249-.145.144.144 0 00.053.197z" fill="#fff"/><path opacity=".2" d="M236.262 85.543a.668.668 0 10.668-1.157.668.668 0 00-.668 1.157zM230.267 83.218a.395.395 0 10.395-.683.395.395 0 00-.395.683z" fill="#fff"/><path opacity=".4" d="M230.32 83.133a.296.296 0 10.296-.513.296.296 0 00-.296.513z" fill="#fff"/><path opacity=".7" d="M230.364 83.048a.197.197 0 10.198-.34.197.197 0 00-.198.34z" fill="#fff"/><path d="M230.416 82.962a.099.099 0 10.099-.17.099.099 0 00-.099.17z" fill="#fff"/><path opacity=".2" d="M230.225 83.29a.478.478 0 10.478-.828.478.478 0 00-.478.827zM223.79 81.711a.228.228 0 10.228-.395.228.228 0 00-.228.395z" fill="#fff"/><path opacity=".4" d="M223.821 81.658a.167.167 0 10.167-.29.167.167 0 00-.167.29z" fill="#fff"/><path opacity=".7" d="M223.844 81.613a.115.115 0 00.156-.041.114.114 0 00-.198-.114.115.115 0 00.042.155z" fill="#fff"/><path d="M223.875 81.567a.06.06 0 00.083-.022.062.062 0 00-.023-.083.06.06 0 00-.083.022.062.062 0 00.023.083z" fill="#fff"/><path opacity=".2" d="M223.768 81.75a.273.273 0 10.273-.472.273.273 0 00-.273.472zM217.153 81.245a.492.492 0 10.493-.853.492.492 0 00-.493.853z" fill="#fff"/><path opacity=".4" d="M217.216 81.14a.372.372 0 10.372-.644.372.372 0 00-.372.644z" fill="#fff"/><path opacity=".7" d="M217.28 81.028a.243.243 0 10.243-.421.243.243 0 00-.243.421z" fill="#fff"/><path d="M217.334 80.93a.129.129 0 00.176-.047.129.129 0 10-.176.047z" fill="#fff"/><path opacity=".2" d="M217.099 81.338a.6.6 0 10.6-1.039.6.6 0 00-.6 1.039zM211.691 82.31a.554.554 0 10.554-.96.554.554 0 00-.554.96z" fill="#fff"/><path opacity=".4" d="M211.757 82.191a.418.418 0 10.417-.724.418.418 0 00-.417.724z" fill="#fff"/><path opacity=".7" d="M211.831 82.067a.273.273 0 10.273-.474.273.273 0 00-.273.474z" fill="#fff"/><path d="M211.895 81.954a.144.144 0 10.144-.25.144.144 0 00-.144.25z" fill="#fff"/><path opacity=".2" d="M211.628 82.415a.676.676 0 10.676-1.171.676.676 0 00-.676 1.171zM206.896 89.225a.66.66 0 10.66-1.142.66.66 0 00-.66 1.142z" fill="#fff"/><path opacity=".4" d="M206.98 89.086a.501.501 0 10.5-.868.501.501 0 00-.5.868z" fill="#fff"/><path opacity=".7" d="M207.066 88.935a.326.326 0 10.326-.564.326.326 0 00-.326.564z" fill="#fff"/><path d="M207.15 88.796a.166.166 0 00.227-.06.166.166 0 00-.061-.229.167.167 0 00-.228.061.167.167 0 00.062.228z" fill="#fff"/><path opacity=".2" d="M206.831 89.342a.796.796 0 10.796-1.38.796.796 0 00-.796 1.38zM199.838 82.692a.22.22 0 10.22-.38.22.22 0 00-.22.38z" fill="#fff"/><path opacity=".4" d="M199.86 82.648a.167.167 0 10.167-.29.167.167 0 00-.167.29z" fill="#fff"/><path opacity=".7" d="M199.891 82.602a.113.113 0 00.155-.042.114.114 0 10-.197-.114.115.115 0 00.042.156z" fill="#fff"/><path d="M199.914 82.555a.06.06 0 00.083-.022.062.062 0 00-.023-.083.06.06 0 00-.082.022.06.06 0 00.022.083z" fill="#fff"/><path opacity=".2" d="M199.807 82.738a.273.273 0 10.273-.472.273.273 0 00-.273.472zM195.607 92.227a.311.311 0 10.311-.539.311.311 0 00-.311.54z" fill="#fff"/><path opacity=".4" d="M195.648 92.162a.235.235 0 10.235-.407.235.235 0 00-.235.407z" fill="#fff"/><path opacity=".7" d="M195.691 92.089a.152.152 0 10.152-.263.152.152 0 00-.152.263z" fill="#fff"/><path d="M195.723 92.03a.083.083 0 00.084-.145.083.083 0 00-.114.031.083.083 0 00.03.114z" fill="#fff"/><path opacity=".2" d="M195.574 92.286a.379.379 0 10.38-.656.379.379 0 00-.38.656zM188.11 87.75a.577.577 0 10.577-1 .577.577 0 00-.577 1z" fill="#fff"/><path opacity=".4" d="M188.183 87.63a.44.44 0 10.44-.76.44.44 0 00-.44.76z" fill="#fff"/><path opacity=".7" d="M188.258 87.5a.289.289 0 10.288-.5.289.289 0 00-.288.5z" fill="#fff"/><path d="M188.332 87.374a.144.144 0 10.144-.25.144.144 0 00-.144.25z" fill="#fff"/><path opacity=".2" d="M188.055 87.855a.697.697 0 10.698-1.208.697.697 0 00-.698 1.208zM184.165 95.16a.228.228 0 10.228-.394.228.228 0 00-.228.394z" fill="#fff"/><path opacity=".4" d="M184.195 95.114c.084.048.191.02.239-.064a.174.174 0 10-.302-.175.174.174 0 00.063.239z" fill="#fff"/><path opacity=".7" d="M184.227 95.06a.113.113 0 00.155-.041.114.114 0 10-.197-.114.115.115 0 00.042.156z" fill="#fff"/><path d="M184.25 95.014a.06.06 0 00.083-.022.062.062 0 00-.023-.083.06.06 0 00-.083.022.062.062 0 00.023.083z" fill="#fff"/><path opacity=".2" d="M184.142 95.205a.28.28 0 10.28-.486.28.28 0 00-.28.486zM177.968 98.763a.53.53 0 10.53-.918.53.53 0 00-.53.918z" fill="#fff"/><path opacity=".4" d="M178.032 98.651a.402.402 0 10.402-.696.402.402 0 00-.402.696z" fill="#fff"/><path opacity=".7" d="M178.105 98.534a.266.266 0 10.266-.461.266.266 0 00-.266.461z" fill="#fff"/><path d="M178.169 98.422a.137.137 0 00.187-.05.137.137 0 10-.187.05z" fill="#fff"/><path opacity=".2" d="M177.914 98.863a.644.644 0 10.644-1.115.644.644 0 00-.644 1.115zM169.512 91.63a.318.318 0 10.318-.553.318.318 0 00-.318.552z" fill="#fff"/><path opacity=".4" d="M169.546 91.563a.242.242 0 10.242-.42.242.242 0 10-.242.42z" fill="#fff"/><path opacity=".7" d="M169.588 91.49a.16.16 0 00.218-.058.159.159 0 00-.059-.218.16.16 0 00-.159.276z" fill="#fff"/><path d="M169.629 91.424c.04.024.091.01.114-.03a.083.083 0 10-.144-.084.084.084 0 00.03.114z" fill="#fff"/><path opacity=".2" d="M169.479 91.688a.388.388 0 10.387-.672.388.388 0 00-.387.672zM164.984 97.6a.705.705 0 10.705-1.22.705.705 0 00-.705 1.22z" fill="#fff"/><path opacity=".4" d="M165.068 97.456a.539.539 0 10.539-.933.539.539 0 00-.539.933z" fill="#fff"/><path opacity=".7" d="M165.164 97.293a.35.35 0 10.35-.606.35.35 0 00-.35.606z" fill="#fff"/><path d="M165.249 97.147a.182.182 0 100 0z" fill="#fff"/><path opacity=".2" d="M164.909 97.732a.857.857 0 10.857-1.485.857.857 0 00-.857 1.485zM161.062 105.776a.296.296 0 10.295-.514.296.296 0 00-.295.514z" fill="#fff"/><path opacity=".4" d="M161.095 105.717a.227.227 0 10.227-.394.227.227 0 10-.227.394z" fill="#fff"/><path opacity=".7" d="M161.136 105.651a.152.152 0 10.152-.263.152.152 0 00-.152.263z" fill="#fff"/><path d="M161.17 105.585a.076.076 0 10.075-.131.075.075 0 00-.103.028.075.075 0 00.028.103z" fill="#fff"/><path opacity=".2" d="M161.029 105.836a.364.364 0 10.365-.63.364.364 0 00-.365.63zM151.606 97.104a.318.318 0 10.318-.552.318.318 0 00-.318.552z" fill="#fff"/><path opacity=".4" d="M151.648 97.03a.235.235 0 10.235-.406.235.235 0 00-.235.407z" fill="#fff"/><path opacity=".7" d="M151.69 96.965a.16.16 0 10.158-.276.16.16 0 00-.158.276z" fill="#fff"/><path d="M151.723 96.9c.04.022.091.008.114-.031a.083.083 0 10-.144-.084c-.023.04-.01.091.03.114z" fill="#fff"/><path opacity=".2" d="M151.582 97.155a.38.38 0 10.379-.657.38.38 0 00-.379.657zM148.974 109.282a.31.31 0 10.311-.538.31.31 0 00-.311.538z" fill="#fff"/><path opacity=".4" d="M149.015 109.216a.235.235 0 10.236-.407.235.235 0 00-.236.407z" fill="#fff"/><path opacity=".7" d="M149.058 109.143a.152.152 0 00.152-.262.153.153 0 00-.208.055.151.151 0 00.056.207z" fill="#fff"/><path d="M149.091 109.078c.037.02.083.008.104-.028a.076.076 0 10-.131-.076.076.076 0 00.027.104z" fill="#fff"/><path opacity=".2" d="M148.941 109.341a.38.38 0 00.38-.657.38.38 0 00-.38.657zM141.271 104.625a.25.25 0 10.25-.432.25.25 0 00-.25.432z" fill="#fff"/><path opacity=".4" d="M141.303 104.574a.19.19 0 00.189-.329.19.19 0 00-.189.329z" fill="#fff"/><path opacity=".7" d="M141.334 104.52a.128.128 0 00.176-.047.128.128 0 00-.047-.176.129.129 0 10-.129.223z" fill="#fff"/><path d="M141.366 104.469a.068.068 0 00.093-.025.067.067 0 00-.025-.093.068.068 0 00-.093.025.068.068 0 00.025.093z" fill="#fff"/><path opacity=".2" d="M141.248 104.671a.304.304 0 10.304-.526.304.304 0 00-.304.526zM133.168 101.76a.729.729 0 10.729-1.262.729.729 0 00-.729 1.262z" fill="#fff"/><path opacity=".4" d="M133.263 101.604a.546.546 0 10.546-.946.546.546 0 00-.546.946z" fill="#fff"/><path opacity=".7" d="M133.358 101.438a.356.356 0 10.359-.616.356.356 0 00-.359.616z" fill="#fff"/><path d="M133.444 101.287c.087.05.199.021.249-.066a.183.183 0 00-.067-.249.18.18 0 00-.248.067.18.18 0 00.066.248z" fill="#fff"/><path opacity=".2" d="M133.093 101.892a.88.88 0 10.88-1.524.88.88 0 00-.88 1.524zM129.021 112.451a.546.546 0 10.547-.945.546.546 0 00-.547.945z" fill="#fff"/><path opacity=".4" d="M129.094 112.332a.41.41 0 10.409-.709.41.41 0 00-.409.709z" fill="#fff"/><path opacity=".7" d="M129.16 112.208a.265.265 0 10.265-.46.265.265 0 10-.265.46z" fill="#fff"/><path d="M129.224 112.096a.137.137 0 10.136-.237.137.137 0 00-.136.237z" fill="#fff"/><path opacity=".2" d="M128.966 112.549a.661.661 0 10.66-1.145.661.661 0 00-.66 1.145zM122.832 114.398a.553.553 0 10.553-.957.553.553 0 00-.553.957z" fill="#fff"/><path opacity=".4" d="M122.905 114.279a.417.417 0 10.417-.722.417.417 0 00-.417.722z" fill="#fff"/><path opacity=".7" d="M122.979 114.154a.273.273 0 10.273-.473.273.273 0 10-.273.473z" fill="#fff"/><path d="M123.043 114.042a.144.144 0 10.144-.249.144.144 0 00-.144.249z" fill="#fff"/><path opacity=".2" d="M122.777 114.503a.675.675 0 10.675-1.17.675.675 0 00-.675 1.17zM114.226 105.776a.583.583 0 10.585-1.01.583.583 0 00-.585 1.01z" fill="#fff"/><path opacity=".4" d="M114.3 105.65a.44.44 0 10.44-.764.44.44 0 00-.44.764z" fill="#fff"/><path opacity=".7" d="M114.375 105.518a.288.288 0 10.29-.497.288.288 0 00-.29.497z" fill="#fff"/><path d="M114.441 105.401a.152.152 0 10.152-.263.152.152 0 00-.152.263z" fill="#fff"/><path opacity=".2" d="M114.163 105.881a.705.705 0 10.706-1.22.705.705 0 00-.706 1.22zM110.729 116.503a.561.561 0 10.561-.972.561.561 0 00-.561.972z" fill="#fff"/><path opacity=".4" d="M110.802 116.384a.425.425 0 10.425-.736.425.425 0 00-.425.736z" fill="#fff"/><path opacity=".7" d="M110.876 116.259a.28.28 0 10.282-.486.28.28 0 00-.282.486z" fill="#fff"/><path d="M110.942 116.14c.069.04.157.016.196-.053a.144.144 0 10-.249-.144.144.144 0 00.053.197z" fill="#fff"/><path opacity=".2" d="M110.675 116.601a.676.676 0 10.674-1.172.676.676 0 00-.674 1.172zM104.567 115.439a.371.371 0 10.372-.642.371.371 0 00-.372.642z" fill="#fff"/><path opacity=".4" d="M104.611 115.361a.28.28 0 10.28-.487.28.28 0 00-.28.487z" fill="#fff"/><path opacity=".7" d="M104.663 115.274a.183.183 0 00.182-.316.183.183 0 00-.249.067.183.183 0 00.067.249z" fill="#fff"/><path d="M104.706 115.203a.098.098 0 00.134-.037.099.099 0 10-.134.037z" fill="#fff"/><path opacity=".2" d="M104.525 115.512a.455.455 0 10.455-.788.455.455 0 00-.455.788zM98.77 118.063a.492.492 0 10.493-.854.493.493 0 00-.493.854z" fill="#fff"/><path opacity=".4" d="M98.825 117.959a.372.372 0 10.372-.644.372.372 0 00-.372.644z" fill="#fff"/><path opacity=".7" d="M98.897 117.848a.242.242 0 10.244-.42.242.242 0 00-.244.42z" fill="#fff"/><path d="M98.951 117.749a.13.13 0 00.177-.047.13.13 0 00-.048-.177.13.13 0 00-.129.224z" fill="#fff"/><path opacity=".2" d="M98.717 118.156a.6.6 0 10.599-1.04.6.6 0 00-.6 1.04zM92.835 117.433a.417.417 0 10.417-.722.417.417 0 00-.417.722z" fill="#fff"/><path opacity=".4" d="M92.887 117.348a.318.318 0 10.319-.55.318.318 0 00-.319.55z" fill="#fff"/><path opacity=".7" d="M92.941 117.248a.204.204 0 10.205-.355.205.205 0 00-.205.355z" fill="#fff"/><path d="M92.994 117.163a.106.106 0 10.106-.184.106.106 0 00-.106.184z" fill="#fff"/><path opacity=".2" d="M92.791 117.511a.508.508 0 10.509-.879.508.508 0 00-.509.879zM87.22 118.87a.63.63 0 10.63-1.09.63.63 0 00-.63 1.09z" fill="#fff"/><path opacity=".4" d="M87.295 118.739a.478.478 0 10.478-.83.478.478 0 00-.478.83z" fill="#fff"/><path opacity=".7" d="M87.38 118.595a.311.311 0 10.31-.539.311.311 0 00-.31.539z" fill="#fff"/><path d="M87.455 118.463a.16.16 0 10.16-.276.16.16 0 00-.16.276z" fill="#fff"/><path opacity=".2" d="M87.156 118.982a.759.759 0 10.76-1.314.759.759 0 00-.76 1.314zM83.172 125.169a.584.584 0 10.584-1.011.584.584 0 00-.584 1.011z" fill="#fff"/><path opacity=".4" d="M83.245 125.052a.448.448 0 10.447-.777.448.448 0 00-.447.777z" fill="#fff"/><path opacity=".7" d="M83.32 124.913a.288.288 0 10.289-.499.288.288 0 00-.288.499z" fill="#fff"/><path d="M83.394 124.794a.152.152 0 10.152-.263.152.152 0 00-.152.263z" fill="#fff"/><path opacity=".2" d="M83.108 125.281a.713.713 0 10.713-1.235.713.713 0 00-.713 1.235zM75.502 121.293a.509.509 0 10.508-.881.509.509 0 00-.508.881z" fill="#fff"/><path opacity=".4" d="M75.565 121.188a.387.387 0 10.387-.67.387.387 0 00-.387.67z" fill="#fff"/><path opacity=".7" d="M75.638 121.07a.25.25 0 10.25-.432.25.25 0 00-.25.432z" fill="#fff"/><path d="M75.694 120.966a.13.13 0 00.129-.224.13.13 0 00-.176.047.13.13 0 00.047.177z" fill="#fff"/><path opacity=".2" d="M75.449 121.385a.614.614 0 10.615-1.063.614.614 0 00-.615 1.063zM69.92 121.591a.31.31 0 10.31-.538.31.31 0 00-.31.538z" fill="#fff"/><path opacity=".4" d="M69.96 121.525a.235.235 0 10.236-.408.235.235 0 00-.235.408z" fill="#fff"/><path opacity=".7" d="M69.994 121.459a.16.16 0 10.16-.276.16.16 0 00-.16.276z" fill="#fff"/><path d="M70.036 121.393a.083.083 0 10.083-.144.083.083 0 10-.083.144z" fill="#fff"/><path opacity=".2" d="M69.887 121.649a.379.379 0 10.38-.655.379.379 0 00-.38.655zM62.904 119.789a.25.25 0 10.25-.432.25.25 0 00-.25.432z" fill="#fff"/><path opacity=".4" d="M62.935 119.736a.19.19 0 10.19-.33.19.19 0 00-.19.33z" fill="#fff"/><path opacity=".7" d="M62.968 119.677a.122.122 0 10.121-.21.122.122 0 00-.12.21z" fill="#fff"/><path d="M63 119.626a.062.062 0 00.083-.023.06.06 0 00-.023-.082.06.06 0 00-.083.022.06.06 0 00.023.083z" fill="#fff"/><path opacity=".2" d="M62.873 119.835a.302.302 0 10.304-.525.303.303 0 10-.304.525zM58.62 124.957a.5.5 0 10.501-.867.501.501 0 00-.5.867z" fill="#fff"/><path opacity=".4" d="M58.684 124.85a.38.38 0 10.38-.656.38.38 0 00-.38.656z" fill="#fff"/><path opacity=".7" d="M58.748 124.74a.25.25 0 10.25-.433.25.25 0 00-.25.433z" fill="#fff"/><path d="M58.81 124.634a.13.13 0 00.13-.224.13.13 0 00-.176.047.13.13 0 00.047.177z" fill="#fff"/><path opacity=".2" d="M58.566 125.055a.614.614 0 10.615-1.063.614.614 0 00-.615 1.063zM51.697 124.524a.63.63 0 10.63-1.09.63.63 0 00-.63 1.09z" fill="#fff"/><path opacity=".4" d="M51.772 124.393a.478.478 0 10.477-.829.478.478 0 00-.477.829z" fill="#fff"/><path opacity=".7" d="M51.857 124.249a.31.31 0 10.31-.538.31.31 0 00-.31.538z" fill="#fff"/><path d="M51.932 124.117a.16.16 0 10.16-.276.16.16 0 00-.16.276z" fill="#fff"/><path opacity=".2" d="M51.632 124.642a.766.766 0 10.765-1.328.766.766 0 00-.765 1.328zM45.78 123.233a.243.243 0 10.242-.421.243.243 0 00-.242.421z" fill="#fff"/><path opacity=".4" d="M45.812 123.182a.182.182 0 10.181-.317.182.182 0 00-.181.317z" fill="#fff"/><path opacity=".7" d="M45.835 123.128a.12.12 0 00.166-.044.121.121 0 10-.166.044z" fill="#fff"/><path d="M45.867 123.077a.06.06 0 00.083-.022.06.06 0 00-.022-.083.06.06 0 00-.06.105z" fill="#fff"/><path opacity=".2" d="M45.75 123.279a.295.295 0 10.295-.512.296.296 0 00-.296.512zM42.87 134.668a.386.386 0 10.388-.669.386.386 0 00-.388.669z" fill="#fff"/><path opacity=".4" d="M42.921 134.59a.296.296 0 10.296-.512.296.296 0 00-.296.512z" fill="#fff"/><path opacity=".7" d="M42.975 134.498a.19.19 0 10.189-.33.19.19 0 00-.19.33z" fill="#fff"/><path d="M43.018 134.419a.098.098 0 00.135-.036.098.098 0 00-.036-.134.097.097 0 00-.135.036.098.098 0 00.036.134z" fill="#fff"/><path opacity=".2" d="M42.828 134.741a.47.47 0 10.47-.814.47.47 0 00-.47.814zM35.13 132.267a.598.598 0 10.6-1.036.598.598 0 00-.6 1.036z" fill="#fff"/><path opacity=".4" d="M35.205 132.143a.455.455 0 10.455-.788.455.455 0 00-.455.788z" fill="#fff"/><path opacity=".7" d="M35.28 132.004a.296.296 0 10.297-.512.296.296 0 00-.296.512z" fill="#fff"/><path d="M35.355 131.88a.152.152 0 10.152-.264.152.152 0 00-.152.264z" fill="#fff"/><path opacity=".2" d="M35.066 132.379a.728.728 0 10.73-1.262.728.728 0 00-.73 1.262zM31.345 138.823a.456.456 0 10.455-.79.456.456 0 00-.455.79z" fill="#fff"/><path opacity=".4" d="M31.407 138.725a.342.342 0 10.341-.593.342.342 0 00-.34.593z" fill="#fff"/><path opacity=".7" d="M31.462 138.625a.227.227 0 10.228-.393.227.227 0 00-.228.393z" fill="#fff"/><path d="M31.516 138.527a.113.113 0 00.155-.041.114.114 0 00-.041-.156.115.115 0 00-.156.042.113.113 0 00.042.155z" fill="#fff"/><path opacity=".2" d="M31.302 138.903a.547.547 0 10.545-.949.547.547 0 00-.545.949zM22.417 132.013a.622.622 0 10.622-1.077.622.622 0 00-.622 1.077z" fill="#fff"/><path opacity=".4" d="M22.5 131.882a.47.47 0 10.47-.814.47.47 0 00-.47.814z" fill="#fff"/><path opacity=".7" d="M22.576 131.745a.31.31 0 10.31-.538.31.31 0 00-.31.538z" fill="#fff"/><path d="M22.65 131.613a.16.16 0 10.16-.276.16.16 0 00-.16.276z" fill="#fff"/><path opacity=".2" d="M22.352 132.133a.759.759 0 10.757-1.315.759.759 0 00-.758 1.315zM18.942 143.835a.607.607 0 10.607-1.05.607.607 0 00-.607 1.05z" fill="#fff"/><path opacity=".4" d="M19.017 143.703a.455.455 0 10.456-.788.455.455 0 00-.456.788z" fill="#fff"/><path opacity=".7" d="M19.092 143.574a.303.303 0 10.304-.525.303.303 0 00-.304.525z" fill="#fff"/><path d="M19.167 143.442a.152.152 0 10.152-.263.152.152 0 00-.152.263z" fill="#fff"/><path opacity=".2" d="M18.878 143.947a.736.736 0 10.736-1.274.736.736 0 00-.736 1.274zM12.726 145.212a.235.235 0 10.236-.406.235.235 0 00-.236.406z" fill="#fff"/><path opacity=".4" d="M12.749 145.166a.182.182 0 10.182-.315.182.182 0 10-.182.315z" fill="#fff"/><path opacity=".7" d="M12.78 145.115a.122.122 0 00.121-.211.122.122 0 00-.121.211z" fill="#fff"/><path d="M12.812 145.061a.06.06 0 00.083-.022.06.06 0 00-.022-.083.06.06 0 00-.083.022.06.06 0 00.022.083z" fill="#fff"/><path opacity=".2" d="M12.696 145.259a.289.289 0 10.287-.501.289.289 0 00-.287.501zM4.073 138.125a.509.509 0 10.508-.881.509.509 0 00-.508.881z" fill="#fff"/><path opacity=".4" d="M4.136 138.02a.387.387 0 10.386-.67.387.387 0 00-.386.67z" fill="#fff"/><path opacity=".7" d="M4.2 137.901a.25.25 0 10.25-.434.25.25 0 00-.25.434z" fill="#fff"/><path d="M4.264 137.796a.13.13 0 00.129-.224.13.13 0 00-.176.047.13.13 0 00.047.177z" fill="#fff"/><path opacity=".2" d="M4.018 138.222a.622.622 0 10.623-1.077.622.622 0 00-.623 1.077zM184.724 142.018a.66.66 0 10.66-1.145.66.66 0 00-.66 1.145z" fill="#fff"/><path opacity=".4" d="M184.8 141.879a.501.501 0 10.5-.868.501.501 0 00-.5.868z" fill="#fff"/><path opacity=".7" d="M184.886 141.728a.327.327 0 10.327-.566.327.327 0 00-.327.566z" fill="#fff"/><path d="M184.97 141.591a.167.167 0 10.167-.289.167.167 0 00-.167.289z" fill="#fff"/><path opacity=".2" d="M184.651 142.135a.796.796 0 10.797-1.379.796.796 0 00-.797 1.379zM188.671 135.75a.705.705 0 10.706-1.22.705.705 0 00-.706 1.22z" fill="#fff"/><path opacity=".4" d="M188.765 135.599a.53.53 0 10.532-.917.53.53 0 00-.532.917z" fill="#fff"/><path opacity=".7" d="M188.852 135.441a.348.348 0 10.348-.604.348.348 0 00-.348.604z" fill="#fff"/><path d="M188.937 135.297a.182.182 0 10.181-.315.182.182 0 00-.181.315z" fill="#fff"/><path opacity=".2" d="M188.605 135.875a.85.85 0 10.849-1.472.85.85 0 00-.849 1.472zM194.233 132.75a.303.303 0 10.302-.526.303.303 0 00-.302.526z" fill="#fff"/><path opacity=".4" d="M194.274 132.684a.228.228 0 10.227-.395.228.228 0 00-.227.395z" fill="#fff"/><path opacity=".7" d="M194.308 132.618a.152.152 0 10.151-.264.152.152 0 00-.151.264z" fill="#fff"/><path d="M194.349 132.552a.076.076 0 10-.028-.103.075.075 0 00.028.103z" fill="#fff"/><path opacity=".2" d="M194.2 132.808a.372.372 0 10.372-.643.372.372 0 00-.372.643zM202.106 132.943a.371.371 0 10.372-.642.371.371 0 00-.372.642z" fill="#fff"/><path opacity=".4" d="M202.158 132.865a.28.28 0 10.28-.487.28.28 0 00-.28.487z" fill="#fff"/><path opacity=".7" d="M202.202 132.779a.182.182 0 10-.066-.248.18.18 0 00.066.248z" fill="#fff"/><path d="M202.253 132.701c.044.025.1.01.125-.033a.09.09 0 00-.034-.124.09.09 0 00-.124.033.091.091 0 00.033.124z" fill="#fff"/><path opacity=".2" d="M202.073 133.009a.448.448 0 10.447-.776.448.448 0 00-.447.776zM203.452 126.547a.706.706 0 10.706-1.223.706.706 0 00-.706 1.223z" fill="#fff"/><path opacity=".4" d="M203.537 126.401a.538.538 0 10.54-.932.538.538 0 00-.54.932z" fill="#fff"/><path opacity=".7" d="M203.633 126.238a.35.35 0 10.349-.606.35.35 0 00-.349.606z" fill="#fff"/><path d="M203.718 126.094a.182.182 0 10.181-.315.182.182 0 00-.181.315z" fill="#fff"/><path opacity=".2" d="M203.377 126.679a.857.857 0 10.857-1.484.857.857 0 00-.857 1.484zM208.842 120.626a.303.303 0 10.304-.524.303.303 0 00-.304.524z" fill="#fff"/><path opacity=".4" d="M208.883 120.568a.235.235 0 10.235-.408.235.235 0 00-.235.408z" fill="#fff"/><path opacity=".7" d="M208.917 120.497a.152.152 0 00.152-.263.152.152 0 00-.152.263z" fill="#fff"/><path d="M208.959 120.431a.075.075 0 00.103-.028.075.075 0 00-.028-.103.076.076 0 10-.075.131z" fill="#fff"/><path opacity=".2" d="M208.81 120.687a.372.372 0 10.371-.644.372.372 0 00-.371.644zM210.443 115.622a.425.425 0 10.425-.736.425.425 0 00-.425.736z" fill="#fff"/><path opacity=".4" d="M210.495 115.537a.327.327 0 00.327-.565.327.327 0 00-.327.565z" fill="#fff"/><path opacity=".7" d="M210.55 115.439a.212.212 0 10.212-.368.212.212 0 10-.212.368z" fill="#fff"/><path d="M210.603 115.346c.051.03.116.012.145-.038a.108.108 0 00-.039-.146.106.106 0 10-.106.184z" fill="#fff"/><path opacity=".2" d="M210.4 115.7a.514.514 0 10.515-.893.514.514 0 10-.515.893zM211.851 109.453a.41.41 0 10.41-.71.41.41 0 00-.41.71z" fill="#fff"/><path opacity=".4" d="M211.904 109.368a.311.311 0 10.309-.54.311.311 0 00-.309.54z" fill="#fff"/><path opacity=".7" d="M211.957 109.276a.205.205 0 10.204-.355.205.205 0 00-.204.355z" fill="#fff"/><path d="M212.001 109.19a.106.106 0 00.145-.039.106.106 0 00-.038-.145.106.106 0 00-.145.039.106.106 0 00.038.145z" fill="#fff"/><path opacity=".2" d="M211.809 109.526a.492.492 0 10.493-.852.492.492 0 00-.493.852zM214.213 101.891c.131.075.298.03.373-.1a.272.272 0 10-.373.1z" fill="#fff"/><path opacity=".4" d="M214.246 101.832a.205.205 0 10.205-.354.205.205 0 00-.205.354z" fill="#fff"/><path opacity=".7" d="M214.279 101.772a.137.137 0 00.186-.05.137.137 0 00-.05-.187.136.136 0 00-.186.05.136.136 0 00.05.187z" fill="#fff"/><path d="M214.319 101.713a.068.068 0 00.093-.025.068.068 0 00-.025-.093.068.068 0 00-.093.025.068.068 0 00.025.093z" fill="#fff"/><path opacity=".2" d="M214.191 101.937a.325.325 0 10.326-.565.327.327 0 10-.326.565zM213.623 95.868a.539.539 0 10.539-.933.539.539 0 00-.539.933z" fill="#fff"/><path opacity=".4" d="M213.695 95.756a.41.41 0 10.41-.71.41.41 0 00-.41.71z" fill="#fff"/><path opacity=".7" d="M213.761 95.632a.266.266 0 10.266-.46.266.266 0 00-.266.46z" fill="#fff"/><path d="M213.825 95.52a.137.137 0 10.137-.236.137.137 0 00-.137.236z" fill="#fff"/><path opacity=".2" d="M213.569 95.966a.652.652 0 10.652-1.13.652.652 0 00-.652 1.13zM215.944 89.411a.356.356 0 10.357-.617.356.356 0 00-.357.617z" fill="#fff"/><path opacity=".4" d="M215.987 89.338a.273.273 0 10.273-.474.273.273 0 00-.273.474z" fill="#fff"/><path opacity=".7" d="M216.039 89.253c.084.048.19.02.238-.064a.174.174 0 00-.063-.238.175.175 0 00-.175.302z" fill="#fff"/><path d="M216.082 89.18a.09.09 0 00.124-.034.091.091 0 00-.033-.124.09.09 0 10-.091.158z" fill="#fff"/><path opacity=".2" d="M215.911 89.477a.431.431 0 10.432-.747.431.431 0 00-.432.747zM208.273 84.235a.584.584 0 10.584-1.011.584.584 0 00-.584 1.011z" fill="#fff"/><path opacity=".4" d="M208.347 84.11a.44.44 0 10.44-.76.44.44 0 00-.44.76z" fill="#fff"/><path opacity=".7" d="M208.422 83.98a.289.289 0 10.288-.5.289.289 0 00-.288.5z" fill="#fff"/><path d="M208.487 83.862a.153.153 0 00.208-.055.152.152 0 10-.208.056z" fill="#fff"/><path opacity=".2" d="M208.209 84.347a.713.713 0 10.713-1.235.713.713 0 00-.713 1.235zM207.793 78.29a.44.44 0 10.44-.762.44.44 0 00-.44.763z" fill="#fff"/><path opacity=".4" d="M207.846 78.198a.334.334 0 10.334-.578.334.334 0 00-.334.578z" fill="#fff"/><path opacity=".7" d="M207.9 78.1a.22.22 0 00.301-.08.221.221 0 00-.081-.3.22.22 0 00-.22.381z" fill="#fff"/><path d="M207.954 78.008a.113.113 0 10.113-.197.113.113 0 00-.155.041.113.113 0 00.042.156z" fill="#fff"/><path opacity=".2" d="M207.741 78.369a.532.532 0 10.531-.922.532.532 0 00-.531.922zM204.687 73.074a.645.645 0 10.645-1.117.645.645 0 00-.645 1.117z" fill="#fff"/><path opacity=".4" d="M204.762 72.942a.494.494 0 10.493-.855.494.494 0 00-.493.855z" fill="#fff"/><path opacity=".7" d="M204.848 72.791a.318.318 0 10.318-.551.318.318 0 00-.318.551z" fill="#fff"/><path d="M204.923 72.66a.167.167 0 10.167-.29.167.167 0 00-.167.29z" fill="#fff"/><path opacity=".2" d="M204.613 73.198a.79.79 0 10.789-1.367.79.79 0 00-.789 1.367zM197.06 71.341a.6.6 0 10.6-1.038.6.6 0 00-.6 1.038z" fill="#fff"/><path opacity=".4" d="M197.134 71.217a.456.456 0 10.455-.789.456.456 0 00-.455.79z" fill="#fff"/><path opacity=".7" d="M197.21 71.078a.295.295 0 10.296-.511.295.295 0 00-.296.511z" fill="#fff"/><path d="M197.284 70.954a.153.153 0 00.208-.056.152.152 0 10-.208.056z" fill="#fff"/><path opacity=".2" d="M196.997 71.446a.721.721 0 10.721-1.249.721.721 0 00-.721 1.25zM193.158 67.68a.509.509 0 10.509-.882.509.509 0 00-.509.881z" fill="#fff"/><path opacity=".4" d="M193.222 67.575a.386.386 0 10.386-.67.386.386 0 00-.386.67z" fill="#fff"/><path opacity=".7" d="M193.287 67.455a.25.25 0 10.25-.433.25.25 0 00-.25.433z" fill="#fff"/><path d="M193.35 67.35a.129.129 0 10.129-.223.129.129 0 00-.129.223z" fill="#fff"/><path opacity=".2" d="M193.104 67.777a.622.622 0 10.622-1.078.622.622 0 00-.622 1.078zM191.346 56.552a.394.394 0 10.394-.681.394.394 0 00-.394.681z" fill="#fff"/><path opacity=".4" d="M191.398 56.467a.296.296 0 10.296-.513.296.296 0 00-.296.513z" fill="#fff"/><path opacity=".7" d="M191.45 56.382a.197.197 0 10.198-.34.197.197 0 00-.198.34z" fill="#fff"/><path d="M191.495 56.296a.098.098 0 00.134-.036.098.098 0 00-.036-.134.098.098 0 00-.134.036.097.097 0 00.036.134z" fill="#fff"/><path opacity=".2" d="M191.303 56.623a.478.478 0 10.478-.827.478.478 0 00-.478.827zM184.822 56.395a.22.22 0 00.301-.08.221.221 0 00-.081-.3.22.22 0 00-.22.381z" fill="#fff"/><path opacity=".4" d="M184.853 56.349a.167.167 0 10.167-.29.167.167 0 00-.167.29z" fill="#fff"/><path opacity=".7" d="M184.884 56.296a.106.106 0 10.106-.184.106.106 0 00-.106.184z" fill="#fff"/><path d="M184.907 56.251a.052.052 0 00.072-.02.053.053 0 00-.019-.072.052.052 0 00-.072.02.053.053 0 00.019.072z" fill="#fff"/><path opacity=".2" d="M184.8 56.434a.266.266 0 10.266-.46.266.266 0 00-.266.46zM177.818 57.158a.485.485 0 10.485-.84.485.485 0 00-.485.84z" fill="#fff"/><path opacity=".4" d="M177.872 57.058a.372.372 0 10.372-.644.372.372 0 00-.372.644z" fill="#fff"/><path opacity=".7" d="M177.936 56.946a.243.243 0 10.243-.421.243.243 0 00-.243.421z" fill="#fff"/><path d="M177.999 56.841a.122.122 0 10.122-.21.122.122 0 00-.122.21z" fill="#fff"/><path opacity=".2" d="M177.764 57.248a.593.593 0 10.592-1.027.593.593 0 00-.592 1.027zM171.392 61.849a.63.63 0 10.63-1.09.63.63 0 00-.63 1.09z" fill="#fff"/><path opacity=".4" d="M171.467 61.717a.478.478 0 10.478-.828.478.478 0 00-.478.828z" fill="#fff"/><path opacity=".7" d="M171.552 61.573a.311.311 0 10.311-.539.311.311 0 00-.311.54z" fill="#fff"/><path d="M171.627 61.441a.16.16 0 00.218-.058.159.159 0 00-.059-.217.16.16 0 00-.159.276z" fill="#fff"/><path opacity=".2" d="M171.327 61.968a.767.767 0 10.766-1.329.767.767 0 00-.766 1.329zM163.919 49.907a.66.66 0 10.66-1.144.66.66 0 00-.66 1.144z" fill="#fff"/><path opacity=".4" d="M164.003 49.77a.5.5 0 10.5-.867.5.5 0 00-.5.867z" fill="#fff"/><path opacity=".7" d="M164.089 49.617a.327.327 0 10.326-.566.327.327 0 00-.326.566z" fill="#fff"/><path d="M164.173 49.48a.167.167 0 10.167-.29.167.167 0 00-.167.29z" fill="#fff"/><path opacity=".2" d="M163.854 50.026a.796.796 0 10.797-1.38.796.796 0 00-.797 1.38zM157.39 51.852a.357.357 0 10.356-.618.357.357 0 00-.356.618z" fill="#fff"/><path opacity=".4" d="M157.424 51.78a.273.273 0 10.273-.473.273.273 0 00-.273.472z" fill="#fff"/><path opacity=".7" d="M157.477 51.696a.174.174 0 10.174-.302.174.174 0 00-.174.302z" fill="#fff"/><path d="M157.519 51.623a.09.09 0 00.124-.033.09.09 0 10-.157-.091c-.025.043-.01.099.033.124z" fill="#fff"/><path opacity=".2" d="M157.348 51.918a.433.433 0 10.433-.75.433.433 0 00-.433.75z" fill="#fff"/><defs><linearGradient id="prefix__paint0_linear_2440_18116" x1="49.755" y1="11.602" x2="330.548" y2="173.717" gradientUnits="userSpaceOnUse"><stop stop-color="#fff" stop-opacity=".01"/><stop offset=".02" stop-color="#fff" stop-opacity=".2"/><stop offset=".05" stop-color="#fff" stop-opacity=".37"/><stop offset=".08" stop-color="#fff" stop-opacity=".52"/><stop offset=".11" stop-color="#fff" stop-opacity=".65"/><stop offset=".14" stop-color="#fff" stop-opacity=".76"/><stop offset=".18" stop-color="#fff" stop-opacity=".85"/><stop offset=".22" stop-color="#fff" stop-opacity=".92"/><stop offset=".27" stop-color="#fff" stop-opacity=".96"/><stop offset=".34" stop-color="#fff" stop-opacity=".99"/><stop offset=".52" stop-color="#fff"/><stop offset=".65" stop-color="#fff" stop-opacity=".99"/><stop offset=".71" stop-color="#fff" stop-opacity=".96"/><stop offset=".77" stop-color="#fff" stop-opacity=".91"/><stop offset=".81" stop-color="#fff" stop-opacity=".84"/><stop offset=".85" stop-color="#fff" stop-opacity=".74"/><stop offset=".89" stop-color="#fff" stop-opacity=".62"/><stop offset=".92" stop-color="#fff" stop-opacity=".48"/><stop offset=".95" stop-color="#fff" stop-opacity=".32"/><stop offset=".98" stop-color="#fff" stop-opacity=".14"/><stop offset="1" stop-color="#fff" stop-opacity="0"/></linearGradient></defs></svg>