<svg width="321" height="180" fill="none" xmlns="http://www.w3.org/2000/svg"><path d="M71.56 233.605C2.082 164.348 50.008 46.999 148.431 47.151a109.188 109.188 0 0176.865 32.716c-41.971-41.637-111.311-41.06-152.66 1.07-42.025 41.493-42.616 110.552-1.078 152.668zM225.306 79.86c69.476 69.256 21.55 186.605-76.873 186.454a109.192 109.192 0 01-76.865-32.717c41.971 41.637 111.311 41.061 152.661-1.07 42.024-41.493 42.615-110.552 1.077-152.668z" fill="#fff"/><path d="M217.105 138.329c-7.881-25.434 13.821-51.468 40.409-47.144 14.647 2.146 27.308 13.707 30.494 28.15a36.74 36.74 0 00-44.503-24.36 36.736 36.736 0 00-26.4 43.324v.03z" fill="#fff"/><path d="M288.004 119.336c7.874 25.434-13.821 51.468-40.408 47.152-14.648-2.154-27.308-13.715-30.502-28.158a36.735 36.735 0 0044.564 24.508 36.736 36.736 0 0026.346-43.502zM166.834 88.06c-25.973-5.894-37.67-37.7-20.633-58.569 9.194-11.575 25.525-16.794 39.627-12.334a36.737 36.737 0 00-18.964 70.903h-.03z" fill="#fff"/><path d="M185.83 17.156c25.966 5.902 37.663 37.708 20.633 58.576-9.194 11.606-25.526 16.787-39.635 12.335a36.739 36.739 0 0043.528-26.337 36.739 36.739 0 00-24.526-44.574zm-87.666 89.305c-18.092 19.541-51.483 13.768-61.041-11.424-5.454-13.76-1.775-30.502 9.102-40.484a36.737 36.737 0 0051.909 51.908h.03zM46.261 54.56c18.084-19.54 51.484-13.767 61.034 11.417 5.462 13.76 1.783 30.502-9.103 40.484a36.73 36.73 0 00-51.9-51.9h-.03zM79.76 175.135c7.881 25.434-13.821 51.468-40.409 47.144-14.648-2.146-27.308-13.707-30.494-28.15a36.74 36.74 0 0044.503 24.36 36.737 36.737 0 0026.4-43.324v-.03z" fill="#fff"/><path d="M8.855 194.128c-7.874-25.434 13.821-51.468 40.409-47.152 14.648 2.154 27.308 13.715 30.502 28.158a36.738 36.738 0 00-70.91 18.964v.03z" fill="#fff"/><path opacity=".2" d="M218.066 78.1a.713.713 0 101.426 0 .713.713 0 00-1.426 0z" fill="#fff"/><path opacity=".4" d="M218.243 78.1a.539.539 0 101.077 0 .539.539 0 00-1.077 0z" fill="#fff"/><path opacity=".7" d="M218.42 78.099a.356.356 0 10.712 0 .356.356 0 00-.712 0z" fill="#fff"/><path d="M218.597 78.1a.182.182 0 10.363 0 .182.182 0 00-.363 0z" fill="#fff"/><path opacity=".2" d="M217.911 78.1a.865.865 0 101.73 0 .865.865 0 00-1.73 0zm.229-11.697a.508.508 0 101.016 0 .508.508 0 00-1.016 0z" fill="#fff"/><path opacity=".4" d="M218.265 66.403a.387.387 0 10.775-.002.387.387 0 00-.775.002z" fill="#fff"/><path opacity=".7" d="M218.398 66.403a.25.25 0 10.5 0 .25.25 0 00-.5 0z" fill="#fff"/><path d="M218.523 66.402a.13.13 0 10.258 0 .13.13 0 00-.258 0z" fill="#fff"/><path opacity=".2" d="M218.037 66.403a.614.614 0 101.229 0 .614.614 0 00-1.229 0zm-12.097 7.016a.295.295 0 10.59 0 .295.295 0 00-.59 0z" fill="#fff"/><path opacity=".4" d="M206.006 73.419a.227.227 0 10.455 0 .227.227 0 00-.455 0z" fill="#fff"/><path opacity=".7" d="M206.079 73.42a.152.152 0 10.304 0 .152.152 0 00-.304 0z" fill="#fff"/><path d="M206.153 73.42a.076.076 0 10.152 0 .076.076 0 00-.152 0z" fill="#fff"/><path opacity=".2" d="M205.866 73.419a.364.364 0 10.728 0 .364.364 0 00-.728 0zm-2.533-6.675a.212.212 0 10.424 0 .212.212 0 00-.424 0z" fill="#fff"/><path opacity=".4" d="M203.377 66.745a.167.167 0 10.334 0 .167.167 0 00-.334 0z" fill="#fff"/><path opacity=".7" d="M203.444 66.745a.106.106 0 10.212 0 .106.106 0 10-.212 0z" fill="#fff"/><path d="M203.495 66.745a.053.053 0 00.107 0 .053.053 0 00-.107 0z" fill="#fff"/><path opacity=".2" d="M203.282 66.744a.265.265 0 10.53 0 .265.265 0 10-.53 0zM199.87 60a.44.44 0 10.88 0 .44.44 0 00-.88 0z" fill="#fff"/><path opacity=".4" d="M199.973 60a.334.334 0 10.668-.001.334.334 0 00-.668 0z" fill="#fff"/><path opacity=".7" d="M200.091 60.001a.22.22 0 10.44 0 .22.22 0 00-.44 0z" fill="#fff"/><path d="M200.194 60a.114.114 0 10.228 0 .114.114 0 00-.228 0z" fill="#fff"/><path opacity=".2" d="M199.767 60a.538.538 0 101.077 0 .538.538 0 00-1.077 0zm-6.073-1.312a.243.243 0 10.486 0 .243.243 0 00-.486 0z" fill="#fff"/><path opacity=".4" d="M193.753 58.688a.182.182 0 10.365 0 .182.182 0 00-.365 0z" fill="#fff"/><path opacity=".7" d="M193.812 58.688a.12.12 0 00.121.121.122.122 0 00.122-.121.122.122 0 00-.122-.122.121.121 0 00-.121.122z" fill="#fff"/><path d="M193.879 58.688a.06.06 0 10.121 0 .06.06 0 10-.121 0z" fill="#fff"/><path opacity=".2" d="M193.643 58.688a.296.296 0 10.591 0 .296.296 0 00-.591 0zm-7.103 3.102a.273.273 0 10.546.001.273.273 0 00-.546 0z" fill="#fff"/><path opacity=".4" d="M186.606 61.79a.205.205 0 10.41 0 .205.205 0 00-.41 0z" fill="#fff"/><path opacity=".7" d="M186.68 61.79a.137.137 0 10.273 0 .137.137 0 00-.273 0z" fill="#fff"/><path d="M186.746 61.79c0 .039.031.07.069.07a.07.07 0 00.068-.07.068.068 0 00-.137 0z" fill="#fff"/><path opacity=".2" d="M186.481 61.79a.334.334 0 10.667.001.334.334 0 00-.667 0zm-4.251-6.22a.584.584 0 101.169 0 .584.584 0 00-1.169 0z" fill="#fff"/><path opacity=".4" d="M182.378 55.57a.44.44 0 10.88 0 .44.44 0 00-.88 0z" fill="#fff"/><path opacity=".7" d="M182.525 55.57a.288.288 0 10.576 0 .288.288 0 00-.576 0z" fill="#fff"/><path d="M182.665 55.57a.152.152 0 10.304 0 .152.152 0 00-.304 0z" fill="#fff"/><path opacity=".2" d="M182.113 55.57a.705.705 0 101.41.002.705.705 0 00-1.41-.001zm-4.976-2.707a.6.6 0 101.2-.001.6.6 0 00-1.2 0z" fill="#fff"/><path opacity=".4" d="M177.277 52.861a.455.455 0 10.91 0 .455.455 0 00-.91 0z" fill="#fff"/><path opacity=".7" d="M177.44 52.862a.295.295 0 10.59.001.295.295 0 00-.59 0z" fill="#fff"/><path d="M177.579 52.863a.152.152 0 10.304 0 .152.152 0 00-.304 0z" fill="#fff"/><path opacity=".2" d="M177.005 52.863a.728.728 0 101.456 0 .728.728 0 00-1.456 0zm-5.008-3.588a.47.47 0 10.94 0 .47.47 0 00-.94 0z" fill="#fff"/><path opacity=".4" d="M172.115 49.275a.357.357 0 10.714-.001.357.357 0 00-.714 0z" fill="#fff"/><path opacity=".7" d="M172.233 49.274a.235.235 0 10.47 0 .235.235 0 00-.47 0z" fill="#fff"/><path d="M172.351 49.274a.12.12 0 00.121.121.122.122 0 00.122-.121.122.122 0 00-.122-.122.121.121 0 00-.121.122z" fill="#fff"/><path opacity=".2" d="M171.901 49.274a.57.57 0 101.138 0 .57.57 0 00-1.138 0zm-3.44-6.979a.516.516 0 101.031 0 .516.516 0 00-1.031 0z" fill="#fff"/><path opacity=".4" d="M168.593 42.295a.387.387 0 10.775-.001.387.387 0 00-.775.001z" fill="#fff"/><path opacity=".7" d="M168.719 42.295a.257.257 0 10.515.001.257.257 0 00-.515-.001z" fill="#fff"/><path d="M168.851 42.295a.13.13 0 10.258 0 .13.13 0 00-.258 0z" fill="#fff"/><path opacity=".2" d="M168.358 42.296a.622.622 0 101.243 0 .622.622 0 00-1.243 0zm-7.537 3.754a.281.281 0 10.562 0 .281.281 0 00-.562 0z" fill="#fff"/><path opacity=".4" d="M160.896 46.05a.212.212 0 10.425 0 .212.212 0 00-.425 0z" fill="#fff"/><path opacity=".7" d="M160.969 46.05a.137.137 0 10.273 0 .137.137 0 00-.273 0z" fill="#fff"/><path d="M161.035 46.05a.069.069 0 10.137 0 .069.069 0 00-.137 0z" fill="#fff"/><path opacity=".2" d="M160.763 46.05a.34.34 0 10.681.002.34.34 0 00-.681-.002zm-6.016 8.01a.728.728 0 101.456 0 .728.728 0 00-1.456 0z" fill="#fff"/><path opacity=".4" d="M154.931 54.06a.546.546 0 101.093 0 .546.546 0 00-1.093 0z" fill="#fff"/><path opacity=".7" d="M155.123 54.06a.356.356 0 10.712 0 .356.356 0 00-.712 0z" fill="#fff"/><path d="M155.292 54.061a.182.182 0 10.365 0 .182.182 0 00-.365 0z" fill="#fff"/><path opacity=".2" d="M154.6 54.062a.88.88 0 101.758.001.88.88 0 00-1.758-.001zm-5.997.303a.675.675 0 101.35 0 .675.675 0 00-1.35 0z" fill="#fff"/><path opacity=".4" d="M148.765 54.364a.516.516 0 101.032 0 .516.516 0 00-1.032 0z" fill="#fff"/><path opacity=".7" d="M148.95 54.365a.333.333 0 10.667.001.333.333 0 00-.667-.001z" fill="#fff"/><path d="M149.104 54.364a.175.175 0 10.349 0 .175.175 0 00-.349 0z" fill="#fff"/><path opacity=".2" d="M148.463 54.364a.82.82 0 101.639 0 .82.82 0 00-1.639 0zm-6.185-3.519a.599.599 0 101.198 0 .599.599 0 00-1.198 0z" fill="#fff"/><path opacity=".4" d="M142.426 50.844a.455.455 0 10.91 0 .455.455 0 00-.91 0z" fill="#fff"/><path opacity=".7" d="M142.58 50.845a.296.296 0 10.592-.001.296.296 0 00-.592 0z" fill="#fff"/><path d="M142.728 50.845a.152.152 0 10.304 0 .152.152 0 00-.304 0z" fill="#fff"/><path opacity=".2" d="M142.16 50.844a.72.72 0 101.442 0 .72.72 0 00-1.442 0zm-6.098 1.336a.387.387 0 10.774 0 .387.387 0 00-.774 0z" fill="#fff"/><path opacity=".4" d="M136.158 52.18a.296.296 0 10.592 0 .296.296 0 00-.592 0z" fill="#fff"/><path opacity=".7" d="M136.254 52.18a.197.197 0 10.394 0 .197.197 0 00-.394 0z" fill="#fff"/><path d="M136.357 52.179a.1.1 0 00.198 0 .1.1 0 00-.198 0z" fill="#fff"/><path opacity=".2" d="M135.981 52.18a.47.47 0 10.942-.002.47.47 0 00-.942.001zm-6.226-3.702a.22.22 0 10.44 0 .22.22 0 00-.44 0z" fill="#fff"/><path opacity=".4" d="M129.807 48.477a.167.167 0 10.334 0 .167.167 0 00-.334 0z" fill="#fff"/><path opacity=".7" d="M129.866 48.477a.106.106 0 10.212 0 .106.106 0 10-.212 0z" fill="#fff"/><path d="M129.925 48.477c0 .03.024.053.053.053a.053.053 0 000-.106.053.053 0 00-.053.053z" fill="#fff"/><path opacity=".2" d="M129.711 48.478a.266.266 0 10.531 0 .266.266 0 00-.531 0zm-6.242-1.548a.274.274 0 10.547-.002.274.274 0 00-.547.001z" fill="#fff"/><path opacity=".4" d="M123.536 46.931a.204.204 0 10.409.001.204.204 0 00-.409 0z" fill="#fff"/><path opacity=".7" d="M123.602 46.931a.136.136 0 10.273 0 .136.136 0 00-.273 0z" fill="#fff"/><path d="M123.668 46.93a.069.069 0 00.137 0 .069.069 0 00-.137 0z" fill="#fff"/><path opacity=".2" d="M123.41 46.93a.326.326 0 10.652 0 .326.326 0 00-.652 0zm-5.834 1.79a.357.357 0 10.714 0 .357.357 0 00-.714 0z" fill="#fff"/><path opacity=".4" d="M117.665 48.72a.273.273 0 10.546 0 .273.273 0 00-.546 0z" fill="#fff"/><path opacity=".7" d="M117.76 48.721a.174.174 0 10.175-.174.175.175 0 00-.175.174z" fill="#fff"/><path d="M117.841 48.72a.091.091 0 10.182 0 .091.091 0 00-.182 0z" fill="#fff"/><path opacity=".2" d="M117.502 48.721a.433.433 0 10.866 0 .433.433 0 00-.866 0zm-7.226-.199a.44.44 0 10.88 0 .44.44 0 00-.88 0z" fill="#fff"/><path opacity=".4" d="M110.379 48.523a.334.334 0 10.668 0 .334.334 0 00-.668 0z" fill="#fff"/><path opacity=".7" d="M110.498 48.523a.22.22 0 10.44 0 .22.22 0 00-.44 0z" fill="#fff"/><path d="M110.601 48.524a.114.114 0 10.227 0 .114.114 0 00-.227 0z" fill="#fff"/><path opacity=".2" d="M110.18 48.523a.531.531 0 101.062 0 .531.531 0 00-1.062 0zm-3.888 9.149a.31.31 0 10.622 0 .31.31 0 00-.622 0z" fill="#fff"/><path opacity=".4" d="M106.366 57.67a.235.235 0 10.47.001.235.235 0 00-.47 0z" fill="#fff"/><path opacity=".7" d="M106.454 57.671a.152.152 0 10.304 0 .152.152 0 00-.304 0z" fill="#fff"/><path d="M106.528 57.672a.076.076 0 10.152 0 .076.076 0 00-.152 0z" fill="#fff"/><path opacity=".2" d="M106.233 57.67a.372.372 0 10.744 0 .372.372 0 00-.744 0zm-6.655-.94a.258.258 0 10.516 0 .258.258 0 00-.516 0z" fill="#fff"/><path opacity=".4" d="M99.644 56.73a.19.19 0 10.38 0 .19.19 0 00-.38 0z" fill="#fff"/><path opacity=".7" d="M99.71 56.73a.13.13 0 10.259 0 .13.13 0 00-.258 0z" fill="#fff"/><path d="M99.77 56.73a.068.068 0 10.136 0 .068.068 0 00-.136 0z" fill="#fff"/><path opacity=".2" d="M99.526 56.73a.31.31 0 10.622.001.31.31 0 00-.622 0zm-3.941 5.896a.63.63 0 101.259 0 .63.63 0 00-1.26 0z" fill="#fff"/><path opacity=".4" d="M95.732 62.624a.478.478 0 10.956 0 .478.478 0 00-.956 0z" fill="#fff"/><path opacity=".7" d="M95.901 62.626a.311.311 0 10.623 0 .311.311 0 00-.623 0z" fill="#fff"/><path d="M96.049 62.626a.16.16 0 10.318 0 .16.16 0 00-.318 0z" fill="#fff"/><path opacity=".2" d="M95.444 62.626a.766.766 0 101.533 0 .766.766 0 00-1.533 0zm-7.592-1.519a.402.402 0 10.804 0 .402.402 0 00-.804 0z" fill="#fff"/><path opacity=".4" d="M87.948 61.108a.303.303 0 10.607 0 .303.303 0 00-.607 0z" fill="#fff"/><path opacity=".7" d="M88.059 61.107a.197.197 0 10.394 0 .197.197 0 00-.394 0z" fill="#fff"/><path d="M88.147 61.108a.106.106 0 10.212 0 .106.106 0 00-.212 0z" fill="#fff"/><path opacity=".2" d="M87.771 61.108a.486.486 0 10.971 0 .486.486 0 00-.97 0zm.294 10.93a.569.569 0 101.138 0 .569.569 0 00-1.138 0z" fill="#fff"/><path opacity=".4" d="M88.198 72.04a.432.432 0 10.864 0 .432.432 0 00-.864 0z" fill="#fff"/><path opacity=".7" d="M88.353 72.038a.28.28 0 10.561 0 .28.28 0 00-.561 0z" fill="#fff"/><path d="M88.485 72.039a.144.144 0 10.288 0 .144.144 0 00-.288 0z" fill="#fff"/><path opacity=".2" d="M87.94 72.04a.69.69 0 101.38 0 .69.69 0 00-1.38 0zm-4.903 3.412a.364.364 0 10.729 0 .364.364 0 00-.729 0z" fill="#fff"/><path opacity=".4" d="M83.118 75.453a.28.28 0 10.562 0 .28.28 0 00-.562 0z" fill="#fff"/><path opacity=".7" d="M83.214 75.452a.182.182 0 10.364 0 .182.182 0 00-.364 0z" fill="#fff"/><path d="M83.31 75.452a.091.091 0 10.182 0 .091.091 0 00-.182 0z" fill="#fff"/><path opacity=".2" d="M82.949 75.451a.447.447 0 10.895 0 .447.447 0 00-.895 0zm-8.163-1.879a.478.478 0 10.956 0 .478.478 0 00-.956 0z" fill="#fff"/><path opacity=".4" d="M74.905 73.571a.364.364 0 10.728 0 .364.364 0 00-.728 0z" fill="#fff"/><path opacity=".7" d="M75.03 73.571a.235.235 0 10.47 0 .235.235 0 00-.47 0z" fill="#fff"/><path d="M75.148 73.57a.121.121 0 10.242 0 .121.121 0 00-.242 0z" fill="#fff"/><path opacity=".2" d="M74.683 73.57a.584.584 0 101.169 0 .584.584 0 00-1.169 0zm-8.304 3.186a.455.455 0 10.91 0 .455.455 0 00-.91 0z" fill="#fff"/><path opacity=".4" d="M66.482 76.757a.349.349 0 10.698 0 .349.349 0 00-.698 0z" fill="#fff"/><path opacity=".7" d="M66.607 76.757a.227.227 0 10.455 0 .227.227 0 00-.455 0z" fill="#fff"/><path d="M66.718 76.756a.114.114 0 10.227 0 .114.114 0 00-.227 0z" fill="#fff"/><path opacity=".2" d="M66.275 76.757a.554.554 0 101.108 0 .554.554 0 00-1.108 0zm3.582 9.68a.614.614 0 101.229 0 .614.614 0 00-1.229 0z" fill="#fff"/><path opacity=".4" d="M70.012 86.435a.463.463 0 10.925 0 .463.463 0 00-.925 0z" fill="#fff"/><path opacity=".7" d="M70.167 86.436a.303.303 0 10.606 0 .303.303 0 00-.606 0z" fill="#fff"/><path d="M70.314 86.437a.16.16 0 10.319 0 .16.16 0 00-.319 0z" fill="#fff"/><path opacity=".2" d="M69.732 86.437a.743.743 0 101.487 0 .743.743 0 00-1.487 0zm-10.914-1.344a.349.349 0 10.698 0 .349.349 0 00-.698 0z" fill="#fff"/><path opacity=".4" d="M58.907 85.094a.266.266 0 10.53 0 .266.266 0 00-.53 0z" fill="#fff"/><path opacity=".7" d="M58.995 85.094a.175.175 0 10.349 0 .175.175 0 00-.35 0z" fill="#fff"/><path d="M59.076 85.093a.091.091 0 10.182 0 .091.091 0 00-.182 0z" fill="#fff"/><path opacity=".2" d="M58.744 85.093a.425.425 0 10.85 0 .425.425 0 00-.85 0zm2.29 8.397a.569.569 0 101.138 0 .569.569 0 00-1.138 0z" fill="#fff"/><path opacity=".4" d="M61.174 93.491a.432.432 0 10.865 0 .432.432 0 00-.865 0z" fill="#fff"/><path opacity=".7" d="M61.322 93.49a.28.28 0 10.56 0 .28.28 0 00-.56 0z" fill="#fff"/><path d="M61.462 93.492a.144.144 0 10.288 0 .144.144 0 00-.288 0z" fill="#fff"/><path opacity=".2" d="M60.916 93.491a.69.69 0 101.38 0 .69.69 0 00-1.38 0zm-2.113 5.522a.228.228 0 10.455 0 .228.228 0 00-.455 0z" fill="#fff"/><path opacity=".4" d="M58.87 99.013a.167.167 0 10.333 0 .167.167 0 00-.334 0z" fill="#fff"/><path opacity=".7" d="M58.92 99.012a.114.114 0 10.228 0 .114.114 0 00-.227 0z" fill="#fff"/><path d="M58.972 99.014a.06.06 0 10.122 0 .06.06 0 00-.122 0z" fill="#fff"/><path opacity=".2" d="M58.758 99.013a.273.273 0 10.547 0 .273.273 0 00-.547 0zm-6.605 1.981a.47.47 0 10.941-.001.47.47 0 00-.94.001z" fill="#fff"/><path opacity=".4" d="M52.264 100.993a.357.357 0 10.713 0 .357.357 0 00-.713 0z" fill="#fff"/><path opacity=".7" d="M52.39 100.993a.235.235 0 10.469 0 .235.235 0 00-.47 0z" fill="#fff"/><path d="M52.5 100.992c0 .067.054.122.12.122a.122.122 0 00.122-.122.121.121 0 00-.242 0z" fill="#fff"/><path opacity=".2" d="M52.057 100.993a.57.57 0 101.139 0 .57.57 0 00-1.139 0zm-1.489 7.123a.22.22 0 10.44 0 .22.22 0 00-.44 0z" fill="#fff"/><path opacity=".4" d="M50.62 108.116a.167.167 0 10.334 0 .167.167 0 00-.335 0z" fill="#fff"/><path opacity=".7" d="M50.678 108.116c0 .059.048.106.106.106a.106.106 0 100-.212.106.106 0 00-.106.106z" fill="#fff"/><path d="M50.737 108.116c0 .029.024.053.054.053a.053.053 0 000-.107.053.053 0 00-.054.054z" fill="#fff"/><path opacity=".2" d="M50.524 108.115a.266.266 0 10.531 0 .266.266 0 00-.531 0zm-1.59 6.768a.455.455 0 10.91 0 .455.455 0 00-.91 0z" fill="#fff"/><path opacity=".4" d="M49.044 114.882a.342.342 0 10.683 0 .342.342 0 00-.683 0z" fill="#fff"/><path opacity=".7" d="M49.154 114.882c0 .126.102.227.228.227a.228.228 0 10-.228-.227z" fill="#fff"/><path d="M49.272 114.881a.114.114 0 10.228 0 .114.114 0 00-.228 0z" fill="#fff"/><path opacity=".2" d="M48.83 114.882a.554.554 0 101.108 0 .554.554 0 00-1.108 0zm-9.442 3.483a.478.478 0 10.956 0 .478.478 0 00-.956 0z" fill="#fff"/><path opacity=".4" d="M39.498 118.364a.364.364 0 10.729 0 .364.364 0 00-.729 0z" fill="#fff"/><path opacity=".7" d="M39.631 118.364a.235.235 0 10.47 0 .235.235 0 00-.47 0z" fill="#fff"/><path d="M39.742 118.364a.121.121 0 00.242 0 .122.122 0 00-.121-.122.122.122 0 00-.121.122z" fill="#fff"/><path opacity=".2" d="M39.292 118.364a.576.576 0 101.153 0 .576.576 0 00-1.153 0zm5.335 7.881a.554.554 0 101.108 0 .554.554 0 00-1.108 0z" fill="#fff"/><path opacity=".4" d="M44.767 126.245a.418.418 0 10.835 0 .418.418 0 00-.835 0z" fill="#fff"/><path opacity=".7" d="M44.907 126.246a.273.273 0 10.546 0 .273.273 0 00-.546 0z" fill="#fff"/><path d="M45.04 126.246a.144.144 0 00.288 0 .144.144 0 00-.144-.144.144.144 0 00-.144.144z" fill="#fff"/><path opacity=".2" d="M44.51 126.245a.676.676 0 101.35 0 .676.676 0 00-1.35 0zm.75 6.152a.433.433 0 10.866 0 .433.433 0 00-.866 0z" fill="#fff"/><path opacity=".4" d="M45.363 132.398a.326.326 0 10.653.001.326.326 0 00-.653-.001z" fill="#fff"/><path opacity=".7" d="M45.481 132.398a.212.212 0 10.425 0 .212.212 0 00-.425 0z" fill="#fff"/><path d="M45.577 132.397a.114.114 0 10.228 0 .114.114 0 00-.228 0z" fill="#fff"/><path opacity=".2" d="M45.164 132.398a.524.524 0 101.048 0 .524.524 0 00-1.048 0zm-4.035 4.983a.72.72 0 101.44 0 .72.72 0 00-1.44 0z" fill="#fff"/><path opacity=".4" d="M41.306 137.38a.546.546 0 101.092 0 .546.546 0 00-1.092 0z" fill="#fff"/><path opacity=".7" d="M41.498 137.38a.356.356 0 10.712 0 .356.356 0 00-.712 0z" fill="#fff"/><path d="M41.667 137.381a.182.182 0 10.364 0 .182.182 0 00-.364 0z" fill="#fff"/><path opacity=".2" d="M40.974 137.382a.88.88 0 101.76 0 .88.88 0 00-1.76 0zm-5.062 5.885a.622.622 0 101.245 0 .622.622 0 00-1.245 0z" fill="#fff"/><path opacity=".4" d="M36.067 143.267a.47.47 0 10.94 0 .47.47 0 00-.94 0z" fill="#fff"/><path opacity=".7" d="M36.222 143.268a.31.31 0 10.621 0 .31.31 0 00-.621 0z" fill="#fff"/><path d="M36.377 143.267a.159.159 0 00.318 0 .16.16 0 00-.159-.16.16.16 0 00-.16.16z" fill="#fff"/><path opacity=".2" d="M35.78 143.268a.759.759 0 101.518 0 .759.759 0 00-1.518 0zm7.315 6.478a.28.28 0 10.56 0 .28.28 0 00-.56 0z" fill="#fff"/><path opacity=".4" d="M43.161 149.746a.212.212 0 10.425 0 .212.212 0 00-.425 0z" fill="#fff"/><path opacity=".7" d="M43.242 149.746a.136.136 0 10.273 0 .136.136 0 00-.273 0z" fill="#fff"/><path d="M43.309 149.746c0 .038.03.068.068.068a.068.068 0 100-.136.068.068 0 00-.068.068z" fill="#fff"/><path opacity=".2" d="M43.036 149.746a.341.341 0 10.683 0 .341.341 0 00-.683 0zm2.212 6.47a.614.614 0 101.228 0 .614.614 0 00-1.228 0z" fill="#fff"/><path opacity=".4" d="M45.403 156.217a.462.462 0 10.925-.001.462.462 0 00-.925.001z" fill="#fff"/><path opacity=".7" d="M45.565 156.216a.303.303 0 10.607-.001.303.303 0 00-.607.001z" fill="#fff"/><path d="M45.705 156.216a.16.16 0 10.318 0 .16.16 0 00-.318 0z" fill="#fff"/><path opacity=".2" d="M45.123 156.216a.743.743 0 101.485 0 .743.743 0 00-1.485 0zm-7.602 5.887a.356.356 0 10.712 0 .356.356 0 00-.712 0z" fill="#fff"/><path opacity=".4" d="M37.602 162.103a.273.273 0 10.546 0 .273.273 0 00-.546 0z" fill="#fff"/><path opacity=".7" d="M37.706 162.102a.174.174 0 10.349.001.174.174 0 00-.35-.001z" fill="#fff"/><path d="M37.787 162.103a.091.091 0 10.182 0 .091.091 0 00-.182 0z" fill="#fff"/><path opacity=".2" d="M37.448 162.102a.433.433 0 10.865 0 .433.433 0 00-.865 0zm9.183 5.448a.493.493 0 10.986 0 .493.493 0 00-.986 0z" fill="#fff"/><path opacity=".4" d="M46.749 167.549a.371.371 0 10.743.001.371.371 0 00-.743-.001z" fill="#fff"/><path opacity=".7" d="M46.882 167.549a.243.243 0 10.486 0 .243.243 0 00-.486 0z" fill="#fff"/><path d="M46.992 167.549a.13.13 0 10.258 0 .13.13 0 00-.258 0z" fill="#fff"/><path opacity=".2" d="M46.528 167.548a.6.6 0 101.2 0 .6.6 0 00-1.2 0zm-5.818 5.455a.371.371 0 10.742 0 .371.371 0 00-.742 0z" fill="#fff"/><path opacity=".4" d="M40.798 173.003a.281.281 0 10.562 0 .281.281 0 00-.562 0z" fill="#fff"/><path opacity=".7" d="M40.894 173.002a.182.182 0 10.363 0 .182.182 0 00-.363 0z" fill="#fff"/><path d="M40.99 173.003a.091.091 0 00.182 0 .091.091 0 00-.182 0z" fill="#fff"/><path opacity=".2" d="M40.628 173.004a.448.448 0 10.896 0 .448.448 0 00-.896 0zm5.691 4.286a.493.493 0 10.986 0 .493.493 0 00-.986 0z" fill="#fff"/><path opacity=".4" d="M46.437 177.289a.38.38 0 10.759 0 .38.38 0 00-.76 0z" fill="#fff"/><path opacity=".7" d="M46.562 177.289a.25.25 0 10.5.001.25.25 0 00-.5-.001z" fill="#fff"/><path d="M46.687 177.289a.13.13 0 10.259 0 .13.13 0 00-.259 0z" fill="#fff"/><path opacity=".2" d="M46.216 177.289a.599.599 0 101.198 0 .599.599 0 00-1.198 0zm213.274-.083a.357.357 0 10.714 0 .357.357 0 00-.714 0z" fill="#fff"/><path opacity=".4" d="M259.571 177.205a.273.273 0 10.545 0 .273.273 0 00-.545 0z" fill="#fff"/><path opacity=".7" d="M259.674 177.206a.174.174 0 10.35 0 .174.174 0 00-.35 0z" fill="#fff"/><path d="M259.755 177.206a.09.09 0 00.091.091.09.09 0 00.091-.091.09.09 0 00-.091-.091.091.091 0 00-.091.091z" fill="#fff"/><path opacity=".2" d="M259.417 177.206a.431.431 0 10.864 0 .432.432 0 10-.864 0zm-2.42-7.578a.478.478 0 10.956 0 .478.478 0 00-.956 0z" fill="#fff"/><path opacity=".4" d="M257.108 169.628a.364.364 0 10.728 0 .364.364 0 00-.728 0z" fill="#fff"/><path opacity=".7" d="M257.241 169.628a.235.235 0 10.47 0 .235.235 0 00-.47 0z" fill="#fff"/><path d="M257.351 169.627a.122.122 0 10.243 0 .122.122 0 00-.243 0z" fill="#fff"/><path opacity=".2" d="M256.887 169.627a.583.583 0 101.167.001.583.583 0 00-1.167-.001zm-6.49-5.378a.493.493 0 10.985 0 .493.493 0 00-.985 0z" fill="#fff"/><path opacity=".4" d="M250.514 164.249a.372.372 0 10.743-.001.372.372 0 00-.743.001z" fill="#fff"/><path opacity=".7" d="M250.647 164.249c0 .134.109.242.243.242a.242.242 0 10-.243-.242z" fill="#fff"/><path d="M250.758 164.25a.13.13 0 10.257 0 .13.13 0 00-.257 0z" fill="#fff"/><path opacity=".2" d="M250.294 164.25a.599.599 0 101.198 0 .599.599 0 00-1.198 0zm6.624-6.479a.334.334 0 10.668 0 .334.334 0 00-.668 0z" fill="#fff"/><path opacity=".4" d="M256.999 157.772a.25.25 0 10.5 0 .25.25 0 00-.5 0z" fill="#fff"/><path opacity=".7" d="M257.088 157.772a.167.167 0 10.333 0 .167.167 0 00-.333 0z" fill="#fff"/><path d="M257.169 157.771c0 .046.037.083.084.083a.084.084 0 10-.084-.083z" fill="#fff"/><path opacity=".2" d="M256.845 157.771a.41.41 0 10.82 0 .41.41 0 00-.82 0zm-5.498-6.509a.577.577 0 101.154 0 .577.577 0 00-1.154 0z" fill="#fff"/><path opacity=".4" d="M251.479 151.262a.44.44 0 10.88 0 .44.44 0 00-.88 0z" fill="#fff"/><path opacity=".7" d="M251.634 151.263a.288.288 0 10.577 0 .288.288 0 00-.577 0z" fill="#fff"/><path d="M251.767 151.263a.152.152 0 10.303 0 .152.152 0 00-.303 0z" fill="#fff"/><path opacity=".2" d="M251.214 151.262a.706.706 0 101.412 0 .706.706 0 00-1.412 0zm8.241-6.235a.546.546 0 101.092 0 .546.546 0 00-1.092 0z" fill="#fff"/><path opacity=".4" d="M259.587 145.027a.41.41 0 10.818 0 .41.41 0 00-.818 0z" fill="#fff"/><path opacity=".7" d="M259.727 145.027a.273.273 0 10.547 0 .273.273 0 00-.547 0z" fill="#fff"/><path d="M259.86 145.027a.136.136 0 10.273.001.136.136 0 00-.273-.001z" fill="#fff"/><path opacity=".2" d="M259.336 145.027a.66.66 0 101.32 0 .66.66 0 00-1.32 0zm2.297-8.177a.258.258 0 10.516 0 .258.258 0 00-.516 0z" fill="#fff"/><path opacity=".4" d="M261.691 136.85a.197.197 0 10.395 0 .197.197 0 00-.395 0z" fill="#fff"/><path opacity=".7" d="M261.758 136.85a.13.13 0 10.257 0 .13.13 0 00-.257 0z" fill="#fff"/><path d="M261.817 136.85a.068.068 0 00.136 0 .068.068 0 00-.068-.069.068.068 0 00-.068.069z" fill="#fff"/><path opacity=".2" d="M261.566 136.85a.318.318 0 10.637 0 .318.318 0 00-.637 0zm-3.851-5.817a.326.326 0 10.652 0 .326.326 0 00-.652 0z" fill="#fff"/><path opacity=".4" d="M257.796 131.032a.243.243 0 10.485 0 .243.243 0 00-.485 0z" fill="#fff"/><path opacity=".7" d="M257.885 131.032c0 .088.071.16.159.16a.16.16 0 000-.319.159.159 0 00-.159.159z" fill="#fff"/><path d="M257.958 131.033c0 .046.037.083.084.083a.084.084 0 10-.084-.083z" fill="#fff"/><path opacity=".2" d="M257.649 131.031a.394.394 0 10.789.001.394.394 0 00-.789-.001zm-5.618-5.089a.25.25 0 10.5 0 .25.25 0 00-.5 0z" fill="#fff"/><path opacity=".4" d="M252.089 125.942a.19.19 0 10.38-.001.19.19 0 00-.38.001z" fill="#fff"/><path opacity=".7" d="M252.148 125.941c0 .072.058.129.129.129a.128.128 0 00.129-.129.13.13 0 00-.258 0z" fill="#fff"/><path d="M252.207 125.941c0 .038.031.069.068.069a.07.07 0 00.069-.069.069.069 0 00-.069-.068.069.069 0 00-.068.068z" fill="#fff"/><path opacity=".2" d="M251.971 125.942a.304.304 0 10.608 0 .304.304 0 00-.608 0zm-3.724-5.188a.728.728 0 101.456 0 .728.728 0 00-1.456 0z" fill="#fff"/><path opacity=".4" d="M248.431 120.753a.546.546 0 101.092 0 .546.546 0 00-1.092 0z" fill="#fff"/><path opacity=".7" d="M248.623 120.753a.357.357 0 10.714 0 .357.357 0 00-.714 0z" fill="#fff"/><path d="M248.792 120.754a.182.182 0 10.364 0 .182.182 0 00-.364 0z" fill="#fff"/><path opacity=".2" d="M248.099 120.753a.88.88 0 101.76 0 .88.88 0 00-1.76 0zm-5.422-4.892a.478.478 0 10.956 0 .478.478 0 00-.956 0z" fill="#fff"/><path opacity=".4" d="M242.787 115.86a.364.364 0 10.729 0 .364.364 0 00-.729 0z" fill="#fff"/><path opacity=".7" d="M242.913 115.86a.235.235 0 10.47 0 .235.235 0 00-.47 0z" fill="#fff"/><path d="M243.031 115.862a.12.12 0 10.242 0 .122.122 0 00-.121-.122.122.122 0 00-.121.122z" fill="#fff"/><path opacity=".2" d="M242.574 115.862a.576.576 0 101.152 0 .576.576 0 00-1.152 0zm2.376-7.458a.607.607 0 101.215 0 .607.607 0 00-1.215 0z" fill="#fff"/><path opacity=".4" d="M245.09 108.404a.463.463 0 10.925 0 .463.463 0 00-.925 0z" fill="#fff"/><path opacity=".7" d="M245.253 108.403c0 .168.135.303.303.303a.302.302 0 00.303-.303.302.302 0 00-.303-.303.302.302 0 00-.303.303z" fill="#fff"/><path d="M245.4 108.403a.16.16 0 10.32 0 .16.16 0 00-.32 0z" fill="#fff"/><path opacity=".2" d="M244.817 108.404a.737.737 0 101.473-.001.737.737 0 00-1.473.001zm.504-6.826a.668.668 0 101.335-.001.668.668 0 00-1.335.001z" fill="#fff"/><path opacity=".4" d="M245.484 101.577a.508.508 0 101.016 0 .508.508 0 00-1.016 0z" fill="#fff"/><path opacity=".7" d="M245.653 101.576a.334.334 0 10.668 0 .334.334 0 00-.668 0z" fill="#fff"/><path d="M245.823 101.577a.166.166 0 10.333 0 .167.167 0 10-.333 0z" fill="#fff"/><path opacity=".2" d="M245.174 101.577a.811.811 0 101.622.002.811.811 0 00-1.622-.002zm-4.723-3.701a.22.22 0 10.44 0 .22.22 0 00-.44 0z" fill="#fff"/><path opacity=".4" d="M240.502 97.876a.167.167 0 10.334 0 .167.167 0 00-.334 0z" fill="#fff"/><path opacity=".7" d="M240.561 97.876a.106.106 0 10.212 0 .106.106 0 10-.212 0z" fill="#fff"/><path d="M240.62 97.875c0 .03.024.053.053.053.03 0 .054-.023.054-.053a.053.053 0 00-.054-.053.053.053 0 00-.053.053z" fill="#fff"/><path opacity=".2" d="M240.407 97.875a.265.265 0 10.53 0 .265.265 0 10-.53 0zm1.218-8.215a.523.523 0 101.046 0 .523.523 0 00-1.046 0z" fill="#fff"/><path opacity=".4" d="M241.758 89.66a.395.395 0 10.79 0 .395.395 0 00-.79 0z" fill="#fff"/><path opacity=".7" d="M241.89 89.66a.258.258 0 10.517 0 .258.258 0 00-.517 0z" fill="#fff"/><path d="M242.016 89.66a.137.137 0 10.273 0 .137.137 0 00-.273 0z" fill="#fff"/><path opacity=".2" d="M241.522 89.66a.63.63 0 101.26 0 .63.63 0 00-1.26 0zm-8.091-1.829a.28.28 0 10.562 0 .28.28 0 00-.562 0z" fill="#fff"/><path opacity=".4" d="M233.505 87.832a.212.212 0 10.425 0 .212.212 0 00-.425 0z" fill="#fff"/><path opacity=".7" d="M233.578 87.832a.137.137 0 00.274 0 .137.137 0 00-.274 0z" fill="#fff"/><path d="M233.645 87.832a.068.068 0 10.136 0 .068.068 0 00-.068-.068.068.068 0 00-.068.068z" fill="#fff"/><path opacity=".2" d="M233.372 87.832a.341.341 0 10.683 0 .341.341 0 00-.683 0zM230.914 82a.66.66 0 101.32 0 .66.66 0 00-1.32 0z" fill="#fff"/><path opacity=".4" d="M231.077 81.999a.5.5 0 101 0 .5.5 0 00-1 0z" fill="#fff"/><path opacity=".7" d="M231.246 81.998a.326.326 0 10.652 0 .326.326 0 00-.652 0z" fill="#fff"/><path d="M231.408 81.999a.167.167 0 10.334 0 .167.167 0 00-.334 0z" fill="#fff"/><path opacity=".2" d="M230.775 82a.804.804 0 101.608 0 .804.804 0 00-1.608 0zm-1.151-5.622a.5.5 0 101 0 .5.5 0 00-1 0z" fill="#fff"/><path opacity=".4" d="M229.749 76.377a.38.38 0 10.76 0 .38.38 0 00-.76 0z" fill="#fff"/><path opacity=".7" d="M229.874 76.377a.25.25 0 10.5 0 .25.25 0 00-.5 0z" fill="#fff"/><path d="M230 76.377a.13.13 0 10.258 0 .13.13 0 00-.258 0z" fill="#fff"/><path opacity=".2" d="M229.513 76.378a.614.614 0 101.229 0 .614.614 0 00-1.229 0z" fill="#fff"/><path d="M217.105 138.329c-7.881-25.434 13.821-51.468 40.409-47.144 14.647 2.146 27.308 13.707 30.494 28.15a36.74 36.74 0 00-44.503-24.36 36.736 36.736 0 00-26.4 43.324v.03z" fill="#fff"/><path d="M288.004 119.336c7.874 25.434-13.821 51.468-40.408 47.152-14.648-2.154-27.308-13.715-30.502-28.158a36.735 36.735 0 0044.564 24.508 36.736 36.736 0 0026.346-43.502z" fill="#fff"/><path opacity=".2" d="M182.073 11.77a1.221 1.221 0 102.443 0 1.221 1.221 0 00-2.443 0z" fill="#fff"/><path opacity=".4" d="M182.368 11.771a.925.925 0 101.85 0 .925.925 0 00-1.85 0z" fill="#fff"/><path opacity=".7" d="M182.685 11.77a.606.606 0 101.213.002.606.606 0 00-1.213-.001z" fill="#fff"/><path d="M182.98 11.772a.31.31 0 10.622 0 .31.31 0 00-.622 0z" fill="#fff"/><path opacity=".2" d="M181.815 11.77a1.479 1.479 0 102.958 0 1.479 1.479 0 00-2.958 0zm-12.137 14.694a1.008 1.008 0 102.017.001 1.008 1.008 0 00-2.017-.001z" fill="#fff"/><path opacity=".4" d="M169.921 26.463a.766.766 0 101.532 0 .766.766 0 00-1.532 0z" fill="#fff"/><path opacity=".7" d="M170.186 26.465a.5.5 0 101.001 0 .5.5 0 00-1.001 0z" fill="#fff"/><path d="M170.429 26.465a.258.258 0 10.517 0 .258.258 0 00-.517 0z" fill="#fff"/><path opacity=".2" d="M169.456 26.465a1.229 1.229 0 102.458 0 1.229 1.229 0 00-2.458 0zm-12.178-12.403a1.767 1.767 0 103.534 0 1.767 1.767 0 00-3.534 0z" fill="#fff"/><path opacity=".4" d="M157.705 14.062a1.335 1.335 0 102.67 0 1.335 1.335 0 00-2.67 0z" fill="#fff"/><path opacity=".7" d="M158.162 14.062a.88.88 0 101.76 0 .88.88 0 00-1.76 0z" fill="#fff"/><path d="M158.59 14.063a.455.455 0 10.91 0 .455.455 0 00-.91 0z" fill="#fff"/><path opacity=".2" d="M156.894 14.06a2.147 2.147 0 104.293 0 2.147 2.147 0 00-4.293 0zm-5.481 12.472a1.41 1.41 0 102.82.001 1.41 1.41 0 00-2.82-.001z" fill="#fff"/><path opacity=".4" d="M151.751 26.532a1.07 1.07 0 102.14 0 1.07 1.07 0 00-2.14 0z" fill="#fff"/><path opacity=".7" d="M152.128 26.534a.698.698 0 101.395 0 .698.698 0 00-1.395 0z" fill="#fff"/><path d="M152.459 26.532a.364.364 0 10.728 0 .364.364 0 00-.728 0z" fill="#fff"/><path opacity=".2" d="M151.11 26.533a1.715 1.715 0 103.43-.001 1.715 1.715 0 00-3.43 0zm-3.581 9.755a1.524 1.524 0 103.048.001 1.524 1.524 0 00-3.048 0z" fill="#fff"/><path opacity=".4" d="M147.897 36.288a1.153 1.153 0 102.306 0 1.153 1.153 0 00-2.306 0z" fill="#fff"/><path opacity=".7" d="M148.295 36.288a.759.759 0 101.518 0 .759.759 0 00-1.518 0z" fill="#fff"/><path d="M148.664 36.287a.387.387 0 10.773 0 .387.387 0 00-.773 0z" fill="#fff"/><path opacity=".2" d="M147.204 36.288a1.851 1.851 0 103.702 0 1.851 1.851 0 00-3.702 0zm-17.316 7.145a.993.993 0 101.986.002.993.993 0 00-1.986-.002z" fill="#fff"/><path opacity=".4" d="M130.131 43.435a.75.75 0 101.502 0 .75.75 0 00-1.502 0z" fill="#fff"/><path opacity=".7" d="M130.389 43.434a.493.493 0 10.986 0 .493.493 0 00-.986 0z" fill="#fff"/><path d="M130.625 43.434a.258.258 0 10.515 0 .258.258 0 00-.515 0z" fill="#fff"/><path opacity=".2" d="M129.682 43.433a1.206 1.206 0 102.412 0 1.206 1.206 0 00-2.412 0zm15.992 12.289a1.6 1.6 0 103.2 0 1.6 1.6 0 00-3.2 0z" fill="#fff"/><path opacity=".4" d="M146.065 55.721a1.213 1.213 0 102.427.001 1.213 1.213 0 00-2.427 0z" fill="#fff"/><path opacity=".7" d="M146.477 55.722a.797.797 0 101.594 0 .797.797 0 00-1.594 0z" fill="#fff"/><path d="M146.868 55.722a.41.41 0 10.82 0 .41.41 0 00-.82 0z" fill="#fff"/><path opacity=".2" d="M145.335 55.723a1.942 1.942 0 103.883 0 1.942 1.942 0 00-3.883 0zm1.779 8.746a1.38 1.38 0 102.76 0 1.38 1.38 0 00-2.76 0z" fill="#fff"/><path opacity=".4" d="M147.445 64.469a1.047 1.047 0 102.094 0 1.047 1.047 0 00-2.094 0z" fill="#fff"/><path opacity=".7" d="M147.799 64.468a.69.69 0 101.38 0 .69.69 0 00-1.38 0z" fill="#fff"/><path d="M148.131 64.468a.356.356 0 10.712 0 .356.356 0 00-.712 0z" fill="#fff"/><path opacity=".2" d="M146.811 64.467a1.677 1.677 0 103.354 0 1.677 1.677 0 00-3.354 0zm6.418 6.821a.827.827 0 101.654 0 .827.827 0 00-1.654 0z" fill="#fff"/><path opacity=".4" d="M153.436 71.288a.622.622 0 101.243 0 .622.622 0 00-1.243 0z" fill="#fff"/><path opacity=".7" d="M153.649 71.288a.41.41 0 10.82 0 .41.41 0 00-.82 0z" fill="#fff"/><path d="M153.849 71.289a.212.212 0 10.425 0 .212.212 0 00-.425 0z" fill="#fff"/><path opacity=".2" d="M153.06 71.288a1.001 1.001 0 102.002 0 1.001 1.001 0 00-2.002 0zm-2.884 21.725a1.639 1.639 0 103.278 0 1.639 1.639 0 00-3.278 0z" fill="#fff"/><path opacity=".4" d="M150.567 93.014a1.244 1.244 0 102.488 0 1.244 1.244 0 00-2.488 0z" fill="#fff"/><path opacity=".7" d="M151.002 93.013a.811.811 0 101.623 0 .811.811 0 00-1.623 0z" fill="#fff"/><path d="M151.4 93.013a.417.417 0 10.835 0 .417.417 0 00-.835 0z" fill="#fff"/><path opacity=".2" d="M149.83 93.013a1.987 1.987 0 103.975 0 1.987 1.987 0 00-3.975 0zm12.729 1.677a.978.978 0 101.957 0 .978.978 0 00-1.957 0z" fill="#fff"/><path opacity=".4" d="M162.794 94.689a.744.744 0 101.487 0 .744.744 0 00-1.487 0z" fill="#fff"/><path opacity=".7" d="M163.052 94.689a.486.486 0 10.972-.001.486.486 0 00-.972 0z" fill="#fff"/><path d="M163.288 94.69a.25.25 0 10.5 0 .25.25 0 00-.5 0z" fill="#fff"/><path opacity=".2" d="M162.353 94.689a1.19 1.19 0 102.381 0 1.19 1.19 0 00-2.381 0zm4.906-8.754a1.714 1.714 0 103.428 0 1.714 1.714 0 00-3.428 0z" fill="#fff"/><path opacity=".4" d="M167.671 85.936a1.297 1.297 0 102.595 0 1.297 1.297 0 00-2.595 0z" fill="#fff"/><path opacity=".7" d="M168.121 85.936a.85.85 0 101.7-.001.85.85 0 00-1.7 0z" fill="#fff"/><path d="M168.534 85.936a.44.44 0 10.88 0 .44.44 0 00-.88 0z" fill="#fff"/><path opacity=".2" d="M166.89 85.936a2.079 2.079 0 104.157 0 2.079 2.079 0 00-4.157 0zm12.594 1.744a.91.91 0 101.821 0 .91.91 0 00-1.821 0z" fill="#fff"/><path opacity=".4" d="M179.705 87.68a.69.69 0 101.38 0 .69.69 0 00-1.38 0z" fill="#fff"/><path opacity=".7" d="M179.941 87.68a.455.455 0 10.91 0 .455.455 0 00-.91 0z" fill="#fff"/><path d="M180.162 87.68a.236.236 0 00.471 0 .235.235 0 10-.471 0z" fill="#fff"/><path opacity=".2" d="M179.285 87.68a1.108 1.108 0 102.215 0 1.108 1.108 0 00-2.215 0zm10.128-1.486a1.805 1.805 0 103.61 0 1.805 1.805 0 00-3.61 0z" fill="#fff"/><path opacity=".4" d="M189.855 86.194a1.365 1.365 0 102.73 0 1.365 1.365 0 00-2.73 0z" fill="#fff"/><path opacity=".7" d="M190.327 86.194a.895.895 0 101.79 0 .895.895 0 00-1.79 0z" fill="#fff"/><path d="M190.754 86.193a.463.463 0 10.925 0 .463.463 0 00-.925 0z" fill="#fff"/><path opacity=".2" d="M189.03 86.194a2.192 2.192 0 104.384 0 2.192 2.192 0 00-4.384 0zm6.45-10.438a1.237 1.237 0 102.474 0 1.237 1.237 0 00-2.474 0z" fill="#fff"/><path opacity=".4" d="M195.783 75.755a.94.94 0 101.88 0 .94.94 0 00-1.88 0z" fill="#fff"/><path opacity=".7" d="M196.107 75.755a.614.614 0 101.229 0 .614.614 0 00-1.229 0z" fill="#fff"/><path d="M196.402 75.756a.319.319 0 10.637 0 .319.319 0 00-.637 0z" fill="#fff"/><path opacity=".2" d="M195.215 75.756a1.502 1.502 0 103.003 0 1.502 1.502 0 00-3.003 0zm1.625-8.799a1.107 1.107 0 102.215 0 1.107 1.107 0 00-2.215 0z" fill="#fff"/><path opacity=".4" d="M197.112 66.956a.835.835 0 101.67-.001.835.835 0 00-1.67 0z" fill="#fff"/><path opacity=".7" d="M197.4 66.956a.546.546 0 101.092.001.546.546 0 00-1.092 0z" fill="#fff"/><path d="M197.665 66.956a.28.28 0 10.562 0 .28.28 0 00-.562 0z" fill="#fff"/><path opacity=".2" d="M196.604 66.956a1.342 1.342 0 102.685 0 1.342 1.342 0 00-2.685 0zm9.314-5.591a1.51 1.51 0 103.02 0 1.51 1.51 0 00-3.02 0z" fill="#fff"/><path opacity=".4" d="M206.287 61.366a1.146 1.146 0 102.291 0 1.146 1.146 0 00-2.291 0z" fill="#fff"/><path opacity=".7" d="M206.678 61.366a.75.75 0 101.502 0 .75.75 0 00-1.502 0z" fill="#fff"/><path d="M207.047 61.365a.387.387 0 10.773.001.387.387 0 00-.773 0z" fill="#fff"/><path opacity=".2" d="M205.594 61.365a1.836 1.836 0 103.672 0 1.836 1.836 0 00-3.672 0zm4.896-11.151a1.532 1.532 0 103.064 0 1.532 1.532 0 00-3.064 0z" fill="#fff"/><path opacity=".4" d="M210.858 50.215a1.16 1.16 0 102.322 0 1.16 1.16 0 00-2.322 0z" fill="#fff"/><path opacity=".7" d="M211.264 50.216a.759.759 0 101.518-.001.759.759 0 00-1.518 0z" fill="#fff"/><path d="M211.625 50.215a.395.395 0 10.79-.001.395.395 0 00-.79 0z" fill="#fff"/><path opacity=".2" d="M210.158 50.214a1.859 1.859 0 103.717 0 1.859 1.859 0 00-3.717 0zm.798-11.817a1.479 1.479 0 102.958 0 1.479 1.479 0 00-2.958 0z" fill="#fff"/><path opacity=".4" d="M211.317 38.396a1.123 1.123 0 102.246 0 1.123 1.123 0 00-2.246 0z" fill="#fff"/><path opacity=".7" d="M211.7 38.396a.736.736 0 101.473 0 .736.736 0 00-1.473 0z" fill="#fff"/><path d="M212.062 38.397a.38.38 0 10.759 0 .38.38 0 00-.759 0z" fill="#fff"/><path opacity=".2" d="M210.646 38.396a1.79 1.79 0 103.581 0 1.79 1.79 0 00-3.581 0zm-13.672-2.904a1.388 1.388 0 102.776 0 1.388 1.388 0 00-2.776 0z" fill="#fff"/><path opacity=".4" d="M197.305 35.492a1.055 1.055 0 102.109 0 1.055 1.055 0 00-2.109 0z" fill="#fff"/><path opacity=".7" d="M197.666 35.491a.69.69 0 101.38 0 .69.69 0 00-1.38 0z" fill="#fff"/><path d="M198.006 35.491a.356.356 0 10.712.001.356.356 0 00-.712 0z" fill="#fff"/><path opacity=".2" d="M196.671 35.49a1.684 1.684 0 103.368 0 1.684 1.684 0 00-3.368 0zm-.431-17.233a1.927 1.927 0 103.854 0 1.927 1.927 0 00-3.854 0z" fill="#fff"/><path opacity=".4" d="M196.712 18.257a1.457 1.457 0 102.913 0 1.457 1.457 0 00-2.913 0z" fill="#fff"/><path opacity=".7" d="M197.213 18.257a.956.956 0 101.912 0 .956.956 0 00-1.912 0z" fill="#fff"/><path d="M197.678 18.257a.493.493 0 10.986 0 .493.493 0 00-.986 0z" fill="#fff"/><path opacity=".2" d="M195.835 18.256a2.336 2.336 0 104.673 0 2.336 2.336 0 00-4.673 0zm-6.842-11.172a1.843 1.843 0 103.686 0 1.843 1.843 0 00-3.686 0z" fill="#fff"/><path opacity=".4" d="M189.435 7.083a1.396 1.396 0 102.792 0 1.396 1.396 0 00-2.792 0z" fill="#fff"/><path opacity=".7" d="M189.914 7.084a.918.918 0 101.836 0 .918.918 0 00-1.836 0z" fill="#fff"/><path d="M190.364 7.084a.47.47 0 10.941 0 .47.47 0 00-.941 0z" fill="#fff"/><path opacity=".2" d="M188.595 7.083a2.238 2.238 0 104.476 0 2.238 2.238 0 00-4.476 0zM41.387 56.32a1.896 1.896 0 103.793 0 1.896 1.896 0 00-3.793 0z" fill="#fff"/><path opacity=".4" d="M41.851 56.322a1.434 1.434 0 102.868 0 1.434 1.434 0 00-2.868 0z" fill="#fff"/><path opacity=".7" d="M42.345 56.322a.94.94 0 101.882 0 .94.94 0 00-1.882 0z" fill="#fff"/><path d="M42.803 56.321a.486.486 0 10.97 0 .486.486 0 00-.97 0z" fill="#fff"/><path opacity=".2" d="M40.989 56.322a2.298 2.298 0 104.597 0 2.298 2.298 0 00-4.597 0zm5.393 14.897a1.297 1.297 0 102.595 0 1.297 1.297 0 00-2.595 0z" fill="#fff"/><path opacity=".4" d="M46.7 71.22a.979.979 0 101.956 0 .979.979 0 00-1.957 0z" fill="#fff"/><path opacity=".7" d="M47.03 71.219a.645.645 0 101.29 0 .645.645 0 00-1.29 0z" fill="#fff"/><path d="M47.348 71.219a.334.334 0 10.668 0 .334.334 0 00-.668 0z" fill="#fff"/><path opacity=".2" d="M46.11 71.219a1.57 1.57 0 103.14 0 1.57 1.57 0 00-3.14 0zm-10.006 5.758a.956.956 0 101.912 0 .956.956 0 00-1.912 0z" fill="#fff"/><path opacity=".4" d="M36.34 76.977a.72.72 0 101.441 0 .72.72 0 00-1.441 0z" fill="#fff"/><path opacity=".7" d="M36.59 76.976a.47.47 0 10.941 0 .47.47 0 00-.94 0z" fill="#fff"/><path d="M36.82 76.977a.243.243 0 10.485 0 .243.243 0 00-.486 0z" fill="#fff"/><path opacity=".2" d="M35.898 76.977a1.16 1.16 0 102.32 0 1.16 1.16 0 00-2.32 0zm4.023 10.734a1.297 1.297 0 102.595 0 1.297 1.297 0 00-2.595 0z" fill="#fff"/><path opacity=".4" d="M40.23 87.71a.986.986 0 101.973 0 .986.986 0 00-1.972 0z" fill="#fff"/><path opacity=".7" d="M40.57 87.711a.645.645 0 101.29 0 .645.645 0 00-1.29 0z" fill="#fff"/><path d="M40.88 87.71a.334.334 0 10.667 0 .334.334 0 00-.668 0z" fill="#fff"/><path opacity=".2" d="M39.633 87.71a1.578 1.578 0 103.156 0 1.578 1.578 0 00-3.156 0zm-.992 11.259a1.055 1.055 0 102.11 0 1.055 1.055 0 00-2.11 0z" fill="#fff"/><path opacity=".4" d="M38.9 98.968a.796.796 0 101.592 0 .796.796 0 00-1.593 0z" fill="#fff"/><path opacity=".7" d="M39.172 98.967a.523.523 0 101.047 0 .523.523 0 00-1.047 0z" fill="#fff"/><path d="M39.43 98.967a.266.266 0 10.531 0 .266.266 0 00-.531 0z" fill="#fff"/><path opacity=".2" d="M38.42 98.968a1.274 1.274 0 102.548 0 1.274 1.274 0 00-2.548 0zm8.8 7.131a.82.82 0 101.64 0 .82.82 0 00-1.64 0z" fill="#fff"/><path opacity=".4" d="M47.42 106.099a.622.622 0 101.245 0 .622.622 0 00-1.245 0z" fill="#fff"/><path opacity=".7" d="M47.634 106.097a.41.41 0 10.82 0 .41.41 0 00-.82 0z" fill="#fff"/><path d="M47.833 106.097c0 .117.095.213.212.213a.212.212 0 10-.212-.213z" fill="#fff"/><path opacity=".2" d="M47.052 106.099a.994.994 0 101.987 0 .994.994 0 00-1.987 0zm12.462.583a1.548 1.548 0 103.096 0 1.548 1.548 0 00-3.096 0z" fill="#fff"/><path opacity=".4" d="M59.883 106.682a1.175 1.175 0 102.35 0 1.175 1.175 0 00-2.35 0z" fill="#fff"/><path opacity=".7" d="M60.296 106.682a.766.766 0 101.532 0 .766.766 0 00-1.532 0z" fill="#fff"/><path d="M60.664 106.682a.395.395 0 10.79-.001.395.395 0 00-.79.001z" fill="#fff"/><path opacity=".2" d="M59.175 106.682a1.881 1.881 0 103.762 0 1.881 1.881 0 00-3.762 0zm7.425 5.4a1.16 1.16 0 102.323 0 1.16 1.16 0 00-2.322 0z" fill="#fff"/><path opacity=".4" d="M66.889 112.083a.88.88 0 101.76 0 .88.88 0 00-1.76 0z" fill="#fff"/><path opacity=".7" d="M67.19 112.082a.577.577 0 101.154 0 .577.577 0 00-1.153 0z" fill="#fff"/><path d="M67.47 112.083a.296.296 0 10.593 0 .296.296 0 00-.592 0z" fill="#fff"/><path opacity=".2" d="M66.35 112.083a1.411 1.411 0 102.822 0 1.411 1.411 0 00-2.822 0zm10.575 12.66a1.873 1.873 0 103.745 0 1.873 1.873 0 00-3.745 0z" fill="#fff"/><path opacity=".4" d="M77.382 124.743a1.418 1.418 0 102.836 0 1.418 1.418 0 00-2.836 0z" fill="#fff"/><path opacity=".7" d="M77.876 124.744a.925.925 0 101.85 0 .925.925 0 00-1.85 0z" fill="#fff"/><path d="M78.326 124.744a.478.478 0 10.955-.001.478.478 0 00-.956.001z" fill="#fff"/><path opacity=".2" d="M76.534 124.743a2.268 2.268 0 104.537 0 2.268 2.268 0 00-4.537 0zm12.526-10.665a1.13 1.13 0 102.26 0 1.13 1.13 0 00-2.26 0z" fill="#fff"/><path opacity=".4" d="M89.332 114.078a.857.857 0 101.715 0 .857.857 0 00-1.715 0z" fill="#fff"/><path opacity=".7" d="M89.627 114.079a.561.561 0 101.122 0 .561.561 0 00-1.122 0z" fill="#fff"/><path d="M89.9 114.077a.288.288 0 10.577.001.288.288 0 00-.577-.001z" fill="#fff"/><path opacity=".2" d="M88.817 114.078a1.373 1.373 0 102.746 0 1.373 1.373 0 00-2.746 0zm6.6-9.574a1.624 1.624 0 103.248 0 1.624 1.624 0 00-3.248 0z" fill="#fff"/><path opacity=".4" d="M95.808 104.506a1.229 1.229 0 102.457 0 1.229 1.229 0 00-2.457 0z" fill="#fff"/><path opacity=".7" d="M96.236 104.505a.804.804 0 101.608 0 .804.804 0 00-1.608 0z" fill="#fff"/><path d="M96.619 104.505a.417.417 0 10.833 0 .417.417 0 00-.833 0z" fill="#fff"/><path opacity=".2" d="M95.063 104.505a1.972 1.972 0 103.945.001 1.972 1.972 0 00-3.945-.001z" fill="#fff"/><path opacity=".2" d="M98.278 104.271a1.912 1.912 0 103.824 0 1.912 1.912 0 00-3.824 0z" fill="#fff"/><path opacity=".4" d="M98.743 104.269a1.45 1.45 0 102.898 0 1.45 1.45 0 00-2.898 0z" fill="#fff"/><path opacity=".7" d="M99.244 104.27a.949.949 0 101.897 0 .949.949 0 00-1.897 0z" fill="#fff"/><path d="M99.709 104.271a.485.485 0 10.97 0 .485.485 0 00-.97 0z" fill="#fff"/><path opacity=".2" d="M97.88 104.271a2.314 2.314 0 104.628-.001 2.314 2.314 0 00-4.627.001zm1.738-12.722a1.45 1.45 0 102.898-.001 1.45 1.45 0 00-2.898 0z" fill="#fff"/><path opacity=".4" d="M99.964 91.55a1.1 1.1 0 102.2-.001 1.1 1.1 0 00-2.2 0z" fill="#fff"/><path opacity=".7" d="M100.348 91.549a.72.72 0 101.44 0 .72.72 0 00-1.44 0z" fill="#fff"/><path d="M100.694 91.55a.372.372 0 10.744-.001.372.372 0 00-.744 0z" fill="#fff"/><path opacity=".2" d="M99.308 91.549a1.76 1.76 0 103.52 0 1.76 1.76 0 00-3.52 0zm5.936-7.654a1.867 1.867 0 103.733 0 1.867 1.867 0 00-3.733 0z" fill="#fff"/><path opacity=".4" d="M105.694 83.895a1.419 1.419 0 102.837 0 1.419 1.419 0 00-2.837 0z" fill="#fff"/><path opacity=".7" d="M106.188 83.894a.926.926 0 101.852 0 .926.926 0 00-1.852 0z" fill="#fff"/><path d="M106.63 83.894a.478.478 0 10.956 0 .478.478 0 00-.956 0z" fill="#fff"/><path opacity=".2" d="M104.847 83.895a2.268 2.268 0 104.535 0 2.268 2.268 0 00-4.535 0zM95.69 72.471a1.092 1.092 0 102.185 0 1.092 1.092 0 00-2.185 0z" fill="#fff"/><path opacity=".4" d="M95.956 72.471a.827.827 0 101.653 0 .827.827 0 00-1.653 0z" fill="#fff"/><path opacity=".7" d="M96.243 72.47a.539.539 0 101.077 0 .539.539 0 00-1.077 0z" fill="#fff"/><path d="M96.501 72.47a.28.28 0 10.561 0 .28.28 0 00-.56 0z" fill="#fff"/><path opacity=".2" d="M95.454 72.47a1.327 1.327 0 102.655 0 1.327 1.327 0 00-2.655 0zm1.401-7.015a1.881 1.881 0 103.762 0 1.881 1.881 0 00-3.762 0z" fill="#fff"/><path opacity=".4" d="M97.312 65.453a1.426 1.426 0 102.852 0 1.426 1.426 0 00-2.852 0z" fill="#fff"/><path opacity=".7" d="M97.806 65.454a.933.933 0 101.866 0 .933.933 0 00-1.866 0z" fill="#fff"/><path d="M98.248 65.454a.485.485 0 10.97 0 .485.485 0 00-.97 0z" fill="#fff"/><path opacity=".2" d="M96.457 65.455a2.283 2.283 0 104.566 0 2.283 2.283 0 00-4.566 0zm-3.883-5.994a1.365 1.365 0 102.73 0 1.365 1.365 0 00-2.73 0z" fill="#fff"/><path opacity=".4" d="M92.913 59.461a1.032 1.032 0 102.064 0 1.032 1.032 0 00-2.064 0z" fill="#fff"/><path opacity=".7" d="M93.267 59.462a.675.675 0 101.35 0 .675.675 0 00-1.35 0z" fill="#fff"/><path d="M93.591 59.462a.349.349 0 10.698 0 .349.349 0 00-.698 0z" fill="#fff"/><path opacity=".2" d="M92.28 59.462a1.661 1.661 0 103.322 0 1.661 1.661 0 00-3.323 0zm-7.42-9.823a1.828 1.828 0 103.656 0 1.828 1.828 0 00-3.657 0z" fill="#fff"/><path opacity=".4" d="M85.302 49.638a1.388 1.388 0 102.776 0 1.388 1.388 0 00-2.776 0z" fill="#fff"/><path opacity=".7" d="M85.781 49.639a.91.91 0 101.82 0 .91.91 0 00-1.82 0z" fill="#fff"/><path d="M86.223 49.638a.47.47 0 10.941 0 .47.47 0 00-.94 0z" fill="#fff"/><path opacity=".2" d="M84.469 49.639a2.223 2.223 0 104.445 0 2.223 2.223 0 00-4.445 0zm-8.101-2.466a1.054 1.054 0 102.109 0 1.054 1.054 0 00-2.11 0z" fill="#fff"/><path opacity=".4" d="M76.618 47.173a.804.804 0 101.609 0 .804.804 0 00-1.609 0z" fill="#fff"/><path opacity=".7" d="M76.898 47.174a.523.523 0 101.047 0 .523.523 0 00-1.046 0z" fill="#fff"/><path d="M77.15 47.173a.273.273 0 10.545 0 .273.273 0 00-.546 0z" fill="#fff"/><path opacity=".2" d="M76.14 47.173a1.282 1.282 0 102.563 0 1.282 1.282 0 00-2.564 0zM64.716 52.27a1.267 1.267 0 102.534 0 1.267 1.267 0 00-2.534 0z" fill="#fff"/><path opacity=".4" d="M65.026 52.27a.956.956 0 101.911 0 .956.956 0 00-1.911 0z" fill="#fff"/><path opacity=".7" d="M65.35 52.27a.63.63 0 101.26 0 .63.63 0 00-1.26 0z" fill="#fff"/><path d="M65.652 52.272a.326.326 0 10.653 0 .326.326 0 00-.653 0z" fill="#fff"/><path opacity=".2" d="M64.451 52.27a1.532 1.532 0 103.065 0 1.532 1.532 0 00-3.065 0zm-11.045-5.301a1.82 1.82 0 103.64 0 1.82 1.82 0 00-3.64 0z" fill="#fff"/><path opacity=".4" d="M53.848 46.968a1.38 1.38 0 102.761 0 1.38 1.38 0 00-2.76 0z" fill="#fff"/><path opacity=".7" d="M54.32 46.97a.903.903 0 101.805-.001.903.903 0 00-1.805 0z" fill="#fff"/><path d="M54.762 46.969a.463.463 0 10.925 0 .463.463 0 00-.925 0z" fill="#fff"/><path opacity=".2" d="M53.015 46.967a2.207 2.207 0 104.415 0 2.207 2.207 0 00-4.415 0zm-6.327 10.158a1.047 1.047 0 102.093 0 1.047 1.047 0 00-2.093 0z" fill="#fff"/><path opacity=".4" d="M46.938 57.125a.796.796 0 101.593 0 .796.796 0 00-1.593 0z" fill="#fff"/><path opacity=".7" d="M47.211 57.125a.523.523 0 101.047 0 .523.523 0 00-1.047 0z" fill="#fff"/><path d="M47.469 57.125a.266.266 0 10.531 0 .266.266 0 00-.531 0z" fill="#fff"/><path opacity=".2" d="M46.46 57.126a1.274 1.274 0 102.548 0 1.274 1.274 0 00-2.549 0z" fill="#fff"/><path opacity=".1" d="M84.51 174.739a1.464 1.464 0 102.927 0 1.464 1.464 0 00-2.927 0zm-6.313-2.472a2.898 2.898 0 105.796 0 2.898 2.898 0 00-5.796 0zm-7.774-6.584a2.89 2.89 0 105.78 0 2.89 2.89 0 00-5.78 0zm-8.203-14.496a2.245 2.245 0 104.49 0 2.245 2.245 0 00-4.49 0zm-10.41-.645a1.54 1.54 0 103.081 0 1.54 1.54 0 00-3.08 0zm-10.398-1.365a2.973 2.973 0 105.947 0 2.973 2.973 0 00-5.947 0zm-10.17 1.555a3.399 3.399 0 106.798 0 3.399 3.399 0 00-6.798 0zm-7.833 9.71a1.479 1.479 0 102.958 0 1.479 1.479 0 00-2.958 0zM8.954 172.669a3.543 3.543 0 107.085 0 3.543 3.543 0 00-7.085 0z" fill="#fff"/></svg>