<svg width="359" height="180" fill="none" xmlns="http://www.w3.org/2000/svg"><path d="M243.251 8.736a55.128 55.128 0 01-18.502 31.776 54.167 54.167 0 01-34.893 13.131 53.729 53.729 0 01-18.669-3.231 55.748 55.748 0 01-16.384-9.316A55.129 55.129 0 01135.664 9.73a55.593 55.593 0 007.586 16.772 54.943 54.943 0 0012.668 13.214 54.149 54.149 0 0016.119 8.276 57.8 57.8 0 0035.584-.364 54.768 54.768 0 0035.652-38.892h-.022z" fill="url(#prefix__paint0_linear_1249_15634)"/><path d="M122.541 119.729c-1.078-48.055 48.684-82.312 93.037-63.014 24.684 10.355 41.63 36.275 40.826 63.021-.486-36.244-30.699-65.79-66.936-65.41-36.16-.228-66.412 29.151-66.927 65.41v-.007z" fill="#fff"/><path d="M256.399 119.729c1.084 48.062-48.677 82.319-93.03 63.021-24.684-10.347-41.63-36.267-40.826-63.021.486 36.251 30.699 65.797 66.928 65.418 36.168.227 66.412-29.152 66.928-65.418z" fill="#fff"/><path d="M64.977 177.326c0-112.19 133.62-168.24 213.155-88.652 23.06 23.28 36.328 55.913 35.835 88.652-.183-67.762-56.824-123.584-124.495-122.985-67.687-.447-124.147 55.17-124.495 122.985z" fill="#fff"/><path d="M313.971 177.325c0 112.192-133.621 168.242-213.156 88.646-23.03-23.318-36.305-55.952-35.834-88.646.182 67.74 56.801 123.555 124.487 122.956 67.702.424 124.154-55.193 124.503-122.978v.022z" fill="#fff"/><path opacity=".1" d="M134.585 15.502a1.866 1.866 0 100-3.733 1.866 1.866 0 000 3.733zM144.257 34.42a3.156 3.156 0 100-6.311 3.156 3.156 0 000 6.312zM147.463 42.56a2.018 2.018 0 100-4.036 2.018 2.018 0 000 4.037zM167.602 40.975a2.086 2.086 0 100-4.172 2.086 2.086 0 000 4.172zM183.674 46.073a2.534 2.534 0 100-5.068 2.534 2.534 0 000 5.068zM196.014 57.004a3.46 3.46 0 100-6.919 3.46 3.46 0 000 6.919zM213.931 55.114a3.095 3.095 0 100-6.19 3.095 3.095 0 000 6.19zM218.408 48.052a1.517 1.517 0 100-3.034 1.517 1.517 0 000 3.034zM221.278 37.652a1.669 1.669 0 100-3.337 1.669 1.669 0 000 3.337zM227.231 35.24a3.261 3.261 0 100-6.522 3.261 3.261 0 000 6.522zM228.411 27.549a3.755 3.755 0 100-7.51 3.755 3.755 0 000 7.51zM244.634 20.265a2.844 2.844 0 100-5.688 2.844 2.844 0 000 5.688zM235.89 8.646a2.883 2.883 0 100-5.766 2.883 2.883 0 000 5.766z" fill="#fff"/><path opacity=".2" d="M260.969 116.361a.5.5 0 100-1.001.5.5 0 000 1.001z" fill="#fff"/><path opacity=".4" d="M260.973 116.239a.379.379 0 100-.758.379.379 0 000 .758z" fill="#fff"/><path opacity=".7" d="M260.969 116.11a.25.25 0 100-.5.25.25 0 000 .5z" fill="#fff"/><path d="M260.973 115.988a.13.13 0 100-.257.13.13 0 000 .257z" fill="#fff"/><path opacity=".2" d="M260.974 116.468a.607.607 0 100-1.215.607.607 0 000 1.215zM259.407 110.898a.493.493 0 100-.987.493.493 0 000 .987z" fill="#fff"/><path opacity=".4" d="M259.411 110.779a.372.372 0 10-.001-.743.372.372 0 00.001.743z" fill="#fff"/><path opacity=".7" d="M259.407 110.65a.243.243 0 100-.487.243.243 0 000 .487z" fill="#fff"/><path d="M259.41 110.535a.13.13 0 100-.257.13.13 0 000 .257z" fill="#fff"/><path opacity=".2" d="M259.412 110.998a.592.592 0 100-1.184.592.592 0 000 1.184zM252.578 105.4a.531.531 0 100-1.063.531.531 0 000 1.063z" fill="#fff"/><path opacity=".4" d="M252.574 105.271a.402.402 0 100-.804.402.402 0 000 .804z" fill="#fff"/><path opacity=".7" d="M252.578 105.135a.265.265 0 000-.531.265.265 0 100 .531z" fill="#fff"/><path d="M252.574 105.005a.137.137 0 00.137-.136.138.138 0 00-.137-.137.137.137 0 00-.136.137c0 .075.061.136.136.136z" fill="#fff"/><path opacity=".2" d="M252.574 105.514a.645.645 0 100-1.29.645.645 0 000 1.29zM249.856 100.477a.645.645 0 100-1.29.645.645 0 000 1.29z" fill="#fff"/><path opacity=".4" d="M249.86 100.317a.486.486 0 100-.972.486.486 0 000 .972z" fill="#fff"/><path opacity=".7" d="M249.858 100.151a.318.318 0 100-.637.318.318 0 000 .637z" fill="#fff"/><path d="M249.862 99.998a.167.167 0 100-.334.167.167 0 000 .334z" fill="#fff"/><path opacity=".2" d="M249.859 100.613a.781.781 0 10.002-1.562.781.781 0 00-.002 1.562zM245.231 95.796a.38.38 0 100-.759.38.38 0 000 .759z" fill="#fff"/><path opacity=".4" d="M245.234 95.705a.288.288 0 100-.576.288.288 0 000 .576z" fill="#fff"/><path opacity=".7" d="M245.229 95.606a.19.19 0 10-.001-.38.19.19 0 00.001.38z" fill="#fff"/><path d="M245.231 95.516a.099.099 0 100-.198.099.099 0 000 .198z" fill="#fff"/><path opacity=".2" d="M245.228 95.88a.463.463 0 100-.925.463.463 0 000 .925zM242.991 90.829a.288.288 0 10.001-.577.288.288 0 00-.001.577z" fill="#fff"/><path opacity=".4" d="M242.993 90.758a.22.22 0 100-.44.22.22 0 000 .44z" fill="#fff"/><path opacity=".7" d="M242.996 90.683a.144.144 0 000-.289.144.144 0 100 .289z" fill="#fff"/><path d="M242.998 90.615a.076.076 0 100-.152.076.076 0 000 .152z" fill="#fff"/><path opacity=".2" d="M242.997 90.887a.349.349 0 100-.697.349.349 0 000 .697zM243.256 84.016a.319.319 0 100-.638.319.319 0 000 .638z" fill="#fff"/><path opacity=".4" d="M243.258 83.94a.243.243 0 100-.485.243.243 0 000 .486z" fill="#fff"/><path opacity=".7" d="M243.261 83.856a.159.159 0 100-.318.159.159 0 000 .318z" fill="#fff"/><path d="M243.263 83.78a.084.084 0 00.084-.083.084.084 0 00-.084-.084.083.083 0 00-.083.084c0 .046.037.083.083.083z" fill="#fff"/><path opacity=".2" d="M243.262 84.092a.394.394 0 100-.788.394.394 0 000 .788zM243.959 76.84a.592.592 0 100-1.184.592.592 0 000 1.184z" fill="#fff"/><path opacity=".4" d="M243.955 76.696a.447.447 0 10.001-.895.447.447 0 00-.001.895z" fill="#fff"/><path opacity=".7" d="M243.96 76.543a.296.296 0 100-.593.296.296 0 000 .593z" fill="#fff"/><path d="M243.956 76.4a.152.152 0 100-.305.152.152 0 000 .304z" fill="#fff"/><path opacity=".2" d="M243.955 76.969a.72.72 0 100-1.442.72.72 0 000 1.442zM239.103 71.493a.22.22 0 100-.44.22.22 0 000 .44z" fill="#fff"/><path opacity=".4" d="M239.104 71.44a.166.166 0 10-.166-.167c0 .091.074.166.166.166z" fill="#fff"/><path opacity=".7" d="M239.106 71.386a.114.114 0 100-.228.114.114 0 000 .228z" fill="#fff"/><path d="M239.1 71.332a.06.06 0 00.06-.06.06.06 0 10-.121 0c0 .033.027.06.061.06z" fill="#fff"/><path opacity=".2" d="M239.101 71.544a.273.273 0 100-.546.273.273 0 000 .546zM237.65 64.028a.455.455 0 10.001-.911.455.455 0 00-.001.91z" fill="#fff"/><path opacity=".4" d="M237.654 63.913a.341.341 0 100-.683.341.341 0 000 .683z" fill="#fff"/><path opacity=".7" d="M237.657 63.8a.228.228 0 100-.455.228.228 0 000 .456z" fill="#fff"/><path d="M237.653 63.687a.114.114 0 100-.228.114.114 0 000 .228z" fill="#fff"/><path opacity=".2" d="M237.656 64.118a.546.546 0 100-1.093.546.546 0 000 1.093zM228.836 62.988a.531.531 0 100-1.063.531.531 0 000 1.063z" fill="#fff"/><path opacity=".4" d="M228.84 62.859a.402.402 0 100-.804.402.402 0 000 .804z" fill="#fff"/><path opacity=".7" d="M228.836 62.722a.265.265 0 10-.001-.53.265.265 0 00.001.53z" fill="#fff"/><path d="M228.84 62.593a.136.136 0 100-.272.136.136 0 000 .272z" fill="#fff"/><path opacity=".2" d="M228.84 63.102a.645.645 0 100-1.29.645.645 0 000 1.29zM221.682 63.914a.433.433 0 100-.866.433.433 0 000 .866z" fill="#fff"/><path opacity=".4" d="M221.678 63.809a.326.326 0 100-.653.326.326 0 000 .653z" fill="#fff"/><path opacity=".7" d="M221.681 63.694a.213.213 0 00.213-.212.212.212 0 10-.213.212z" fill="#fff"/><path d="M221.676 63.595a.114.114 0 100-.228.114.114 0 000 .228z" fill="#fff"/><path opacity=".2" d="M221.679 64.013a.53.53 0 100-1.06.53.53 0 000 1.06zM217.14 57.96a.539.539 0 100-1.077.539.539 0 000 1.077z" fill="#fff"/><path opacity=".4" d="M217.144 57.822a.402.402 0 100-.804.402.402 0 000 .804z" fill="#fff"/><path opacity=".7" d="M217.14 57.685a.266.266 0 100-.531.266.266 0 000 .531z" fill="#fff"/><path d="M217.144 57.556a.137.137 0 100-.273.137.137 0 000 .273z" fill="#fff"/><path opacity=".2" d="M217.145 58.072a.652.652 0 100-1.304.652.652 0 000 1.304zM212.079 54.455a.235.235 0 100-.47.235.235 0 000 .47z" fill="#fff"/><path opacity=".4" d="M212.073 54.401a.182.182 0 100-.364.182.182 0 000 .364z" fill="#fff"/><path opacity=".7" d="M212.075 54.34a.121.121 0 000-.242.121.121 0 100 .242z" fill="#fff"/><path d="M212.076 54.28a.06.06 0 100-.122.06.06 0 00-.06.06c0 .034.027.062.06.062z" fill="#fff"/><path opacity=".2" d="M212.077 54.508a.288.288 0 10.001-.577.288.288 0 00-.001.577zM203.718 59.272a.554.554 0 100-1.108.554.554 0 000 1.108z" fill="#fff"/><path opacity=".4" d="M203.714 59.135a.417.417 0 100-.833.417.417 0 000 .833z" fill="#fff"/><path opacity=".7" d="M203.718 58.992a.273.273 0 100-.546.273.273 0 000 .546z" fill="#fff"/><path d="M203.714 58.862c.08 0 .145-.064.145-.144a.145.145 0 00-.289 0c0 .08.065.144.144.144z" fill="#fff"/><path opacity=".2" d="M203.714 59.386a.668.668 0 100-1.336.668.668 0 000 1.336zM199.209 47.537a.334.334 0 100-.669.334.334 0 000 .669z" fill="#fff"/><path opacity=".4" d="M199.211 47.454a.25.25 0 10.001-.501.25.25 0 00-.001.5z" fill="#fff"/><path opacity=".7" d="M199.206 47.369a.167.167 0 100-.334.167.167 0 000 .334z" fill="#fff"/><path d="M199.208 47.286a.083.083 0 100-.167.083.083 0 00-.083.084c0 .046.037.083.083.083z" fill="#fff"/><path opacity=".2" d="M199.207 47.605a.402.402 0 100-.804.402.402 0 000 .804zM192.055 58.915a.508.508 0 100-1.016.508.508 0 000 1.016z" fill="#fff"/><path opacity=".4" d="M192.059 58.793a.387.387 0 100-.775.387.387 0 000 .775z" fill="#fff"/><path opacity=".7" d="M192.055 58.657a.25.25 0 100-.5.25.25 0 000 .5z" fill="#fff"/><path d="M192.059 58.535a.13.13 0 100-.258.13.13 0 000 .258z" fill="#fff"/><path opacity=".2" d="M192.06 59.022a.614.614 0 100-1.229.614.614 0 000 1.229zM185.815 51.087a.705.705 0 100-1.411.705.705 0 000 1.41z" fill="#fff"/><path opacity=".4" d="M185.812 50.912a.531.531 0 100-1.063.531.531 0 000 1.063z" fill="#fff"/><path opacity=".7" d="M185.818 50.73a.35.35 0 100-.7.35.35 0 000 .7z" fill="#fff"/><path d="M185.815 50.563a.182.182 0 100-.364.182.182 0 000 .364z" fill="#fff"/><path opacity=".2" d="M185.81 51.238a.857.857 0 100-1.714.857.857 0 000 1.714zM180.626 55.167a.5.5 0 100-1 .5.5 0 000 1z" fill="#fff"/><path opacity=".4" d="M180.629 55.046a.38.38 0 100-.76.38.38 0 000 .76z" fill="#fff"/><path opacity=".7" d="M180.625 54.917a.25.25 0 10.001-.501.25.25 0 00-.001.5z" fill="#fff"/><path d="M180.629 54.795a.13.13 0 100-.258.13.13 0 000 .258z" fill="#fff"/><path opacity=".2" d="M180.622 55.282a.614.614 0 10.001-1.23.614.614 0 00-.001 1.23zM173.78 52.164a.554.554 0 100-1.108.554.554 0 000 1.108z" fill="#fff"/><path opacity=".4" d="M173.784 52.028a.418.418 0 10.001-.835.418.418 0 00-.001.835z" fill="#fff"/><path opacity=".7" d="M173.781 51.884a.273.273 0 100-.546.273.273 0 000 .546z" fill="#fff"/><path d="M173.785 51.755a.144.144 0 000-.288.144.144 0 100 .288z" fill="#fff"/><path opacity=".2" d="M173.785 52.286a.676.676 0 10-.001-1.351.676.676 0 00.001 1.35zM168.393 53.036a.447.447 0 100-.895.447.447 0 000 .895z" fill="#fff"/><path opacity=".4" d="M168.388 52.929a.342.342 0 100-.683.342.342 0 000 .683z" fill="#fff"/><path opacity=".7" d="M168.392 52.81a.22.22 0 100-.442.22.22 0 000 .441z" fill="#fff"/><path d="M168.387 52.702a.114.114 0 100-.228.114.114 0 000 .228z" fill="#fff"/><path opacity=".2" d="M168.39 53.135a.546.546 0 100-1.091.546.546 0 000 1.091zM162.844 58.68a.265.265 0 100-.531.265.265 0 000 .53z" fill="#fff"/><path opacity=".4" d="M162.846 58.611a.197.197 0 100-.394.198.198 0 00-.198.197c0 .109.089.197.198.197z" fill="#fff"/><path opacity=".7" d="M162.848 58.543a.13.13 0 100-.258.13.13 0 000 .258z" fill="#fff"/><path d="M162.842 58.482c.037 0 .068-.03.068-.068a.069.069 0 00-.137 0c0 .038.031.068.069.068z" fill="#fff"/><path opacity=".2" d="M162.842 58.733a.319.319 0 100-.638.319.319 0 000 .638zM155.679 57.156a.561.561 0 100-1.122.561.561 0 000 1.122z" fill="#fff"/><path opacity=".4" d="M155.675 57.018a.425.425 0 100-.851.425.425 0 000 .85z" fill="#fff"/><path opacity=".7" d="M155.679 56.874a.28.28 0 100-.562.28.28 0 000 .562z" fill="#fff"/><path d="M155.675 56.737c.08 0 .145-.064.145-.144a.145.145 0 00-.289 0c0 .08.065.144.144.144z" fill="#fff"/><path opacity=".2" d="M155.675 57.276a.683.683 0 100-1.366.683.683 0 000 1.366zM153.183 64.035a.424.424 0 100-.849.424.424 0 000 .85z" fill="#fff"/><path opacity=".4" d="M153.178 63.928a.319.319 0 100-.638.319.319 0 000 .638z" fill="#fff"/><path opacity=".7" d="M153.181 63.823a.213.213 0 00.213-.212.212.212 0 10-.213.212z" fill="#fff"/><path d="M153.184 63.716a.107.107 0 00.107-.106.107.107 0 00-.213 0c0 .059.048.106.106.106z" fill="#fff"/><path opacity=".2" d="M153.18 64.125a.516.516 0 100-1.031.516.516 0 000 1.031zM143.106 62.215a.622.622 0 100-1.244.622.622 0 000 1.244z" fill="#fff"/><path opacity=".4" d="M143.111 62.064a.47.47 0 100-.94.47.47 0 000 .94z" fill="#fff"/><path opacity=".7" d="M143.108 61.903a.31.31 0 100-.621.31.31 0 000 .621z" fill="#fff"/><path d="M143.105 61.752a.159.159 0 000-.318.16.16 0 00-.16.159c0 .088.072.16.16.16z" fill="#fff"/><path opacity=".2" d="M143.11 62.344a.75.75 0 100-1.502.75.75 0 000 1.502zM142.841 69.429a.6.6 0 100-1.2.6.6 0 000 1.2z" fill="#fff"/><path opacity=".4" d="M142.838 69.285a.455.455 0 100-.91.455.455 0 000 .91z" fill="#fff"/><path opacity=".7" d="M142.843 69.125a.296.296 0 100-.593.296.296 0 000 .593z" fill="#fff"/><path d="M142.839 68.981a.152.152 0 100-.304.152.152 0 000 .304z" fill="#fff"/><path opacity=".2" d="M142.838 69.558a.728.728 0 100-1.456.728.728 0 000 1.456zM141.799 76.02a.72.72 0 100-1.44.72.72 0 000 1.44z" fill="#fff"/><path opacity=".4" d="M141.804 75.846a.546.546 0 100-1.091.546.546 0 000 1.091z" fill="#fff"/><path opacity=".7" d="M141.802 75.656a.356.356 0 100-.712.356.356 0 000 .712z" fill="#fff"/><path d="M141.799 75.481a.182.182 0 100-.363.182.182 0 000 .363z" fill="#fff"/><path opacity=".2" d="M141.802 76.172a.872.872 0 100-1.743.872.872 0 000 1.743zM139.901 83.243a.713.713 0 10-.001-1.427.713.713 0 00.001 1.427z" fill="#fff"/><path opacity=".4" d="M139.898 83.067a.54.54 0 100-1.078.54.54 0 000 1.078z" fill="#fff"/><path opacity=".7" d="M139.896 82.878a.349.349 0 100-.698.349.349 0 000 .698z" fill="#fff"/><path d="M139.901 82.712a.182.182 0 100-.365.182.182 0 000 .365z" fill="#fff"/><path opacity=".2" d="M139.896 83.394a.865.865 0 100-1.73.865.865 0 000 1.73zM131.195 83.046a.546.546 0 10-.001-1.093.546.546 0 00.001 1.093z" fill="#fff"/><path opacity=".4" d="M131.198 82.916a.417.417 0 10.001-.835.417.417 0 00-.001.835z" fill="#fff"/><path opacity=".7" d="M131.195 82.77a.273.273 0 100-.545.273.273 0 000 .546z" fill="#fff"/><path d="M131.199 82.634a.137.137 0 00.137-.136.137.137 0 00-.274 0c0 .075.062.136.137.136z" fill="#fff"/><path opacity=".2" d="M131.199 83.158a.66.66 0 100-1.32.66.66 0 000 1.32zM135.129 92.231a.638.638 0 100-1.275.638.638 0 000 1.275z" fill="#fff"/><path opacity=".4" d="M135.126 92.078a.486.486 0 100-.972.486.486 0 000 .972z" fill="#fff"/><path opacity=".7" d="M135.123 91.913a.319.319 0 100-.638.319.319 0 000 .638z" fill="#fff"/><path d="M135.128 91.76a.167.167 0 100-.335.167.167 0 000 .335z" fill="#fff"/><path opacity=".2" d="M135.125 92.368a.774.774 0 100-1.547.774.774 0 000 1.547zM129.516 95.067a.243.243 0 100-.486.243.243 0 000 .486z" fill="#fff"/><path opacity=".4" d="M129.51 95.007a.182.182 0 100-.364.182.182 0 000 .364z" fill="#fff"/><path opacity=".7" d="M129.512 94.946a.121.121 0 100-.242.121.121 0 000 .242z" fill="#fff"/><path d="M129.514 94.885a.06.06 0 00.06-.06.06.06 0 10-.121 0c0 .033.027.06.061.06z" fill="#fff"/><path opacity=".2" d="M129.515 95.121a.295.295 0 100-.59.295.295 0 000 .59zM131.55 101.727a.41.41 0 100-.82.41.41 0 000 .82z" fill="#fff"/><path opacity=".4" d="M131.545 101.63a.31.31 0 100-.621.31.31 0 000 .621z" fill="#fff"/><path opacity=".7" d="M131.549 101.523a.204.204 0 00.204-.205.204.204 0 10-.409 0c0 .113.091.205.205.205z" fill="#fff"/><path d="M131.544 101.425a.106.106 0 100-.212.106.106 0 000 .212z" fill="#fff"/><path opacity=".2" d="M131.548 101.812a.493.493 0 100-.985.493.493 0 000 .985zM128.738 107.675a.41.41 0 10-.001-.82.41.41 0 00.001.82z" fill="#fff"/><path opacity=".4" d="M128.741 107.577a.311.311 0 100-.623.311.311 0 000 .623z" fill="#fff"/><path opacity=".7" d="M128.744 107.47a.204.204 0 100-.409.204.204 0 100 .409z" fill="#fff"/><path d="M128.739 107.373a.106.106 0 00.106-.107.106.106 0 00-.212 0c0 .059.047.107.106.107z" fill="#fff"/><path opacity=".2" d="M128.743 107.76a.493.493 0 100-.987.493.493 0 000 .987zM115.957 112.34a.644.644 0 10.001-1.289.644.644 0 00-.001 1.289z" fill="#fff"/><path opacity=".4" d="M115.954 112.182a.486.486 0 100-.972.486.486 0 000 .972z" fill="#fff"/><path opacity=".7" d="M115.959 112.014a.319.319 0 100-.638.319.319 0 000 .638z" fill="#fff"/><path d="M115.956 111.863a.167.167 0 000-.334.167.167 0 000 .334z" fill="#fff"/><path opacity=".2" d="M115.961 112.477a.781.781 0 100-1.562.781.781 0 000 1.562zM127.985 121.101a.492.492 0 10.002-.984.492.492 0 00-.002.984z" fill="#fff"/><path opacity=".4" d="M127.989 120.98a.373.373 0 10-.001-.745.373.373 0 00.001.745z" fill="#fff"/><path opacity=".7" d="M127.993 120.851a.242.242 0 00.242-.243.242.242 0 10-.242.243z" fill="#fff"/><path d="M127.988 120.738a.128.128 0 00.129-.129.13.13 0 10-.129.129z" fill="#fff"/><path opacity=".2" d="M127.99 121.208a.599.599 0 100-1.198.599.599 0 000 1.198zM117.295 131.016a.85.85 0 10-.001-1.7.85.85 0 00.001 1.7z" fill="#fff"/><path opacity=".4" d="M117.293 130.811a.645.645 0 100-1.29.645.645 0 000 1.29z" fill="#fff"/><path opacity=".7" d="M117.292 130.592a.425.425 0 100-.85.425.425 0 000 .85z" fill="#fff"/><path d="M117.29 130.387a.22.22 0 100-.44.22.22 0 000 .44z" fill="#fff"/><path opacity=".2" d="M117.289 131.198a1.032 1.032 0 100-2.064 1.032 1.032 0 000 2.064zM132.906 140.346a1.563 1.563 0 100-3.127 1.563 1.563 0 000 3.127z" fill="#fff"/><path opacity=".4" d="M132.902 139.966a1.182 1.182 0 10.002-2.364 1.182 1.182 0 00-.002 2.364z" fill="#fff"/><path opacity=".7" d="M132.907 139.557a.773.773 0 100-1.546.773.773 0 000 1.546z" fill="#fff"/><path d="M132.902 139.187a.402.402 0 100-.804.402.402 0 000 .804z" fill="#fff"/><path opacity=".2" d="M132.904 140.68a1.897 1.897 0 100-3.794 1.897 1.897 0 000 3.794zM124.483 154.85a1.623 1.623 0 100-3.247 1.623 1.623 0 000 3.247z" fill="#fff"/><path opacity=".4" d="M124.487 154.456a1.23 1.23 0 100-2.459 1.23 1.23 0 000 2.459z" fill="#fff"/><path opacity=".7" d="M124.484 154.03a.804.804 0 100-1.608.804.804 0 000 1.608z" fill="#fff"/><path d="M124.488 153.645a.417.417 0 100-.835.417.417 0 000 .835z" fill="#fff"/><path opacity=".2" d="M124.488 155.198a1.972 1.972 0 100-3.944 1.972 1.972 0 000 3.944zM135.002 162.299a1.752 1.752 0 10.001-3.505 1.752 1.752 0 00-.001 3.505z" fill="#fff"/><path opacity=".4" d="M135.007 161.874a1.329 1.329 0 10-.001-2.657 1.329 1.329 0 00.001 2.657z" fill="#fff"/><path opacity=".7" d="M135.005 161.418a.871.871 0 10.001-1.743.871.871 0 00-.001 1.743z" fill="#fff"/><path d="M135.002 160.995a.449.449 0 000-.895.447.447 0 100 .895z" fill="#fff"/><path opacity=".2" d="M135.007 162.672a2.124 2.124 0 100-4.248 2.124 2.124 0 000 4.248zM147.426 164.886a1.183 1.183 0 100-2.367 1.183 1.183 0 000 2.367z" fill="#fff"/><path opacity=".4" d="M147.426 164.597a.895.895 0 100-1.79.895.895 0 000 1.79z" fill="#fff"/><path opacity=".7" d="M147.42 164.287a.583.583 0 10.001-1.167.583.583 0 00-.001 1.167z" fill="#fff"/><path d="M147.421 164.005a.303.303 0 100-.607.303.303 0 000 .607z" fill="#fff"/><path opacity=".2" d="M147.426 165.137a1.434 1.434 0 100-2.868 1.434 1.434 0 000 2.868zM150.261 179.669a.926.926 0 100-1.851.926.926 0 000 1.851z" fill="#fff"/><path opacity=".4" d="M150.26 179.45a.706.706 0 100-1.411.706.706 0 000 1.411z" fill="#fff"/><path opacity=".7" d="M150.26 179.207a.462.462 0 100-.925.462.462 0 000 .925z" fill="#fff"/><path d="M150.259 178.98a.235.235 0 100-.47.235.235 0 000 .47z" fill="#fff"/><path opacity=".2" d="M150.263 179.876a1.13 1.13 0 100-2.26 1.13 1.13 0 000 2.26zM163.356 178.23a.895.895 0 100-1.79.895.895 0 000 1.79z" fill="#fff"/><path opacity=".4" d="M163.355 178.008a.675.675 0 100-1.35.675.675 0 000 1.35z" fill="#fff"/><path opacity=".7" d="M163.354 177.782a.448.448 0 10-.001-.895.448.448 0 00.001.895z" fill="#fff"/><path d="M163.353 177.561a.228.228 0 10-.001-.455.228.228 0 00.001.455z" fill="#fff"/><path opacity=".2" d="M163.35 178.419a1.084 1.084 0 10.001-2.169 1.084 1.084 0 00-.001 2.169zM184.736 178.283a1.776 1.776 0 10-.001-3.551 1.776 1.776 0 00.001 3.551z" fill="#fff"/><path opacity=".4" d="M184.733 177.849a1.342 1.342 0 10.001-2.685 1.342 1.342 0 00-.001 2.685z" fill="#fff"/><path opacity=".7" d="M184.739 177.387a.88.88 0 100-1.76.88.88 0 000 1.76z" fill="#fff"/><path d="M184.736 176.961a.456.456 0 100-.911.456.456 0 000 .911z" fill="#fff"/><path opacity=".2" d="M184.74 178.662a2.154 2.154 0 10.001-4.309 2.154 2.154 0 00-.001 4.309zM192.436 178.988a1.874 1.874 0 100-3.748 1.874 1.874 0 000 3.748z" fill="#fff"/><path opacity=".4" d="M192.434 178.532a1.418 1.418 0 10.001-2.837 1.418 1.418 0 00-.001 2.837z" fill="#fff"/><path opacity=".7" d="M192.433 178.048a.933.933 0 100-1.867.933.933 0 000 1.867z" fill="#fff"/><path d="M192.439 177.593a.478.478 0 100-.956.478.478 0 000 .956z" fill="#fff"/><path opacity=".2" d="M192.44 179.389a2.275 2.275 0 100-4.55 2.275 2.275 0 000 4.55zM214.122 179.374a1.418 1.418 0 100-2.836 1.418 1.418 0 000 2.836z" fill="#fff"/><path opacity=".4" d="M214.124 179.026a1.07 1.07 0 100-2.14 1.07 1.07 0 000 2.14z" fill="#fff"/><path opacity=".7" d="M214.12 178.661a.706.706 0 10-.001-1.411.706.706 0 00.001 1.411z" fill="#fff"/><path d="M214.122 178.32a.364.364 0 100-.728.364.364 0 000 .728z" fill="#fff"/><path opacity=".2" d="M214.12 179.678a1.722 1.722 0 100-3.444 1.722 1.722 0 000 3.444zM223.09 172.213a1.7 1.7 0 100-3.399 1.7 1.7 0 000 3.399z" fill="#fff"/><path opacity=".4" d="M223.086 171.804a1.29 1.29 0 100-2.58 1.29 1.29 0 000 2.58z" fill="#fff"/><path opacity=".7" d="M223.092 171.356a.842.842 0 100-1.684.842.842 0 000 1.684z" fill="#fff"/><path d="M223.089 170.947a.433.433 0 10-.002-.866.433.433 0 00.002.866z" fill="#fff"/><path opacity=".2" d="M223.087 172.578a2.064 2.064 0 10-.001-4.127 2.064 2.064 0 00.001 4.127zM232.849 168.467a1.67 1.67 0 10-.002-3.338 1.67 1.67 0 00.002 3.338z" fill="#fff"/><path opacity=".4" d="M232.845 168.065a1.267 1.267 0 100-2.533 1.267 1.267 0 000 2.533z" fill="#fff"/><path opacity=".7" d="M232.842 167.624a.826.826 0 10.001-1.653.826.826 0 00-.001 1.653z" fill="#fff"/><path d="M232.847 167.223a.425.425 0 10-.002-.85.425.425 0 00.002.85z" fill="#fff"/><path opacity=".2" d="M232.846 168.822a2.025 2.025 0 10-.001-4.051 2.025 2.025 0 00.001 4.051zM241.45 160.25a1.137 1.137 0 10.001-2.275 1.137 1.137 0 00-.001 2.275z" fill="#fff"/><path opacity=".4" d="M241.443 159.97a.857.857 0 100-1.714.857.857 0 000 1.714z" fill="#fff"/><path opacity=".7" d="M241.444 159.675a.56.56 0 100-1.122.56.56 0 000 1.122z" fill="#fff"/><path d="M241.445 159.401a.288.288 0 100-.577.288.288 0 000 .577z" fill="#fff"/><path opacity=".2" d="M241.443 160.494a1.381 1.381 0 100-2.763 1.381 1.381 0 000 2.763zM239.421 148.326a1.858 1.858 0 100-3.716 1.858 1.858 0 000 3.716z" fill="#fff"/><path opacity=".4" d="M239.419 147.878a1.41 1.41 0 10.001-2.821 1.41 1.41 0 00-.001 2.821z" fill="#fff"/><path opacity=".7" d="M239.425 147.394a.925.925 0 10.001-1.85.925.925 0 00-.001 1.85z" fill="#fff"/><path d="M239.423 146.946a.478.478 0 100-.956.478.478 0 000 .956z" fill="#fff"/><path opacity=".2" d="M239.425 148.721a2.253 2.253 0 100-4.507 2.253 2.253 0 000 4.507zM243.04 137.738a1.548 1.548 0 10-.001-3.095 1.548 1.548 0 00.001 3.095z" fill="#fff"/><path opacity=".4" d="M243.043 137.358a1.168 1.168 0 100-2.336 1.168 1.168 0 000 2.336z" fill="#fff"/><path opacity=".7" d="M243.04 136.956a.766.766 0 100-1.532.766.766 0 000 1.532z" fill="#fff"/><path d="M243.043 136.584a.394.394 0 100-.789.394.394 0 000 .789z" fill="#fff"/><path opacity=".2" d="M243.038 138.064a1.874 1.874 0 10-.002-3.748 1.874 1.874 0 00.002 3.748zM253.905 132.131a1.858 1.858 0 10.001-3.717 1.858 1.858 0 00-.001 3.717z" fill="#fff"/><path opacity=".4" d="M253.903 131.683a1.411 1.411 0 100-2.823 1.411 1.411 0 000 2.823z" fill="#fff"/><path opacity=".7" d="M253.902 131.199a.926.926 0 10-.001-1.851.926.926 0 00.001 1.851z" fill="#fff"/><path d="M253.9 130.751a.478.478 0 100-.956.478.478 0 000 .956z" fill="#fff"/><path opacity=".2" d="M253.901 132.533a2.26 2.26 0 100-4.521 2.26 2.26 0 000 4.521zM263.674 122.65a1.745 1.745 0 100-3.49 1.745 1.745 0 000 3.49z" fill="#fff"/><path opacity=".4" d="M263.671 122.224a1.32 1.32 0 100-2.64 1.32 1.32 0 000 2.64z" fill="#fff"/><path opacity=".7" d="M263.669 121.769a.865.865 0 100-1.73.865.865 0 000 1.73z" fill="#fff"/><path d="M263.674 121.352a.448.448 0 100-.895.448.448 0 000 .895z" fill="#fff"/><path opacity=".2" d="M263.671 123.029a2.124 2.124 0 100-4.248 2.124 2.124 0 000 4.248zM318.638 176.963a.888.888 0 10-.001-1.775.888.888 0 00.001 1.775z" fill="#fff"/><path opacity=".4" d="M318.636 176.751a.675.675 0 100-1.35.675.675 0 000 1.35z" fill="#fff"/><path opacity=".7" d="M318.635 176.515a.44.44 0 100-.88.44.44 0 000 .88z" fill="#fff"/><path d="M318.642 176.303a.228.228 0 10-.001-.455.228.228 0 00.001.455z" fill="#fff"/><path opacity=".2" d="M318.64 177.152a1.077 1.077 0 100-2.154 1.077 1.077 0 000 2.154zM318.718 166.827a1.844 1.844 0 100-3.687 1.844 1.844 0 000 3.687z" fill="#fff"/><path opacity=".4" d="M318.724 166.379a1.396 1.396 0 100-2.792 1.396 1.396 0 000 2.792z" fill="#fff"/><path opacity=".7" d="M318.723 165.902a.918.918 0 10-.002-1.836.918.918 0 00.002 1.836z" fill="#fff"/><path d="M318.72 165.454a.47.47 0 10.001-.94.47.47 0 00-.001.94z" fill="#fff"/><path opacity=".2" d="M318.722 167.222a2.238 2.238 0 100-4.476 2.238 2.238 0 000 4.476zM314.676 156.071a1.418 1.418 0 10.001-2.837 1.418 1.418 0 00-.001 2.837z" fill="#fff"/><path opacity=".4" d="M314.679 155.73a1.077 1.077 0 100-2.154 1.077 1.077 0 000 2.154z" fill="#fff"/><path opacity=".7" d="M314.682 155.358a.706.706 0 100-1.411.706.706 0 000 1.411z" fill="#fff"/><path d="M314.677 155.017a.364.364 0 100-.728.364.364 0 000 .728z" fill="#fff"/><path opacity=".2" d="M314.675 156.376a1.722 1.722 0 100-3.444 1.722 1.722 0 000 3.444zM311.671 144.375a1.342 1.342 0 100-2.685 1.342 1.342 0 000 2.685z" fill="#fff"/><path opacity=".4" d="M311.673 144.049a1.017 1.017 0 10-.002-2.034 1.017 1.017 0 00.002 2.034z" fill="#fff"/><path opacity=".7" d="M311.675 143.7a.668.668 0 100-1.335.668.668 0 000 1.335z" fill="#fff"/><path d="M311.677 143.372a.342.342 0 100-.683.342.342 0 000 .683z" fill="#fff"/><path opacity=".2" d="M311.678 144.662a1.631 1.631 0 100-3.263 1.631 1.631 0 000 3.263zM298.82 136.652a1.047 1.047 0 100-2.093 1.047 1.047 0 000 2.093z" fill="#fff"/><path opacity=".4" d="M298.82 136.394a.789.789 0 100-1.577.789.789 0 000 1.577z" fill="#fff"/><path opacity=".7" d="M298.821 136.121a.515.515 0 100-1.03.515.515 0 000 1.03z" fill="#fff"/><path d="M298.828 135.871a.265.265 0 100-.53.265.265 0 000 .53z" fill="#fff"/><path opacity=".2" d="M298.821 136.871a1.266 1.266 0 10.001-2.533 1.266 1.266 0 00-.001 2.533zM302.451 123.446a1.624 1.624 0 100-3.247 1.624 1.624 0 000 3.247z" fill="#fff"/><path opacity=".4" d="M302.448 123.051a1.23 1.23 0 100-2.458 1.23 1.23 0 000 2.458z" fill="#fff"/><path opacity=".7" d="M302.453 122.626a.804.804 0 100-1.608.804.804 0 000 1.608z" fill="#fff"/><path d="M302.448 122.239a.418.418 0 100-.835.418.418 0 000 .835z" fill="#fff"/><path opacity=".2" d="M302.449 123.794a1.972 1.972 0 100-3.944 1.972 1.972 0 000 3.944zM290.911 117.619a1.927 1.927 0 100-3.855 1.927 1.927 0 000 3.855z" fill="#fff"/><path opacity=".4" d="M290.909 117.157a1.464 1.464 0 100-2.928 1.464 1.464 0 000 2.928z" fill="#fff"/><path opacity=".7" d="M290.909 116.65a.956.956 0 100-1.912.956.956 0 000 1.912z" fill="#fff"/><path d="M290.915 116.185a.493.493 0 100-.985.493.493 0 000 .985z" fill="#fff"/><path opacity=".2" d="M290.914 118.038a2.344 2.344 0 100-4.688 2.344 2.344 0 000 4.688zM288.318 105.429a1.123 1.123 0 100-2.247 1.123 1.123 0 000 2.247z" fill="#fff"/><path opacity=".4" d="M288.318 105.156a.85.85 0 10.002-1.698.85.85 0 00-.002 1.698z" fill="#fff"/><path opacity=".7" d="M288.319 104.869a.562.562 0 10-.001-1.123.562.562 0 00.001 1.123z" fill="#fff"/><path d="M288.32 104.596a.288.288 0 100-.576.288.288 0 000 .576z" fill="#fff"/><path opacity=".2" d="M288.319 105.672a1.365 1.365 0 100-2.73 1.365 1.365 0 000 2.73zM281.055 96.865a.781.781 0 100-1.562.781.781 0 000 1.562z" fill="#fff"/><path opacity=".4" d="M281.053 96.676a.592.592 0 10-.001-1.184.592.592 0 00.001 1.184z" fill="#fff"/><path opacity=".7" d="M281.051 96.471a.387.387 0 100-.774.387.387 0 000 .774z" fill="#fff"/><path d="M281.049 96.281a.197.197 0 100-.394.197.197 0 000 .394z" fill="#fff"/><path opacity=".2" d="M281.05 97.033a.948.948 0 100-1.897.948.948 0 000 1.897zM269.223 92.746a1.175 1.175 0 100-2.35 1.175 1.175 0 000 2.35z" fill="#fff"/><path opacity=".4" d="M269.223 92.466a.895.895 0 100-1.79.895.895 0 000 1.79z" fill="#fff"/><path opacity=".7" d="M269.225 92.154a.584.584 0 100-1.168.584.584 0 000 1.168z" fill="#fff"/><path d="M269.225 91.874a.304.304 0 100-.607.304.304 0 000 .607z" fill="#fff"/><path opacity=".2" d="M269.223 92.997a1.426 1.426 0 100-2.852 1.426 1.426 0 000 2.852zM267.257 78.547a.812.812 0 100-1.624.812.812 0 000 1.624z" fill="#fff"/><path opacity=".4" d="M267.263 78.35a.614.614 0 100-1.229.614.614 0 000 1.229z" fill="#fff"/><path opacity=".7" d="M267.261 78.136a.402.402 0 100-.804.402.402 0 000 .804z" fill="#fff"/><path d="M267.259 77.939a.204.204 0 10.001-.409.204.204 0 00-.001.409z" fill="#fff"/><path opacity=".2" d="M267.26 78.72a.986.986 0 100-1.973.986.986 0 000 1.973zM261.537 68.276a1.912 1.912 0 10-.001-3.823 1.912 1.912 0 00.001 3.823z" fill="#fff"/><path opacity=".4" d="M261.535 67.814a1.45 1.45 0 100-2.898 1.45 1.45 0 000 2.898z" fill="#fff"/><path opacity=".7" d="M261.534 67.312a.948.948 0 100-1.895.948.948 0 000 1.895z" fill="#fff"/><path d="M261.532 66.85a.485.485 0 10.001-.97.485.485 0 00-.001.97z" fill="#fff"/><path opacity=".2" d="M261.532 68.678a2.314 2.314 0 100-4.628 2.314 2.314 0 000 4.628zM248.596 67.608a1.229 1.229 0 100-2.457 1.229 1.229 0 000 2.457z" fill="#fff"/><path opacity=".4" d="M248.589 67.311a.933.933 0 100-1.865.933.933 0 000 1.865z" fill="#fff"/><path opacity=".7" d="M248.591 66.985a.607.607 0 100-1.214.607.607 0 000 1.214z" fill="#fff"/><path d="M248.592 66.698a.319.319 0 100-.638.319.319 0 000 .638z" fill="#fff"/><path opacity=".2" d="M248.596 67.874a1.494 1.494 0 100-2.99 1.494 1.494 0 000 2.99zM239.325 61.372a1.676 1.676 0 100-3.352 1.676 1.676 0 000 3.352z" fill="#fff"/><path opacity=".4" d="M239.321 60.963a1.267 1.267 0 100-2.533 1.267 1.267 0 000 2.533z" fill="#fff"/><path opacity=".7" d="M239.319 60.53a.834.834 0 100-1.668.834.834 0 000 1.668z" fill="#fff"/><path d="M239.323 60.128a.432.432 0 100-.863.432.432 0 000 .863z" fill="#fff"/><path opacity=".2" d="M239.322 61.73a2.033 2.033 0 100-4.066 2.033 2.033 0 000 4.066zM228.464 59.454a1.199 1.199 0 100-2.398 1.199 1.199 0 000 2.398z" fill="#fff"/><path opacity=".4" d="M228.465 59.166a.91.91 0 100-1.82.91.91 0 000 1.82z" fill="#fff"/><path opacity=".7" d="M228.467 58.847a.592.592 0 10-.001-1.183.592.592 0 00.001 1.183z" fill="#fff"/><path d="M228.468 58.558a.303.303 0 100-.607.303.303 0 000 .607z" fill="#fff"/><path opacity=".2" d="M228.464 59.712a1.457 1.457 0 10.001-2.913 1.457 1.457 0 00-.001 2.913zM217.802 51.193a1.145 1.145 0 100-2.29 1.145 1.145 0 000 2.29z" fill="#fff"/><path opacity=".4" d="M217.802 50.911a.865.865 0 100-1.73.865.865 0 000 1.73z" fill="#fff"/><path opacity=".7" d="M217.803 50.616a.57.57 0 100-1.138.57.57 0 000 1.138z" fill="#fff"/><path d="M217.804 50.344a.296.296 0 100-.593.296.296 0 000 .593z" fill="#fff"/><path opacity=".2" d="M217.802 51.434a1.388 1.388 0 100-2.775 1.388 1.388 0 000 2.776zM205.414 57.473a1.297 1.297 0 100-2.593 1.297 1.297 0 000 2.593z" fill="#fff"/><path opacity=".4" d="M205.416 57.164a.986.986 0 100-1.973.986.986 0 000 1.973z" fill="#fff"/><path opacity=".7" d="M205.418 56.82a.645.645 0 100-1.29.645.645 0 000 1.29z" fill="#fff"/><path d="M205.412 56.511a.334.334 0 100-.668.334.334 0 000 .668z" fill="#fff"/><path opacity=".2" d="M205.414 57.755a1.578 1.578 0 100-3.156 1.578 1.578 0 000 3.156zM195.303 50.124a1.1 1.1 0 100-2.2 1.1 1.1 0 000 2.2z" fill="#fff"/><path opacity=".4" d="M195.303 49.858a.835.835 0 100-1.67.835.835 0 000 1.67z" fill="#fff"/><path opacity=".7" d="M195.304 49.569a.546.546 0 100-1.092.546.546 0 000 1.092z" fill="#fff"/><path d="M195.304 49.303a.28.28 0 100-.561.28.28 0 000 .562z" fill="#fff"/><path opacity=".2" d="M195.304 50.358a1.335 1.335 0 100-2.67 1.335 1.335 0 000 2.67zM184.495 59.704a1.744 1.744 0 100-3.489 1.744 1.744 0 000 3.49z" fill="#fff"/><path opacity=".4" d="M184.492 59.279a1.32 1.32 0 100-2.64 1.32 1.32 0 000 2.64z" fill="#fff"/><path opacity=".7" d="M184.498 58.823a.865.865 0 10-.001-1.729.865.865 0 00.001 1.73z" fill="#fff"/><path d="M184.494 58.407a.447.447 0 10.001-.895.447.447 0 00-.001.895z" fill="#fff"/><path opacity=".2" d="M184.491 60.077a2.117 2.117 0 100-4.234 2.117 2.117 0 000 4.233zM174.093 67.077a1.062 1.062 0 100-2.123 1.062 1.062 0 000 2.123z" fill="#fff"/><path opacity=".4" d="M174.093 66.82a.804.804 0 100-1.609.804.804 0 000 1.608z" fill="#fff"/><path opacity=".7" d="M174.094 66.539a.523.523 0 100-1.046.523.523 0 000 1.046z" fill="#fff"/><path d="M174.093 66.288a.273.273 0 100-.545.273.273 0 000 .545z" fill="#fff"/><path opacity=".2" d="M174.094 67.304a1.29 1.29 0 100-2.58 1.29 1.29 0 000 2.58zM162.033 57.618a1.524 1.524 0 100-3.049 1.524 1.524 0 000 3.049z" fill="#fff"/><path opacity=".4" d="M162.036 57.245a1.153 1.153 0 100-2.305 1.153 1.153 0 000 2.306z" fill="#fff"/><path opacity=".7" d="M162.032 56.851a.759.759 0 100-1.518.759.759 0 000 1.518z" fill="#fff"/><path d="M162.035 56.488a.395.395 0 100-.79.395.395 0 000 .79z" fill="#fff"/><path opacity=".2" d="M162.031 57.944a1.85 1.85 0 100-3.7 1.85 1.85 0 000 3.7zM148.824 54.516a1.168 1.168 0 10.001-2.337 1.168 1.168 0 00-.001 2.337z" fill="#fff"/><path opacity=".4" d="M148.825 54.234a.888.888 0 100-1.776.888.888 0 000 1.776z" fill="#fff"/><path opacity=".7" d="M148.827 53.922a.576.576 0 100-1.152.576.576 0 000 1.152z" fill="#fff"/><path d="M148.827 53.642a.296.296 0 100-.592.296.296 0 000 .593z" fill="#fff"/><path opacity=".2" d="M148.825 54.765a1.418 1.418 0 100-2.837 1.418 1.418 0 000 2.837zM137.934 55.836a1.175 1.175 0 100-2.35 1.175 1.175 0 000 2.35z" fill="#fff"/><path opacity=".4" d="M137.934 55.554a.895.895 0 100-1.79.895.895 0 000 1.79z" fill="#fff"/><path opacity=".7" d="M137.936 55.244a.584.584 0 100-1.168.584.584 0 000 1.168z" fill="#fff"/><path d="M137.936 54.962a.304.304 0 100-.607.304.304 0 000 .607z" fill="#fff"/><path opacity=".2" d="M137.934 56.087a1.426 1.426 0 100-2.852 1.426 1.426 0 000 2.852zM126.067 61.372a1.942 1.942 0 100-3.884 1.942 1.942 0 000 3.884z" fill="#fff"/><path opacity=".4" d="M126.073 60.902a1.472 1.472 0 100-2.943 1.472 1.472 0 000 2.943z" fill="#fff"/><path opacity=".7" d="M126.073 60.394a.963.963 0 100-1.927.963.963 0 000 1.927z" fill="#fff"/><path d="M126.071 59.931a.501.501 0 100-1.003.501.501 0 000 1.003z" fill="#fff"/><path opacity=".2" d="M126.07 61.79a2.359 2.359 0 100-4.717 2.359 2.359 0 000 4.718zM116.238 67.153a1.456 1.456 0 100-2.913 1.456 1.456 0 000 2.913z" fill="#fff"/><path opacity=".4" d="M116.24 66.803a1.108 1.108 0 100-2.216 1.108 1.108 0 000 2.216z" fill="#fff"/><path opacity=".7" d="M116.236 66.425a.728.728 0 100-1.456.728.728 0 000 1.456z" fill="#fff"/><path d="M116.239 66.068a.372.372 0 100-.745.372.372 0 000 .745z" fill="#fff"/><path opacity=".2" d="M116.236 67.472a1.775 1.775 0 100-3.55 1.775 1.775 0 000 3.55zM116.394 88.127a1.442 1.442 0 100-2.884 1.442 1.442 0 000 2.884z" fill="#fff"/><path opacity=".4" d="M116.397 87.778a1.092 1.092 0 100-2.184 1.092 1.092 0 000 2.184z" fill="#fff"/><path opacity=".7" d="M116.401 87.399a.713.713 0 10-.001-1.427.713.713 0 00.001 1.427z" fill="#fff"/><path d="M116.395 87.058a.372.372 0 100-.744.372.372 0 000 .744z" fill="#fff"/><path opacity=".2" d="M116.401 88.438a1.753 1.753 0 10-.001-3.505 1.753 1.753 0 00.001 3.505zM106.838 91.153a1.222 1.222 0 100-2.443 1.222 1.222 0 000 2.444z" fill="#fff"/><path opacity=".4" d="M106.84 90.859a.925.925 0 100-1.85.925.925 0 000 1.85z" fill="#fff"/><path opacity=".7" d="M106.841 90.54a.607.607 0 100-1.214.607.607 0 000 1.214z" fill="#fff"/><path d="M106.842 90.243a.31.31 0 100-.622.31.31 0 000 .622z" fill="#fff"/><path opacity=".2" d="M106.839 91.412a1.479 1.479 0 100-2.959 1.479 1.479 0 000 2.959zM104.432 104.86a1.752 1.752 0 100-3.504 1.752 1.752 0 000 3.504z" fill="#fff"/><path opacity=".4" d="M104.437 104.436a1.327 1.327 0 100-2.654 1.327 1.327 0 000 2.654z" fill="#fff"/><path opacity=".7" d="M104.435 103.981a.872.872 0 100-1.744.872.872 0 000 1.744z" fill="#fff"/><path d="M104.432 103.555a.447.447 0 100-.894.447.447 0 000 .894z" fill="#fff"/><path opacity=".2" d="M104.436 105.232a2.123 2.123 0 10.001-4.247 2.123 2.123 0 00-.001 4.247zM89.989 105.81a1.153 1.153 0 100-2.306 1.153 1.153 0 000 2.306z" fill="#fff"/><path opacity=".4" d="M89.99 105.528a.873.873 0 100-1.745.873.873 0 000 1.745z" fill="#fff"/><path opacity=".7" d="M89.99 105.226a.57.57 0 100-1.138.57.57 0 000 1.138z" fill="#fff"/><path d="M89.991 104.951a.296.296 0 100-.591.296.296 0 000 .591z" fill="#fff"/><path opacity=".2" d="M89.99 106.051a1.396 1.396 0 100-2.791 1.396 1.396 0 000 2.791zM87.365 117.028a.842.842 0 100-1.684.842.842 0 000 1.684z" fill="#fff"/><path opacity=".4" d="M87.372 116.823a.637.637 0 100-1.274.637.637 0 000 1.274z" fill="#fff"/><path opacity=".7" d="M87.37 116.604a.417.417 0 100-.835.417.417 0 000 .835z" fill="#fff"/><path d="M87.369 116.399a.212.212 0 100-.425.212.212 0 000 .425z" fill="#fff"/><path opacity=".2" d="M87.368 117.21a1.024 1.024 0 100-2.048 1.024 1.024 0 000 2.048zM67.464 121.442a1.714 1.714 0 10.001-3.428 1.714 1.714 0 000 3.428z" fill="#fff"/><path opacity=".4" d="M67.461 121.026a1.297 1.297 0 100-2.594 1.297 1.297 0 000 2.594z" fill="#fff"/><path opacity=".7" d="M67.467 120.578a.85.85 0 100-1.699.85.85 0 000 1.699z" fill="#fff"/><path d="M67.463 120.169a.44.44 0 100-.88.44.44 0 000 .88z" fill="#fff"/><path opacity=".2" d="M67.461 121.807a2.078 2.078 0 10.001-4.156 2.078 2.078 0 000 4.156zM73.323 135.309a1.73 1.73 0 100-3.46 1.73 1.73 0 000 3.46z" fill="#fff"/><path opacity=".4" d="M73.32 134.892a1.312 1.312 0 10.001-2.624 1.312 1.312 0 000 2.624z" fill="#fff"/><path opacity=".7" d="M73.318 134.437a.857.857 0 100-1.715.857.857 0 000 1.715z" fill="#fff"/><path d="M73.323 134.021a.44.44 0 100-.88.44.44 0 000 .88z" fill="#fff"/><path opacity=".2" d="M73.32 135.681a2.101 2.101 0 100-4.203 2.101 2.101 0 000 4.203zM63.77 144.282a1.942 1.942 0 100-3.883 1.942 1.942 0 000 3.883z" fill="#fff"/><path opacity=".4" d="M63.769 143.812a1.472 1.472 0 100-2.943 1.472 1.472 0 000 2.943z" fill="#fff"/><path opacity=".7" d="M63.768 143.306a.964.964 0 10-.001-1.928.964.964 0 00.001 1.928z" fill="#fff"/><path d="M63.767 142.834a.493.493 0 100-.986.493.493 0 000 .986z" fill="#fff"/><path opacity=".2" d="M63.765 144.701a2.36 2.36 0 100-4.72 2.36 2.36 0 000 4.72zM57.366 156.163a1.616 1.616 0 100-3.231 1.616 1.616 0 000 3.231z" fill="#fff"/><path opacity=".4" d="M57.37 155.769a1.222 1.222 0 100-2.443 1.222 1.222 0 000 2.443z" fill="#fff"/><path opacity=".7" d="M57.367 155.35a.804.804 0 100-1.608.804.804 0 000 1.608z" fill="#fff"/><path d="M57.37 154.956a.41.41 0 100-.819.41.41 0 000 .819z" fill="#fff"/><path opacity=".2" d="M57.363 156.504a1.957 1.957 0 100-3.914 1.957 1.957 0 000 3.914zM64.074 167.928a1.691 1.691 0 10.001-3.383 1.691 1.691 0 000 3.383z" fill="#fff"/><path opacity=".4" d="M64.071 167.517a1.282 1.282 0 100-2.564 1.282 1.282 0 000 2.564z" fill="#fff"/><path opacity=".7" d="M64.069 167.079a.842.842 0 100-1.684.842.842 0 000 1.684z" fill="#fff"/><path d="M64.073 166.669a.432.432 0 100-.864.432.432 0 000 .864z" fill="#fff"/><path opacity=".2" d="M64.071 168.291a2.055 2.055 0 100-4.111 2.055 2.055 0 000 4.111zM74.264 179.201a.827.827 0 100-1.655.827.827 0 000 1.655z" fill="#fff"/><path opacity=".4" d="M74.27 178.996a.622.622 0 10.001-1.243.622.622 0 000 1.243z" fill="#fff"/><path opacity=".7" d="M74.269 178.782a.41.41 0 100-.818.41.41 0 000 .818z" fill="#fff"/><path d="M74.267 178.585a.212.212 0 100-.425.212.212 0 000 .425z" fill="#fff"/><path opacity=".2" d="M74.267 179.374a1.002 1.002 0 10-.001-2.004 1.002 1.002 0 000 2.004zM317.161 178.805a1.137 1.137 0 10.001-2.275 1.137 1.137 0 00-.001 2.275z" fill="#fff"/><path opacity=".4" d="M317.162 178.532a.864.864 0 100-1.729.864.864 0 000 1.729z" fill="#fff"/><path opacity=".7" d="M317.155 178.228a.56.56 0 100-1.122.56.56 0 000 1.122z" fill="#fff"/><path d="M317.155 177.955a.288.288 0 10.001-.577.288.288 0 00-.001.577z" fill="#fff"/><path opacity=".2" d="M317.162 179.048a1.38 1.38 0 100-2.76 1.38 1.38 0 000 2.76z" fill="#fff"/><path opacity=".03" d="M318.467 176.188a1.633 1.633 0 00-1.599 1.949 1.632 1.632 0 002.223 1.189 1.636 1.636 0 001.007-1.507 1.635 1.635 0 00-1.631-1.631zm0-2.86a4.486 4.486 0 014.149 2.772 4.494 4.494 0 01-.973 4.894 4.491 4.491 0 11-3.176-7.666z" fill="#fff"/><path opacity=".03" d="M318.467 174.762a3.033 3.033 0 00-2.145 5.18 3.035 3.035 0 102.145-5.18zm0-1.434a4.486 4.486 0 014.149 2.772 4.494 4.494 0 01-.973 4.894 4.491 4.491 0 11-3.176-7.666z" fill="#fff"/><defs><linearGradient id="prefix__paint0_linear_1249_15634" x1="244.738" y1="31.19" x2="134.215" y2="31.19" gradientUnits="userSpaceOnUse"><stop stop-color="#fff" stop-opacity=".01"/><stop offset=".02" stop-color="#fff" stop-opacity=".2"/><stop offset=".05" stop-color="#fff" stop-opacity=".37"/><stop offset=".08" stop-color="#fff" stop-opacity=".52"/><stop offset=".11" stop-color="#fff" stop-opacity=".65"/><stop offset=".14" stop-color="#fff" stop-opacity=".76"/><stop offset=".18" stop-color="#fff" stop-opacity=".85"/><stop offset=".22" stop-color="#fff" stop-opacity=".92"/><stop offset=".27" stop-color="#fff" stop-opacity=".96"/><stop offset=".34" stop-color="#fff" stop-opacity=".99"/><stop offset=".52" stop-color="#fff"/><stop offset=".65" stop-color="#fff" stop-opacity=".99"/><stop offset=".71" stop-color="#fff" stop-opacity=".96"/><stop offset=".77" stop-color="#fff" stop-opacity=".91"/><stop offset=".81" stop-color="#fff" stop-opacity=".84"/><stop offset=".85" stop-color="#fff" stop-opacity=".74"/><stop offset=".89" stop-color="#fff" stop-opacity=".62"/><stop offset=".92" stop-color="#fff" stop-opacity=".48"/><stop offset=".95" stop-color="#fff" stop-opacity=".32"/><stop offset=".98" stop-color="#fff" stop-opacity=".14"/><stop offset="1" stop-color="#fff" stop-opacity="0"/></linearGradient></defs></svg>