<svg
  version="1.0"
  xmlns="http://www.w3.org/2000/svg"
  width="1546.667"
  height="1546.667"
  viewBox="0 0 1160 1160"
>
  <path
    d="M478 291.5c7.5 2.5 8.2 2.8 17 6.2 3.6 1.4 8.2 3.4 10.3 4.4 2 1 3.7 1.5 3.7 1.1 0-.4.4-.3.8.3.4.5 4.1 2.7 8.2 4.8 18.1 9.1 38.6 22.5 53.4 34.9 8.2 6.9 25.4 24.6 30.4 31.3 4.8 6.5 11.5 18.9 14 26 5.1 14.2 5.9 32.6 2.1 49.2-2.1 9.6-10.5 29.9-13.6 33.1-.7.7-1.3 1.7-1.3 2.2 0 .5-3.4 5.4-7.6 11-9.6 13-25.7 29.1-40.4 40.4-6.3 4.9-11.9 9.4-12.5 10-.5.6-3.7 3.1-7 5.6-3.3 2.5-6.2 4.7-6.5 5-.3.3-2.5 2.1-5 4s-4.7 3.7-5 4c-.3.3-3 2.3-6 4.5s-5.9 4.5-6.5 5.1c-.5.6-5.5 4.4-11 8.4-5.5 4.1-10.2 7.7-10.5 8-.3.3-2.1 1.6-4 3-1.9 1.3-3.9 2.8-4.5 3.2-3.6 2.8-12.3 9.3-20 14.8-4.9 3.5-9.1 6.8-9.3 7.2-.2.4-.8.8-1.4.8-.5 0-1.6.6-2.3 1.2-1.6 1.5-1.3 1.3-27.9 19.9-11 7.6-20.3 13.9-20.7 13.9-.4 0-1.4.6-2.2 1.4-.8.8-11.7 8.2-24.3 16.5-12.6 8.2-23.4 15.5-24.1 16-.7.6-1.5 1.1-1.8 1.1-.3 0-3.3 1.8-6.5 4s-6.1 4-6.4 4c-.2 0-3.7 2.1-7.8 4.8-4 2.6-8.5 5.4-10 6.1-1.6.8-2.8 1.8-2.8 2.3 0 .4-.4.8-.9.8-.6 0-5 2.5-9.8 5.5-7.9 5-15.3 9.3-20.4 12-1.1.5-1.9 1.3-1.9 1.7 0 .5-.5.8-1 .8-.6 0-4.3 2-8.3 4.4-7.7 4.7-48.2 27.8-50.7 28.9-.8.4-2.8 1.5-4.5 2.5-1.6 1-6.4 3.7-10.5 5.9s-11.1 6-15.5 8.4c-4.4 2.3-11.6 6.2-16 8.5-11.7 6.3-79.7 40.3-88.5 44.3-4.1 1.9-12.9 6-19.5 9.1-6.6 3.2-19.2 8.9-28 12.7-8.8 3.8-16.7 7.3-17.5 7.7-.8.3-2.8 1.5-4.5 2.6-1.6 1.1-4.2 2.5-5.7 3.1-1.6.6-2.5 1.5-2.2 2 .3.5.8.8 1.2.5.4-.2 3.9-.7 7.7-1.1 3.9-.4 8.3-.8 10-1 1.6-.2 6.1-.7 10-1.1 10.1-1 12-1.2 12-1.4 0 0 2.5-.3 5.5-.5 3-.3 7.3-.7 9.5-1 2.2-.2 6.3-.7 9-1 2.8-.3 6.8-.7 9-1 2.2-.3 6.7-.7 10-1.1 3.3-.3 7.1-.7 8.5-.9 1.4-.2 5.7-.7 9.5-1 3.9-.4 8.1-.8 9.5-1 3.2-.5 12.5-1.5 17-1.9 1.9-.2 5.5-.6 8-1s6.8-.9 9.5-1.1c2.8-.3 6.4-.6 8-.9 1.7-.2 5.9-.7 9.5-1 3.6-.4 7.6-.9 9-1.1 1.4-.2 5.4-.7 9-1 3.6-.3 7.6-.7 9-.9 2.5-.4 5.5-.8 21.5-2.6 10.8-1.3 15.4-1.8 22-2.5 2.8-.3 8.2-1 12-1.4 3.9-.5 7.7-.9 8.5-1 .8 0 3.1-.2 5.1-.5 2-.3 5.9-.7 8.5-1 2.7-.4 6.7-.8 8.9-1.1 3.8-.5 7.8-1 17.5-2 2.5-.2 6.5-.7 9-1.1 2.5-.3 6.3-.8 8.5-1 4.8-.4 11.5-1.2 16.4-1.9 2-.2 5.4-.7 7.6-.9 2.2-.3 6.7-.8 10-1.2 3.3-.4 7.1-.8 8.5-.9 1.4-.2 4.3-.5 6.5-.8 2.2-.4 8.5-1.1 14-1.7 13.8-1.6 15.3-1.7 21.5-2.5 8.5-1.1 10.1-1.3 16.5-2 3.3-.3 7.4-.7 9-1 1.7-.2 5.6-.7 8.8-1 3.2-.4 6.6-.8 7.5-1 .9-.1 5.1-.6 9.2-1s8.4-.9 9.5-1.1c1.1-.2 4.5-.6 7.5-.9 6.6-.6 12.7-1.2 20-2.1 7.7-.9 16.9-1.7 31-2.8 2.5-.2 7.9-.7 12-1 4.1-.4 10.4-.9 14-1.1 35.6-2.4 138.9-2.4 155.5 0 1.7.2 5.3.6 8 1 11.2 1.2 32.9 4.9 38.5 6.4 2.9.9 11.1 2.9 18 4.6 4.1 1 27.9 9.3 29.5 10.3.6.4 1.2.7 1.5.7.3.1 4.3 2 9 4.4 14.8 7.3 23.4 13.2 32.8 22.3l5.3 5.2 97.4.1c53.6.1 97.8.5 98.2.8.3.4 1.2.2 2-.4.7-.6 1.3-.8 1.3-.3s25.2.9 57 .9c31.4.1 57-.2 57-.5 0-.9-8-5.4-21.7-12.4-7.3-3.6-15.4-7.9-18-9.4-2.7-1.5-6.1-3.4-7.8-4.2-1.6-.8-3.4-1.8-4-2.3-.5-.4-7-4.4-14.2-9-12.6-7.7-28.2-18.3-32.3-21.8-1-.8-3.1-2.4-4.5-3.5-24.2-17.5-53-45.4-72.5-69.9-3.9-5-7.7-9.8-8.5-10.8-.8-.9-1.5-2.1-1.5-2.6s-.4-1.1-.8-1.3c-.9-.3-7.9-10.6-14.4-20.8-5.8-9.2-10-16.9-28.3-52-10.6-20.3-65.5-130.4-71.3-143-1.6-3.6-6.3-13.5-10.5-22-14.7-30.4-20-41.9-20.1-43.2-.1-.4-.7-1.3-1.3-2-.7-.6-1.3-1.6-1.3-2.1 0-1.5-18.1-38.1-19.7-40-.9-.9-1.3-1.7-.9-1.7s-.4-1.5-1.8-3.3c-1.4-1.7-3.4-4.3-4.3-5.6-2.1-2.8-17.1-18-19.9-20.1-1.1-.8-4.6-3.5-7.9-5.9-3.3-2.5-6.1-4.8-6.3-5.3-.2-.4-.7-.8-1.2-.8s-4.5-2.2-8.9-5c-31.4-19.5-75.5-35.7-125.1-46-11.3-2.3-11.4-2.4-20.7-3.9-3.5-.6-7.5-1.3-9-1.6-1.6-.3-4.6-.8-6.8-1.1-2.2-.2-5.3-.7-7-.9-11.7-1.8-18.1-2.5-25.5-3-13.6-.8-38.4-1.6-62-1.9l-24.5-.3 6.5 2.2zm201.7 247c1.8 2.7 3.7 5.4 4.1 6 4.3 5.5 24 45 25.7 51.5 0 .3.8 2.1 1.7 4 2.6 5.4 21.5 54.8 22.2 58.1.2.8 1.2 3.3 2.2 5.5.9 2.1 1.8 4.4 1.9 5 .2.6 1 2.7 1.8 4.5.9 1.9 2.8 6.3 4.2 9.9 3.3 7.9 3.9 9.3 10.9 24.4 5.6 11.9 6.4 14.2 4.7 13.1-1.5-.9-7.1-1.4-32.1-3.1-11.9-.8-42.1-.8-57.5 0-7.1.4-17 .9-22 1.1-4.9.2-12.4.7-16.5.9-4.1.3-11.1.8-15.5 1.1-4.4.3-10.3.7-13 1-2.8.3-8.4.8-12.5 1.1-4.1.2-9.1.6-11 .9-3.2.3-6.3.6-22.5 2-2.7.3-6.6.7-8.5 1-1.9.2-6.2.7-9.5.9-3.3.3-6.9.7-8 1-1.1.2-5.6.7-10 1-4.4.4-8.7.9-9.5 1.1-1.3.4-6 1-15 2-4.4.5-13.3 1.7-15.1 2-1 .2-4.6.6-8 1-3.5.4-6.6.8-6.9 1-.3.1-3.2.6-6.5 1-3.2.3-6.2.8-6.5 1-.3.2-3.4.6-7 1s-6.7.8-7 1c-.3.2-3 .6-6 .9-3 .4-6.8.8-8.5 1.1-6.7 1.1-9.3 1.4-16 2.1-3.8.3-7.4.9-8 1.1-.5.3.2-.6 1.8-2 1.5-1.4 4.1-3 5.7-3.7 1.7-.7 3-1.6 3-2 0-.5 1.2-1.3 2.8-1.9 2.6-1 8-4 13.2-7.2 1.4-.9 6.6-4 11.5-6.9 5-2.9 16.1-9.8 24.8-15.4 8.8-5.5 16.6-10.6 17.5-11.1.8-.6 5.4-3.6 10.1-6.8 4.7-3.3 10.4-7.1 12.6-8.5 2.2-1.5 4.2-2.9 4.5-3.2.3-.3 2.2-1.6 4.2-3 2.1-1.4 3.8-2.8 3.8-3.3 0-.4.5-.7 1.1-.7.5 0 2.7-1.3 4.7-2.8 2-1.6 6.5-4.9 9.8-7.3 55.6-39.9 92.8-72.8 135.4-119.8 3.6-3.9 7.1-7 7.9-6.9.8.2 2.9 2.5 4.8 5.3z"
  />
</svg>
